<?xml version="1.0" encoding="utf-8"?>
<!-- Generator: Adobe Illustrator 23.0.1, SVG Export Plug-In . SVG Version: 6.00 Build 0)  -->
<svg version="1.1" id="Layer_1" xmlns="http://www.w3.org/2000/svg" xmlns:xlink="http://www.w3.org/1999/xlink" x="0px" y="0px"
	 viewBox="0 0 532 532" style="enable-background:new 0 0 532 532;" xml:space="preserve">
<style type="text/css">
	.st0{fill:#FF7816;}
	.st1{fill:#FF9F00;}
	.st2{fill:#FFD400;}
	.st3{fill:#EC5569;}
	.st4{fill:#CC2E43;}
	.st5{fill:#697C86;}
	.st6{fill:#465A61;}
</style>
<g>
	<path class="st0" d="M477,10h-43.24l-30.7,30H477c8.28,0,15,6.72,15,15v22.85c0,30.23-10.4,59.88-29.3,83.5
		c-16.13,20.17-37.6,35.14-62.09,43.3l-21.15,7.05c-7.85,2.62-12.1,11.12-9.49,18.98c2.09,6.29,7.95,10.25,14.24,10.25
		c1.57,0,3.16-0.25,4.75-0.76l21.15-7.06c29.98-9.99,56.28-28.33,76.04-53.01C509.26,151.18,522,114.87,522,77.85V55
		C522,30.19,501.81,10,477,10z"/>
	<path class="st1" d="M152.54,211.7l-21.15-7.03c-24.49-8.18-45.96-23.14-62.09-43.32C50.4,137.73,40,108.09,40,77.85V55
		c0-8.28,6.72-15,15-15h77.52L98.24,10H55c-24.81,0-45,20.19-45,45v22.85c0,37.02,12.74,73.33,35.86,102.25
		c19.76,24.68,46.05,43.02,76.04,53.03l21.15,7.05c1.58,0.51,3.18,0.76,4.75,0.76c6.29,0,12.14-3.97,14.24-10.25
		C164.64,222.81,160.39,214.32,152.54,211.7z"/>
	<path class="st2" d="M312,302.8V325c0,8.4,6.6,15,15,15c24.9,0,45,20.1,45,45v30c0,8.4-6.6,15-15,15H175c-8.4,0-15-6.6-15-15v-30
		c0-24.9,20.1-45,45-45c8.4,0,15-6.6,15-15v-22.2c-55.8-17.7-96.6-66.9-103.2-125.4L98.2,10h335.6l-18.6,167.4
		C408.6,235.9,367.8,285.1,312,302.8z"/>
	<path class="st1" d="M357,430h-91V10h167.8l-18.6,167.4c-6.6,58.5-47.4,107.7-103.2,125.4V325c0,8.4,6.6,15,15,15
		c24.9,0,45,20.1,45,45v30C372,423.4,365.4,430,357,430z"/>
	<path class="st3" d="M402,415v90.8H130V415c0-8.4,6.6-15,15-15h242C395.4,400,402,406.6,402,415z"/>
	<path class="st4" d="M402,415v90.8H266V400h121C395.4,400,402,406.6,402,415z"/>
	<path class="st5" d="M432,507c0,8.4-6.6,15-15,15H115c-8.4,0-15-6.6-15-15c0-8.4,6.6-15,15-15h302C425.4,492,432,498.6,432,507z"/>
	<path class="st6" d="M432,507c0,8.4-6.6,15-15,15H266v-30h151C425.4,492,432,498.6,432,507z"/>
</g>
</svg>
