<?xml version="1.0" encoding="utf-8"?>
<!-- Generator: Adobe Illustrator 23.0.1, SVG Export Plug-In . SVG Version: 6.00 Build 0)  -->
<svg version="1.1" id="Layer_1" xmlns="http://www.w3.org/2000/svg" xmlns:xlink="http://www.w3.org/1999/xlink" x="0px" y="0px"
	 viewBox="0 0 58.51 49.64" style="enable-background:new 0 0 58.51 49.64;" xml:space="preserve">
<style type="text/css">
	.st0{fill:#4B4B4B;}
	.st1{fill:#ED1C24;}
	.st2{fill:#808285;}
	.st3{fill:#606263;}
	.st4{fill:#A91F23;}
</style>
<g>
	<g>
		<g>
			<path class="st0" d="M35.37,37.99H6.3c-0.68,0-1.23-0.55-1.23-1.23v-1.52c0-0.68,0.55-1.23,1.23-1.23h29.07
				c0.68,0,1.23,0.55,1.23,1.23v1.52C36.6,37.44,36.05,37.99,35.37,37.99z"/>
		</g>
	</g>
	<g>
		<g>
			<g>
				<path class="st1" d="M10.5,0C4.7,0,0,4.7,0,10.5s4.7,10.5,10.5,10.5s10.5-4.7,10.5-10.5S16.29,0,10.5,0z M10.5,17.56
					c-3.9,0-7.06-3.16-7.06-7.06S6.6,3.44,10.5,3.44s7.06,3.16,7.06,7.06S14.4,17.56,10.5,17.56z"/>
			</g>
		</g>
		<g>
			<g>
				<path class="st1" d="M10.5,4.41c-3.36,0-6.09,2.73-6.09,6.09c0,3.36,2.73,6.09,6.09,6.09c3.36,0,6.09-2.73,6.09-6.09
					C16.58,7.14,13.86,4.41,10.5,4.41z M10.5,11.45c-0.53,0-0.95-0.43-0.95-0.95c0-0.53,0.43-0.95,0.95-0.95
					c0.53,0,0.95,0.43,0.95,0.95C11.45,11.02,11.02,11.45,10.5,11.45z"/>
			</g>
		</g>
	</g>
	<g>
		<g>
			<path class="st2" d="M15.88,47.07h-4.03V21.32c-0.44,0.06-0.89,0.08-1.35,0.08s-0.91-0.03-1.35-0.08v25.75H5.11
				c-0.71,0-1.28,0.57-1.28,1.28l0,0c0,0.71,0.57,1.28,1.28,1.28h10.77c0.71,0,1.28-0.57,1.28-1.28l0,0
				C17.16,47.65,16.59,47.07,15.88,47.07z"/>
		</g>
	</g>
	<path class="st3" d="M10.5,21.41c-0.46,0-0.91-0.03-1.35-0.08v25.75H5.11c-0.71,0-1.28,0.57-1.28,1.28c0,0.71,0.57,1.28,1.28,1.28
		h5.38V21.41z"/>
	<g>
		<g>
			<path class="st2" d="M57.23,49.64H46.46c-0.71,0-1.28-0.57-1.28-1.28l0,0c0-0.71,0.57-1.28,1.28-1.28h10.77
				c0.71,0,1.28,0.57,1.28,1.28l0,0C58.51,49.06,57.94,49.64,57.23,49.64z"/>
		</g>
	</g>
	<g>
		<g>
			<path class="st2" d="M50.67,47.77l-7.54-6.33c-0.37-0.31-0.83-0.48-1.32-0.48l-19.54,0.02c-0.71,0-1.28-0.57-1.29-1.28l0,0
				c0-0.71,0.57-1.28,1.28-1.29l20.57-0.03c0.49,0,0.96,0.17,1.33,0.49l9.51,8.16c0.5,0.5-0.05,0.86-0.55,1.36l-0.66-0.64
				C51.98,48.27,51.17,48.27,50.67,47.77z"/>
		</g>
	</g>
	<g>
		<g>
			<path class="st0" d="M52.21,37.99H38.69c-0.68,0-1.23-0.55-1.23-1.23v-1.52c0-0.68,0.55-1.23,1.23-1.23h13.51
				c0.68,0,1.23,0.55,1.23,1.23v1.52C53.43,37.44,52.88,37.99,52.21,37.99z"/>
		</g>
	</g>
</g>
<path class="st4" d="M10.5,17.56c-3.9,0-7.06-3.16-7.06-7.06S6.6,3.44,10.5,3.44V0C4.7,0,0,4.7,0,10.5c0,5.8,4.7,10.5,10.5,10.5
	V17.56z"/>
</svg>
