<?xml version="1.0" encoding="utf-8"?>
<!-- Generator: Adobe Illustrator 23.0.1, SVG Export Plug-In . SVG Version: 6.00 Build 0)  -->
<svg version="1.1" id="Layer_1" xmlns="http://www.w3.org/2000/svg" xmlns:xlink="http://www.w3.org/1999/xlink" x="0px" y="0px"
	 viewBox="0 0 24 24" style="enable-background:new 0 0 24 24; fill: #DAE1E8;" xml:space="preserve">
<path d="M12,0C5.49,0,0,5.49,0,12s5.49,12,12,12c6.51,0,12-5.49,12-12C24,5.49,18.51,0,12,0z M12,6c2.07,0,3.6,1.53,3.6,3.6
	c0,2.07-1.53,3.6-3.6,3.6c-2.07,0-3.6-1.53-3.6-3.6C8.4,7.53,9.93,6,12,6z M5.87,17.73c1.08-1.58,2.87-2.64,4.93-2.64l2.4,0
	c2.06,0,3.85,1.06,4.93,2.64c-1.53,1.64-3.71,2.67-6.13,2.67C9.58,20.4,7.41,19.37,5.87,17.73z"/>
</svg>
