<?xml version="1.0" encoding="utf-8"?>
<!-- Generator: Adobe Illustrator 23.0.1, SVG Export Plug-In . SVG Version: 6.00 Build 0)  -->
<svg version="1.1" id="Layer_1" xmlns="http://www.w3.org/2000/svg" xmlns:xlink="http://www.w3.org/1999/xlink" x="0px" y="0px"
	 viewBox="0 0 24 24" style="enable-background:new 0 0 24 24;" xml:space="preserve">
<path d="M0.39,15.93l2.4,4.16c0.33,0.57,1.07,0.77,1.64,0.44l1.68-0.97c0.7,0.55,1.47,1,2.28,1.34v1.92c0,0.66,0.54,1.2,1.2,1.2
	h4.81c0.66,0,1.2-0.54,1.2-1.2V20.9c0.81-0.34,1.58-0.79,2.28-1.34l1.68,0.97c0.57,0.33,1.31,0.13,1.64-0.44l2.4-4.16
	c0.33-0.57,0.13-1.31-0.44-1.64l-1.65-0.95c0.06-0.44,0.09-0.89,0.09-1.34c0-0.45-0.03-0.89-0.1-1.34l1.65-0.95
	c0.57-0.33,0.77-1.07,0.44-1.64l-2.4-4.16c-0.33-0.57-1.07-0.77-1.64-0.44l-1.68,0.97c-0.7-0.55-1.47-1-2.28-1.34V1.18
	c0-0.66-0.54-1.2-1.2-1.2H9.59c-0.66,0-1.2,0.54-1.2,1.2V3.1C7.58,3.44,6.81,3.89,6.11,4.44L4.44,3.47
	C3.86,3.13,3.13,3.33,2.79,3.91l-2.4,4.16C0.06,8.64,0.26,9.38,0.83,9.71l1.65,0.95c-0.06,0.44-0.1,0.89-0.1,1.34
	c0,0.45,0.03,0.89,0.1,1.34l-1.65,0.95C0.26,14.62,0.06,15.36,0.39,15.93z M12,7.19c2.65,0,4.81,2.16,4.81,4.81
	s-2.16,4.81-4.81,4.81S7.19,14.65,7.19,12S9.35,7.19,12,7.19z"/>
</svg>
