<svg width="48" height="48" viewBox="0 0 48 48" fill="none" xmlns="http://www.w3.org/2000/svg">
<circle cx="24" cy="24" r="24" fill="url(#paint0_linear)"/>
<circle cx="24" cy="24" r="22.75" stroke="#0FD850" stroke-width="0.5"/>
<path d="M15.3222 26.8385H17.212V21.169L13.4324 15.972H11.5426L15.3222 21.6415V26.8385Z" fill="#787D82"/>
<path d="M16.6508 20.3973L15.3223 21.6414V25.8935H17.2121V21.169L16.6508 20.3973Z" fill="#6D7276"/>
<path d="M17.2121 26.8385H15.3223V22.5864L20.0468 18.1623V16.917H21.9366V18.8068L17.2121 23.0589V26.8385Z" fill="#878787"/>
<path d="M17.3378 15.9721H11.6683V14.0823L17.3378 14.5547V15.9721Z" fill="#51E381"/>
<path d="M21.9366 16.917H20.0468V15.0272C20.0468 14.5051 20.4698 14.0823 20.9917 14.0823C21.5135 14.0823 21.9366 14.5051 21.9366 15.0272V16.917Z" fill="#DC4D41"/>
<path d="M13.4324 15.972H11.5426L10.0459 11.4837C9.955 11.2101 10.0007 10.9096 10.1691 10.6756C10.3375 10.4417 10.6081 10.3028 10.8964 10.3026C11.2824 10.3031 11.6247 10.5504 11.7468 10.9167L13.4324 15.972Z" fill="#0FD850"/>
<path d="M15.3223 25.8936H17.2121V26.8385H15.3223V25.8936Z" fill="#707070"/>
<path d="M28.5509 19.7517H30.4407V23.5313H28.5509V19.7517Z" fill="#787D82"/>
<path d="M28.5509 19.7517H30.4407V21.1691H28.5509V19.7517Z" fill="#6D7276"/>
<path d="M29.4959 33.9253V34.3977H14.8499V30.1457L24.2696 24.1081C25.8316 23.114 27.6446 22.5862 29.4959 22.5864C32.627 22.5864 35.1653 25.1247 35.1653 28.2558C35.1653 31.387 32.627 33.9253 29.4959 33.9253Z" fill="#0FD850"/>
<path d="M33.2754 28.2558C33.2754 30.3431 31.5833 32.0354 29.4958 32.0354C27.4085 32.0354 25.7162 30.3431 25.7162 28.2558C25.7162 26.1683 27.4085 24.4762 29.4958 24.4762C31.5833 24.4762 33.2754 26.1683 33.2754 28.2558Z" fill="#A8A8A8"/>
<path d="M30.9131 28.2557C30.9131 29.0385 30.2785 29.6731 29.4957 29.6731C28.713 29.6731 28.0784 29.0385 28.0784 28.2557C28.0784 27.4728 28.713 26.8384 29.4957 26.8384C30.2785 26.8384 30.9131 27.4728 30.9131 28.2557Z" fill="#D9D9D9"/>
<path d="M14.8499 26.8384H17.6846V34.8701H14.8499V26.8384Z" fill="#057C2C"/>
<path d="M14.8499 32.5078H17.6846V33.9252H14.8499V32.5078Z" fill="#51E381"/>
<path d="M31.0137 20.2241H26.7282C26.1693 20.2241 25.7162 19.771 25.7162 19.212C25.7164 18.7085 26.0864 18.2814 26.585 18.2099L30.8276 17.6037C31.2055 17.5497 31.5882 17.6625 31.8765 17.9126C32.1649 18.1626 32.3305 18.5255 32.3305 18.9073C32.3305 19.6344 31.7411 20.2241 31.0137 20.2241V20.2241Z" fill="#DC4D41"/>
<path d="M36.1101 35.815H11.5426V34.8701C11.5426 34.348 11.9657 33.9252 12.4875 33.9252H35.1652C35.687 33.9252 36.1101 34.348 36.1101 34.8701V35.815Z" fill="#A8A8A8"/>
<path d="M23.354 32.0354H20.5193V30.1456H23.354C23.8758 30.1456 24.2989 30.5685 24.2989 31.0905C24.2989 31.6123 23.8758 32.0354 23.354 32.0354Z" fill="#51E381"/>
<path d="M20.5192 32.0354L15.3223 29.6731V27.7833L20.5192 30.1456V32.0354Z" fill="#A8A8A8"/>
<path d="M17.6845 28.2558C17.6845 29.2994 16.8384 30.1456 15.7947 30.1456C14.7511 30.1456 13.9049 29.2994 13.9049 28.2558C13.9049 27.2119 14.7511 26.366 15.7947 26.366C16.8384 26.366 17.6845 27.2119 17.6845 28.2558Z" fill="#D9D9D9"/>
<path d="M17.6846 33.9252H29.4959C30.8743 33.9256 32.2051 33.4213 33.2372 32.5078H17.6846V33.9252Z" fill="#09B03F"/>
<path d="M11.5426 34.8701H36.1101V35.815H11.5426V34.8701Z" fill="#878787"/>
<path d="M13.4324 36.2875C13.4324 37.0702 12.7977 37.7048 12.015 37.7048C11.2323 37.7048 10.5977 37.0702 10.5977 36.2875C10.5977 35.5045 11.2323 34.8701 12.015 34.8701C12.7977 34.8701 13.4324 35.5045 13.4324 36.2875Z" fill="#0FD850"/>
<path d="M37.9999 36.2875C37.9999 37.0702 37.3652 37.7048 36.5825 37.7048C35.7998 37.7048 35.1652 37.0702 35.1652 36.2875C35.1652 35.5045 35.7998 34.8701 36.5825 34.8701C37.3652 34.8701 37.9999 35.5045 37.9999 36.2875Z" fill="#0FD850"/>
<defs>
<linearGradient id="paint0_linear" x1="24" y1="0" x2="24" y2="48" gradientUnits="userSpaceOnUse">
<stop stop-color="#E5EBF1"/>
<stop offset="1" stop-color="#B7BEC6"/>
</linearGradient>
</defs>
</svg>
