<svg width="48" height="48" viewBox="0 0 48 48" fill="none" xmlns="http://www.w3.org/2000/svg">
<path d="M47.5 24C47.5 36.9787 36.9787 47.5 24 47.5C11.0213 47.5 0.5 36.9787 0.5 24C0.5 11.0213 11.0213 0.5 24 0.5C36.9787 0.5 47.5 11.0213 47.5 24Z" fill="#E5EBF1" stroke="#1E81CE"/>
<g clip-path="url(#clip0)">
<path d="M15.7223 14.7767L13.9903 13.0443L10.7894 16.2449L12.5218 17.9772C13.4111 16.7464 14.4915 15.6659 15.7223 14.7767Z" fill="#9BC9FF"/>
<path d="M35.4891 17.9772L37.2215 16.2449L34.0209 13.0443L32.2886 14.7767C33.5195 15.6659 34.5999 16.7464 35.4891 17.9772V17.9772Z" fill="#9BC9FF"/>
<path d="M24.0055 40.4224C29.3223 40.4235 34.1916 37.4461 36.6135 32.7127C39.0352 27.9794 38.6009 22.2884 35.4891 17.9772C34.5999 16.7464 33.5195 15.6659 32.2886 14.7767C27.3438 11.2055 20.6672 11.2055 15.7223 14.7767C14.4915 15.6659 13.4111 16.7464 12.5218 17.9772C9.41001 22.2884 8.97603 27.9794 11.3977 32.7127C13.8193 37.4461 18.6886 40.4235 24.0055 40.4224V40.4224ZM13.7109 20.3167L13.7029 20.3123L13.7109 20.3167C14.7562 18.5114 16.2565 17.0111 18.0621 15.9658L18.0574 15.9578L18.0621 15.9658C21.7368 13.8304 26.2744 13.8304 29.9491 15.9658L29.9535 15.9578L29.9491 15.9658C31.7547 17.0111 33.2548 18.5114 34.3 20.3167L34.3081 20.3123L34.3 20.3167C36.4354 23.9914 36.4354 28.5293 34.3 32.204L34.3081 32.2084L34.3 32.204C33.2548 34.0094 31.7547 35.5096 29.9491 36.5549L29.9535 36.5629L29.9491 36.5549C26.2744 38.6903 21.7368 38.6903 18.0621 36.5549L18.0574 36.5629L18.0621 36.5549C16.2565 35.5096 14.7562 34.0094 13.7109 32.204L13.7029 32.2084L13.7109 32.204C12.662 30.3986 12.1094 28.3481 12.1094 26.2604C12.1094 26.0689 12.1293 25.8831 12.1379 25.6939C12.2236 23.8014 12.763 21.9573 13.7109 20.3167Z" fill="#9BC9FF"/>
<path d="M25.1384 26.2604C25.1384 26.8861 24.6311 27.3934 24.0054 27.3934C23.3797 27.3934 22.8724 26.8861 22.8724 26.2604C22.8724 25.6347 23.3797 25.1274 24.0054 25.1274C24.6311 25.1274 25.1384 25.6347 25.1384 26.2604Z" fill="#9BC9FF"/>
<path d="M36.2234 18.0464L37.6221 16.6476C37.8431 16.4266 37.8431 16.0678 37.6221 15.8468L34.4216 12.646C34.1967 12.4336 33.8451 12.4336 33.6205 12.646L32.2195 14.0426C29.9536 12.5127 27.3043 11.6477 24.5721 11.546V8.13296H27.4045C27.7173 8.13296 27.9709 7.87932 27.9709 7.56648C27.9709 7.25364 27.7173 7 27.4045 7H20.6067C20.2939 7 20.0402 7.25364 20.0402 7.56648C20.0402 7.87932 20.2939 8.13296 20.6067 8.13296H23.4391V11.546C20.7068 11.6477 18.0578 12.5127 15.7916 14.0426L14.3931 12.6438C14.1718 12.4228 13.8133 12.4228 13.5921 12.6438L10.3915 15.8443C10.1702 16.0656 10.1702 16.4244 10.3915 16.6454L11.7878 18.0464C7.65287 24.1883 8.72055 32.4454 14.2816 37.3338C19.8427 42.2222 28.1684 42.2222 33.7295 37.3338C39.2906 32.4454 40.3583 24.1883 36.2234 18.0464V18.0464ZM34.0211 13.8453L36.4206 16.2449L35.5438 17.122C34.8379 16.2332 34.033 15.4281 33.144 14.7222L34.0211 13.8453ZM11.5884 16.2449L13.9879 13.8453L14.865 14.7222C13.9763 15.4281 13.1711 16.2332 12.4652 17.122L11.5884 16.2449ZM24.0056 39.8559C16.4969 39.8559 10.41 33.769 10.41 26.2603C10.41 18.7517 16.4969 12.6648 24.0056 12.6648C31.5142 12.6648 37.6011 18.7517 37.6011 26.2603C37.5925 33.7654 31.5106 39.847 24.0056 39.8559Z" fill="#1E81CE"/>
<path d="M34.8085 32.4623C37.0222 28.6231 37.0222 23.8951 34.8085 20.0562C34.8038 20.0465 34.8038 20.0365 34.7988 20.0268C34.7936 20.0172 34.7839 20.0127 34.7784 20.0042C33.6872 18.1332 32.1307 16.5768 30.2601 15.4853C30.2509 15.4798 30.246 15.4706 30.2368 15.4648C30.2277 15.4593 30.2169 15.4599 30.2075 15.4552C26.3686 13.2415 21.6406 13.2415 17.8014 15.4552C17.792 15.4599 17.7817 15.4599 17.772 15.4648C17.7624 15.4701 17.7579 15.4798 17.7488 15.4853C15.8782 16.5765 14.3217 18.1329 13.2305 20.0036C13.225 20.0127 13.2159 20.0177 13.2101 20.0268C13.2045 20.036 13.2051 20.0465 13.2006 20.0562C12.2218 21.7509 11.6586 23.6534 11.5576 25.6078C11.5504 25.636 11.5455 25.6648 11.543 25.6939C11.546 25.7152 11.5502 25.7364 11.556 25.7572C11.5493 25.9245 11.543 26.0916 11.543 26.2603C11.5413 28.4375 12.1139 30.5767 13.2029 32.4623C13.2073 32.4717 13.2073 32.4819 13.2125 32.4916C13.2175 32.5013 13.2316 32.5149 13.2402 32.5273C14.3311 34.3924 15.8848 35.9442 17.751 37.0331C17.7602 37.0387 17.7651 37.0478 17.7743 37.0536C17.7834 37.0591 17.8033 37.0641 17.8174 37.071C21.6489 39.2736 26.3622 39.2736 30.194 37.071C30.2081 37.0641 30.2227 37.0614 30.2368 37.0536C30.2509 37.0456 30.2509 37.0387 30.2601 37.0331C32.1255 35.9439 33.6783 34.3922 34.7687 32.5273C34.7773 32.5149 34.7886 32.5052 34.7966 32.4916C34.8044 32.4781 34.8038 32.4717 34.8085 32.4623V32.4623ZM30.148 35.7663L29.3113 34.3175C29.2106 34.1407 29.0234 34.0315 28.8201 34.0309C28.6168 34.0304 28.429 34.1391 28.3275 34.3153C28.2262 34.4915 28.2273 34.7086 28.3302 34.884L29.1675 36.3336C27.7408 37.0658 26.1738 37.4843 24.572 37.5612V34.7575C24.572 34.4447 24.3184 34.1911 24.0055 34.1911C23.6927 34.1911 23.4391 34.4447 23.4391 34.7575V37.5612C21.8373 37.4843 20.2706 37.0658 18.8439 36.3336L19.6812 34.884C19.7838 34.7086 19.7849 34.4915 19.6836 34.3153C19.5824 34.1391 19.3943 34.0304 19.191 34.0309C18.988 34.0315 18.8005 34.1407 18.7 34.3175L17.8633 35.7663C16.5179 34.8942 15.3717 33.7479 14.4996 32.4026L15.9484 31.5661C16.1252 31.4654 16.2347 31.2782 16.235 31.0749C16.2355 30.8716 16.1271 30.6835 15.9506 30.5822C15.7744 30.481 15.5573 30.4821 15.3819 30.5847L13.9325 31.422C13.1074 29.8266 12.6768 28.0566 12.6759 26.2603H15.5083C15.8212 26.2603 16.0748 26.0067 16.0748 25.6939C16.0748 25.381 15.8212 25.1274 15.5083 25.1274H12.7326C12.8751 23.7209 13.282 22.3542 13.932 21.0987L15.3814 21.9359C15.5567 22.0386 15.7739 22.0397 15.9501 21.9384C16.1263 21.8372 16.235 21.6491 16.2344 21.4458C16.2341 21.2425 16.1246 21.0552 15.9479 20.9546L14.499 20.1181C15.3711 18.7727 16.5174 17.6265 17.8628 16.7544L18.6995 18.2032C18.7999 18.3799 18.9872 18.4892 19.1905 18.4898C19.3938 18.4903 19.5819 18.3816 19.6831 18.2054C19.7843 18.0292 19.7832 17.8121 19.6806 17.6367L18.8433 16.187C20.27 15.4549 21.8373 15.0364 23.4391 14.9595V17.7631C23.4391 18.076 23.6927 18.3296 24.0055 18.3296C24.3184 18.3296 24.572 18.076 24.572 17.7631V14.9595C26.1738 15.0364 27.7408 15.4549 29.1675 16.187L28.3302 17.6367C28.2273 17.8121 28.2262 18.0292 28.3275 18.2054C28.429 18.3816 28.6168 18.4903 28.8201 18.4898C29.0234 18.4892 29.2106 18.3799 29.3113 18.2032L30.148 16.7544C31.4932 17.6265 32.6394 18.7727 33.5118 20.1181L32.0627 20.9546C31.8859 21.0552 31.7767 21.2425 31.7761 21.4458C31.7756 21.6491 31.8843 21.8372 32.0605 21.9384C32.2367 22.0397 32.4538 22.0386 32.6292 21.9359L34.0788 21.0987C34.811 22.5251 35.2295 24.0921 35.3064 25.6939H31.9363C31.6234 25.6939 31.3698 25.9475 31.3698 26.2603C31.3698 26.5732 31.6234 26.8268 31.9363 26.8268H35.3064C35.2295 28.4286 34.811 29.9956 34.0788 31.422L32.6292 30.5847C32.4538 30.4821 32.2367 30.481 32.0605 30.5822C31.8843 30.6835 31.7756 30.8716 31.7761 31.0749C31.7767 31.2782 31.8859 31.4654 32.0627 31.5661L33.5118 32.4026C32.6394 33.7479 31.4932 34.8942 30.148 35.7663Z" fill="#1E81CE"/>
<path d="M24.572 24.6653V20.0291C24.572 19.7163 24.3183 19.4626 24.0055 19.4626C23.6927 19.4626 23.439 19.7163 23.439 20.0291V24.6653C22.6587 24.941 22.1907 25.739 22.3307 26.5547C22.4706 27.3707 23.1779 27.9668 24.0055 27.9668C24.8334 27.9668 25.5406 27.3707 25.6806 26.5547C25.8206 25.739 25.3523 24.941 24.572 24.6653ZM24.0055 26.8269C23.6927 26.8269 23.439 26.5733 23.439 26.2604C23.439 25.9476 23.6927 25.6939 24.0055 25.6939C24.3183 25.6939 24.572 25.9476 24.572 26.2604C24.572 26.5733 24.3183 26.8269 24.0055 26.8269Z" fill="#1E81CE"/>
</g>
<defs>
<clipPath id="clip0">
<rect width="34" height="34" fill="white" transform="translate(7 7)"/>
</clipPath>
</defs>
</svg>
