<svg width="48" height="48" viewBox="0 0 48 48" fill="none" xmlns="http://www.w3.org/2000/svg">
<circle cx="24" cy="24" r="24" fill="url(#paint0_linear)"/>
<circle cx="24" cy="24" r="22.75" stroke="#04BEFE" stroke-width="0.5"/>
<path d="M40.7587 23.8621C40.7587 33.1175 33.2554 40.6208 24.0001 40.6208C14.7447 40.6208 7.24146 33.1175 7.24146 23.8621C7.24146 14.6068 14.7447 7.10352 24.0001 7.10352C33.2554 7.10352 40.7587 14.6068 40.7587 23.8621Z" fill="#04BEFE"/>
<path d="M37.0344 23.862C37.0344 31.0607 31.1986 36.8965 23.9999 36.8965C16.8012 36.8965 10.9655 31.0607 10.9655 23.862C10.9655 16.6633 16.8012 10.8275 23.9999 10.8275C31.1986 10.8275 37.0344 16.6633 37.0344 23.862Z" fill="white"/>
<path d="M20.2758 28.5172C19.8994 28.5172 19.5598 28.2903 19.4157 27.9425C19.2716 27.5948 19.3516 27.1942 19.6175 26.9278L23.0689 23.4765V16.4137C23.0689 15.8995 23.4858 15.4827 23.9999 15.4827C24.5141 15.4827 24.931 15.8995 24.931 16.4137V23.862C24.931 24.1088 24.8328 24.3457 24.6582 24.5202L20.9341 28.2444C20.7595 28.419 20.5226 28.5172 20.2758 28.5172Z" fill="#428DC5"/>
<path d="M23.069 34.1034H24.931V36.8965H23.069V34.1034Z" fill="#428DC5"/>
<path d="M34.2413 22.9309H37.0344V24.793H34.2413V22.9309Z" fill="#428DC5"/>
<path d="M10.9655 22.9309H13.7586V24.793H10.9655V22.9309Z" fill="#428DC5"/>
<path d="M23.069 10.8275H24.931V13.6206H23.069V10.8275Z" fill="#428DC5"/>
<defs>
<linearGradient id="paint0_linear" x1="24" y1="0" x2="24" y2="48" gradientUnits="userSpaceOnUse">
<stop stop-color="#E5EBF1"/>
<stop offset="1" stop-color="#B7BEC6"/>
</linearGradient>
</defs>
</svg>
