<?xml version="1.0" encoding="utf-8"?>
<!-- Generator: Adobe Illustrator 16.0.0, SVG Export Plug-In . SVG Version: 6.00 Build 0)  -->
<!DOCTYPE svg PUBLIC "-//W3C//DTD SVG 1.1//EN" "http://www.w3.org/Graphics/SVG/1.1/DTD/svg11.dtd">
<svg version="1.1" id="Layer_1" xmlns="http://www.w3.org/2000/svg" xmlns:xlink="http://www.w3.org/1999/xlink" x="0px" y="0px"
	 width="1400px" height="1568px" viewBox="0 0 1400 1568" enable-background="new 0 0 1400 1568" xml:space="preserve">
<g>
	<rect fill="#FFFFFF" width="1400" height="1568"/>
</g>
<path fill="#2ADDE2" d="M1197,428.8c0-183-148.3-331.4-331.4-331.4H534.3c-183,0-331.4,148.4-331.4,331.4v528h994V428.8z"/>
<g>
	<defs>
		<path id="SVGID_1_" d="M1197,429.5c0-183-148.3-331.4-331.4-331.4H534.3c-183,0-331.4,148.4-331.4,331.4v528h994V429.5z"/>
	</defs>
	<clipPath id="SVGID_2_">
		<use xlink:href="#SVGID_1_"  overflow="visible"/>
	</clipPath>
	<g clip-path="url(#SVGID_2_)">
		<polygon fill="#27CFD4" points="1286.8,571.6 1286.8,630.2 1237.4,630.2 1237.4,437.3 1151.4,437.3 1151.4,335.2 992.3,335.2 
			992.3,515.2 919.3,515.2 919.3,247.1 887,247.1 887,204.1 826.8,204.1 826.8,247.1 755.9,247.1 755.9,408.3 693.6,408.3 
			693.6,270.7 603.3,270.7 603.3,582.4 564.6,582.4 564.6,476 433.4,476 433.4,219.1 306.6,219.1 306.6,408.3 192.7,408.3 
			192.7,623.2 158.3,623.2 158.3,494.2 68,494.2 68,563 -33,563 -33,667 -33,960.8 83.1,960.8 1433,960.8 1433,803.8 1433,667 
			1433,571.6 		"/>
		<rect x="294.9" y="854.6" fill="#2ADDE2" width="76.6" height="66.4"/>
		<rect x="563.8" y="854.6" fill="#2ADDE2" width="76.6" height="66.4"/>
		<rect x="698.3" y="854.6" fill="#2ADDE2" width="76.6" height="66.4"/>
		<rect x="1073.9" y="485.4" fill="#2ADDE2" width="76.6" height="66.4"/>
		<rect x="787.1" y="311.6" fill="#2ADDE2" width="76.6" height="66.4"/>
		<rect x="1073.9" y="597.6" fill="#2ADDE2" width="76.6" height="66.4"/>
		<rect x="930.5" y="597.6" fill="#2ADDE2" width="76.6" height="66.4"/>
		<rect x="787.1" y="597.6" fill="#2ADDE2" width="76.6" height="66.4"/>
		<rect x="1197" y="709.8" fill="#2ADDE2" width="76.6" height="66.4"/>
		<rect x="1073.9" y="822" fill="#2ADDE2" width="76.6" height="66.4"/>
		<rect x="294.9" y="746.8" fill="#2ADDE2" width="76.6" height="66.4"/>
		<rect x="164.7" y="746.8" fill="#2ADDE2" width="76.6" height="66.4"/>
		<rect x="429.7" y="746.8" fill="#2ADDE2" width="76.6" height="66.4"/>
		<rect x="294.9" y="639" fill="#2ADDE2" width="76.6" height="66.4"/>
		<rect x="429.7" y="639" fill="#2ADDE2" width="76.6" height="66.4"/>
		<rect x="294.9" y="531.2" fill="#2ADDE2" width="76.6" height="66.4"/>
	</g>
</g>
<g>
	<g>
		<path fill="#6D6E71" d="M460.5,957.6v-570c0-11.3-9.2-20.5-20.5-20.5s-20.5,9.2-20.5,20.5v570H460.5z"/>
		<path fill="#6D6E71" d="M980.5,957.6v-570c0-11.3-9.2-20.5-20.5-20.5s-20.5,9.2-20.5,20.5v570H980.5z"/>
		<polygon fill="#FFFFFF" points="949.6,610.1 1088.2,471.5 1088.2,436.2 945.5,436.2 771.6,610.1 		"/>
		<polygon fill="#FFD519" points="771.6,610.1 945.5,436.2 767.5,436.2 593.7,610.1 		"/>
		<polygon fill="#FFFFFF" points="311.8,436.2 311.8,536 411.6,436.2 		"/>
		<polygon fill="#FFD519" points="1088.2,610.1 1088.2,471.5 949.6,610.1 		"/>
		<polygon fill="#FFD519" points="411.6,436.2 311.8,536 311.8,610.1 415.7,610.1 589.6,436.2 		"/>
		<polygon fill="#FFFFFF" points="767.5,436.2 589.6,436.2 415.7,610.1 593.7,610.1 		"/>
		<polygon fill="#FFFFFF" points="311.8,676.9 311.8,744.6 379.4,676.9 		"/>
		<polygon fill="#FFFFFF" points="1088.2,676.9 913.4,676.9 809.5,780.8 987.5,780.8 1088.2,680.1 		"/>
		<polygon fill="#FFD519" points="1088.2,680.1 987.5,780.8 1088.2,780.8 		"/>
		<polygon fill="#FFD519" points="379.4,676.9 311.8,744.6 311.8,780.8 453.6,780.8 557.4,676.9 		"/>
		<polygon fill="#FFFFFF" points="557.4,676.9 453.6,780.8 631.6,780.8 735.4,676.9 		"/>
		<polygon fill="#FFD519" points="735.4,676.9 631.6,780.8 809.5,780.8 913.4,676.9 		"/>
		<rect x="311.8" y="436.2" fill="#FFFFFF" width="776.5" height="11.5"/>
		<rect x="311.8" y="676.9" fill="#FFFFFF" width="776.5" height="11.5"/>
		<rect x="311.8" y="780.8" fill="#FFD519" width="776.5" height="10.9"/>
		<polygon fill="#FFD519" points="1088.2,436.2 1088.2,621 1077.4,621 1077.4,444.7 		"/>
		<polygon fill="#FFD519" points="1088.2,676.9 1088.2,791.6 1077.4,791.6 1077.4,688.4 		"/>
		<rect x="311.8" y="610.1" fill="#FFD519" width="776.5" height="10.9"/>
		<polygon fill="#FFFFFF" points="311.8,676.9 311.8,791.6 323.2,780.8 323.2,676.9 		"/>
		<polygon fill="#FFFFFF" points="311.8,436.2 311.8,621 323.2,610.1 323.2,436.2 		"/>
	</g>
	<rect x="460.5" y="833.2" fill="#5D5E61" width="479" height="22.1"/>
	<rect x="411.9" y="948.2" fill="#5D5E61" width="56.1" height="9.4"/>
	<rect x="932" y="948.2" fill="#5D5E61" width="56.1" height="9.4"/>
</g>
<g>
	<polygon fill="#6D6E71" points="1197,956.8 203,956.8 203,1035 1197,1029 	"/>
	<polygon fill="#5D5E61" points="203,1035 203,1048.1 1197,1048.1 1197,1029 	"/>
</g>
<rect x="666.2" y="956.8" fill="#FFFFFF" width="67.6" height="56.8"/>
<g>
	<g>
		<rect x="933.8" y="1018.9" fill="#FF8E7A" width="203.6" height="11"/>
		<rect x="933.8" y="1029.9" fill="#FF7660" width="203.6" height="18.2"/>
	</g>
	<polygon fill="#FF7660" points="1071.2,853.7 1059.7,804.6 1025.7,804.6 1014.6,853.7 	"/>
	<polygon fill="#FF8E7A" points="1025.7,804.6 1011.5,804.6 1000,853.7 1014.6,853.7 	"/>
	<polygon fill="#FF8E7A" points="970.8,978.1 961.3,1018.9 977.4,1018.9 986.6,978.1 	"/>
	<polygon fill="#FF7660" points="1100.4,978.1 986.6,978.1 977.4,1018.9 1109.9,1018.9 	"/>
	<polygon fill="#FFFFFF" points="986.6,978.1 1100.4,978.1 1091.1,938.4 995.6,938.4 	"/>
	<polygon fill="#FFFFFF" points="995.6,938.4 980.1,938.4 970.8,978.1 986.6,978.1 	"/>
	<polygon fill="#FFFFFF" points="1014.6,853.7 1000,853.7 990.7,893.4 1005.7,893.4 	"/>
	<polygon fill="#FFFFFF" points="1005.7,893.4 1080.5,893.4 1071.2,853.7 1014.6,853.7 	"/>
	<polygon fill="#FF8E7A" points="1005.7,893.4 990.7,893.4 980.1,938.4 995.6,938.4 	"/>
	<polygon fill="#FF7660" points="995.6,938.4 1091.1,938.4 1080.5,893.4 1005.7,893.4 	"/>
</g>
<g>
	<g>
		
			<rect x="398.1" y="950.3" transform="matrix(0.32 0.9474 -0.9474 0.32 1245.515 176.3561)" fill="#FF8E7A" width="203.6" height="11"/>
		
			<rect x="504.6" y="849.4" transform="matrix(-0.9474 0.32 -0.32 -0.9474 1304.886 1687.8596)" fill="#FF7660" width="18.2" height="203.6"/>
	</g>
	<polygon fill="#FF7660" points="349.6,1044.2 299.4,1049 288.5,1016.8 331.5,990.6 	"/>
	<polygon fill="#FF8E7A" points="288.5,1016.8 283.9,1003.3 326.8,976.7 331.5,990.6 	"/>
	<polygon fill="#FF8E7A" points="435.3,909.3 470.9,887.2 476.1,902.5 440.4,924.2 	"/>
	<polygon fill="#FF7660" points="476.8,1032 440.4,924.2 476.1,902.5 518.5,1028 	"/>
	<polygon fill="#FFFFFF" points="440.4,924.2 476.8,1032 436.2,1035.9 405.6,945.4 	"/>
	<polygon fill="#FFFFFF" points="405.6,945.4 400.7,930.8 435.3,909.3 440.4,924.2 	"/>
	<polygon fill="#FFFFFF" points="331.5,990.6 326.8,976.7 361.4,955.2 366.2,969.4 	"/>
	<polygon fill="#FFFFFF" points="366.2,969.4 390.2,1040.3 349.6,1044.2 331.5,990.6 	"/>
	<polygon fill="#FF8E7A" points="366.2,969.4 361.4,955.2 400.7,930.8 405.6,945.4 	"/>
	<polygon fill="#FF7660" points="405.6,945.4 436.2,1035.9 390.2,1040.3 366.2,969.4 	"/>
</g>
<path fill="#FFD519" d="M1291.5,1429.7c0,22.6-18.3,40.9-40.9,40.9H149.4c-22.6,0-40.9-18.3-40.9-40.9V1089
	c0-22.6,18.3-40.9,40.9-40.9h1101.2c22.6,0,40.9,18.3,40.9,40.9V1429.7z"/>
<g>
	<path fill="#FFFFFF" d="M1250.6,1446.7H149.4c-9.4,0-17-7.6-17-17V1089c0-9.4,7.6-17,17-17h1101.2c9.4,0,17,7.6,17,17v340.7
		C1267.6,1439.1,1260,1446.7,1250.6,1446.7z M152.8,1426.3h1094.4v-333.8H152.8V1426.3z"/>
</g>
<text transform="matrix(1 0 0 1 485.9214 1222.2627)" fill="#FFFFFF" font-family="'BlackHanSans-Regular'" font-size="117.383">UNDER</text>
<text transform="matrix(1 0 0 1 230.7432 1369.1494)" fill="#FFFFFF" font-family="'BlackHanSans-Regular'" font-size="117.383">CONSTRUCTION</text>
<text transform="matrix(1 0 0 1 492.4219 1228.7627)" fill="#565E60" font-family="'BlackHanSans-Regular'" font-size="117.383">UNDER</text>
<text transform="matrix(1 0 0 1 237.2437 1375.6494)" fill="#565E60" font-family="'BlackHanSans-Regular'" font-size="117.383">CONSTRUCTION</text>
</svg>
