<svg height="512pt" viewBox="-66 0 512 512.001" width="512pt" xmlns="http://www.w3.org/2000/svg"><path d="m110.660156 60h158.679688l-5.660156 97.726562c-22.488282-10.105468-47.425782-15.726562-73.679688-15.726562s-51.191406 5.621094-73.679688 15.726562zm79.339844 172c49.707031 0 90 40.292969 90 90s-40.292969 90-90 90-90-40.292969-90-90 40.292969-90 90-90zm121.917969-42.410156 8.082031-139.589844c1.269531-21.964844-18-40-40-40h-180c-22 0-41.273438 18.035156-40 40l8.082031 139.589844c-35.707031 32.894531-58.082031 80.035156-58.082031 132.410156 0 99.410156 80.589844 180 180 180s180-80.589844 180-180c0-52.375-22.375-99.515625-58.082031-132.410156zm0 0" fill="#858fa6" fill-rule="evenodd"/><path d="m280 322c0 49.707031-40.292969 90-90 90s-90-40.292969-90-90 40.292969-90 90-90 90 40.292969 90 90zm0 0" fill="#b5bbc9" fill-rule="evenodd"/><path d="m100.679688 60.578125 5.65625 97.730469c.1875 3.28125 1.984374 6.265625 4.796874 7.96875 2.8125 1.707031 6.285157 1.921875 9.285157.574218 21.925781-9.855468 45.339843-14.851562 69.582031-14.851562s47.652344 4.996094 69.582031 14.851562c1.308594.585938 2.703125.878907 4.097657.878907 1.804687 0 3.601562-.488281 5.1875-1.453125 2.8125-1.707032 4.605468-4.6875 4.796874-7.972656l5.65625-97.726563c.160157-2.75-.820312-5.441406-2.710937-7.441406-1.886719-2.003907-4.519531-3.136719-7.269531-3.136719h-158.679688c-2.75 0-5.382812 1.132812-7.269531 3.136719-1.890625 2-2.871094 4.691406-2.710937 7.441406zm158.0625 9.421875-4.238282 73.230469c-20.609375-7.457031-42.246094-11.230469-64.503906-11.230469-22.253906 0-43.894531 3.773438-64.503906 11.230469l-4.238282-73.230469zm0 0"/><path d="m280.488281 465.933594c-27.0625 17.050781-58.355469 26.066406-90.488281 26.066406-93.738281 0-170-76.261719-170-170 0-47.355469 19.996094-92.9375 54.855469-125.054688 2.203125-2.03125 3.382812-4.941406 3.207031-7.933593l-8.082031-139.59375c-.410157-7.148438 2.234375-14.132813 7.453125-19.660157 5.855468-6.199218 14.078125-9.757812 22.566406-9.757812 5.523438 0 10-4.476562 10-10s-4.476562-10-10-10c-13.96875 0-27.496094 5.84375-37.109375 16.03125-9.039063 9.574219-13.609375 21.84375-12.875 34.546875l7.8125 134.945313c-36.808594 35.679687-57.828125 85.144531-57.828125 136.476562 0 104.765625 85.234375 190 190 190 35.914062 0 70.890625-10.078125 101.148438-29.148438 4.671874-2.941406 6.074218-9.117187 3.128906-13.789062-2.945313-4.675781-9.121094-6.074219-13.789063-3.128906zm0 0"/><path d="m322.171875 185.523438 7.8125-134.945313c.734375-12.703125-3.835937-24.972656-12.875-34.546875-9.617187-10.1875-23.140625-16.03125-37.109375-16.03125h-100c-5.523438 0-10 4.476562-10 10s4.476562 10 10 10h100c8.484375 0 16.710938 3.558594 22.5625 9.757812 5.21875 5.53125 7.867188 12.515626 7.453125 19.664063l-8.082031 139.589844c-.171875 2.992187 1.003906 5.902343 3.210937 7.933593 34.859375 32.117188 54.851563 77.699219 54.851563 125.054688 0 32.132812-9.015625 63.425781-26.070313 90.496094-2.945312 4.671875-1.542969 10.84375 3.128907 13.789062 1.65625 1.042969 3.5 1.542969 5.320312 1.542969 3.320312 0 6.570312-1.652344 8.472656-4.671875 19.070313-30.261719 29.148438-65.242188 29.148438-101.152344.003906-51.335937-21.015625-100.800781-57.824219-136.480468zm0 0"/><path d="m190 222c-55.140625 0-100 44.859375-100 100s44.859375 100 100 100 100-44.859375 100-100-44.859375-100-100-100zm0 180c-44.113281 0-80-35.886719-80-80s35.886719-80 80-80 80 35.886719 80 80-35.886719 80-80 80zm0 0"/><path d="m310.523438 441.90625-.007813.007812c-4.070313 3.730469-4.34375 10.054688-.609375 14.125 1.96875 2.152344 4.664062 3.242188 7.371094 3.242188 2.414062 0 4.839844-.871094 6.757812-2.628906 4.070313-3.734375 4.347656-10.058594.613282-14.128906-3.730469-4.070313-10.054688-4.347657-14.125-.617188zm0 0"/><path d="m140.003906 20c5.523438 0 10-4.476562 10-10s-4.476562-10-10-10h-.007812c-5.523438 0-9.996094 4.476562-9.996094 10s4.480469 10 10.003906 10zm0 0"/></svg>