<?xml version="1.0" encoding="utf-8"?>
<!-- Generator: Adobe Illustrator 23.0.1, SVG Export Plug-In . SVG Version: 6.00 Build 0)  -->
<svg version="1.1" id="Layer_1" xmlns="http://www.w3.org/2000/svg" xmlns:xlink="http://www.w3.org/1999/xlink" x="0px" y="0px"
	 viewBox="0 0 270.84 270.84" style="enable-background:new 0 0 270.84 270.84;" xml:space="preserve">
<style type="text/css">
	.st0{fill:#3F464E;}
	.st1{fill:url(#SVGID_1_);}
	.st2{fill:url(#SVGID_2_);}
	.st3{fill:#FFFFFF;}
</style>
<path class="st0" d="M135.42,0C60.63,0,0,60.63,0,135.42s60.63,135.42,135.42,135.42s135.42-60.63,135.42-135.42S210.21,0,135.42,0z
	 M135.42,150.91c-8.56,0-15.49-6.94-15.49-15.49c0-8.56,6.94-15.49,15.49-15.49s15.49,6.94,15.49,15.49
	C150.91,143.97,143.97,150.91,135.42,150.91z"/>
<g>
	<g>
		<radialGradient id="SVGID_1_" cx="135.612" cy="210.5333" r="98.7561" gradientUnits="userSpaceOnUse">
			<stop  offset="0" style="stop-color:#DBDBDB"/>
			<stop  offset="0.5" style="stop-color:#FFFFFF"/>
			<stop  offset="1" style="stop-color:#C9C9C9"/>
		</radialGradient>
		<path class="st1" d="M261.66,159.92c-4.11,20.85-13.51,39.85-26.8,55.63c-0.26,0.31-0.74,0.34-1.05,0.07l-66.54-61.08
			c-0.32-0.3-0.84-0.24-1.09,0.13l-0.1,0.15c-0.19,0.28-0.15,0.66,0.09,0.9l63.95,64.14c0.27,0.27,0.28,0.72,0.02,1
			c-0.31,0.33-0.62,0.66-0.94,0.99c-0.26,0.27-0.7,0.3-0.99,0.05l-70.08-58.04c-0.27-0.22-0.65-0.22-0.92,0l-0.15,0.12
			c-0.34,0.28-0.35,0.79-0.03,1.08l67.07,60.73c0.31,0.28,0.32,0.77,0.01,1.06c-23.02,21.38-54.16,34.51-88.45,34.51
			c-30.71,0-58.9-10.53-80.99-28.09c-0.33-0.26-0.36-0.75-0.07-1.06l62.25-65.48c0.22-0.24,0.26-0.59,0.09-0.87l-0.11-0.17
			c-0.24-0.39-0.78-0.46-1.11-0.14l-65.52,63.09c-0.27,0.26-0.71,0.27-0.99,0.02c-0.32-0.29-0.64-0.58-0.96-0.87
			c-0.29-0.26-0.31-0.7-0.06-1l58.89-68.65c0.12-0.13,0.18-0.31,0.17-0.48l-0.06-2.09l-63.06,67.25c-0.28,0.3-0.76,0.31-1.05,0.01
			c-16.78-17.06-28.66-38.75-33.42-62.91c-0.07-0.33-0.36-0.57-0.7-0.57H8.47c-0.45,0-0.8,0.41-0.71,0.85
			c11.49,60.67,64.36,106.52,127.85,106.52s116.36-45.85,127.85-106.52c0.08-0.44-0.26-0.85-0.71-0.85h-0.39
			C262.02,159.34,261.73,159.58,261.66,159.92z"/>
		<radialGradient id="SVGID_2_" cx="135.612" cy="60.2855" r="98.277" gradientUnits="userSpaceOnUse">
			<stop  offset="0" style="stop-color:#DBDBDB"/>
			<stop  offset="0.5" style="stop-color:#FFFFFF"/>
			<stop  offset="1" style="stop-color:#C9C9C9"/>
		</radialGradient>
		<path class="st2" d="M37.14,57.09l66.34,59.18c0.13,0.12,0.3,0.18,0.48,0.18h2.11L40.83,52.84c-0.28-0.27-0.29-0.72-0.02-1
			c0.31-0.33,0.62-0.66,0.94-0.99c0.26-0.27,0.69-0.3,0.98-0.06l69.97,56.29c0.14,0.11,0.31,0.17,0.49,0.16l1.08-1.13L46.83,46.89
			c-0.32-0.28-0.33-0.77-0.02-1.06c23.06-21.59,54.36-34.87,88.84-34.87c30.13,0,57.83,10.13,79.73,27.09
			c0.34,0.26,0.37,0.76,0.08,1.06l-61.33,64.11c-0.12,0.13-0.19,0.3-0.2,0.47l-0.06,2.09l66.05-63.19c0.27-0.26,0.7-0.27,0.98-0.02
			c0.34,0.29,0.67,0.59,1.01,0.88c0.29,0.26,0.32,0.71,0.07,1l-58.83,68.14c-0.12,0.13-0.18,0.31-0.17,0.48l1.22,0.86l61.89-65.58
			c0.28-0.3,0.75-0.31,1.04-0.02c16.19,16.05,27.98,36.34,33.45,59.02c0.08,0.32,0.36,0.54,0.69,0.54h0.76
			c0.46,0,0.81-0.42,0.71-0.87C249.86,48.17,197.84,4.12,135.61,4.12S21.36,48.17,8.5,107.04c-0.1,0.45,0.25,0.87,0.71,0.87h0.84
			c0.33,0,0.62-0.23,0.69-0.54c4.51-18.7,13.32-35.78,25.35-50.2C36.36,56.85,36.84,56.81,37.14,57.09z"/>
	</g>
	<path class="st3" d="M135.42,97.94c-20.68,0-37.44,16.64-37.44,37.16c0,20.52,16.76,37.16,37.44,37.16
		c20.68,0,37.44-16.64,37.44-37.16C172.86,114.58,156.1,97.94,135.42,97.94z M135.42,169.84c-19.33,0-35.01-15.55-35.01-34.74
		c0-19.19,15.67-34.74,35.01-34.74c19.33,0,35.01,15.55,35.01,34.74C170.43,154.29,154.75,169.84,135.42,169.84z"/>
</g>
<g>
	<path class="st3" d="M216.65,141.05v4.67h-15.06l0-3.91c4.46-7.29,7.11-11.81,7.95-13.54c0.84-1.73,1.26-3.09,1.26-4.06
		c0-0.75-0.13-1.3-0.38-1.67s-0.64-0.55-1.16-0.55s-0.91,0.2-1.16,0.61c-0.25,0.41-0.38,1.21-0.38,2.42v2.61h-6.13v-1
		c0-1.54,0.08-2.75,0.24-3.63s0.55-1.76,1.17-2.62c0.62-0.86,1.43-1.51,2.42-1.95c0.99-0.44,2.18-0.66,3.57-0.66
		c2.72,0,4.78,0.67,6.17,2.02s2.09,3.06,2.09,5.12c0,1.57-0.39,3.23-1.18,4.98c-0.78,1.75-3.1,5.47-6.94,11.15H216.65z"/>
	<path class="st3" d="M234.25,118.3v4.39h-8.49v4.66c1.06-1.25,2.43-1.88,4.1-1.88c1.89,0,3.31,0.53,4.28,1.58s1.45,3.08,1.45,6.09
		v3.91c0,1.94-0.09,3.37-0.28,4.28c-0.19,0.91-0.58,1.75-1.19,2.52c-0.61,0.77-1.46,1.37-2.55,1.78s-2.42,0.62-3.99,0.62
		c-1.76,0-3.31-0.31-4.66-0.92c-1.34-0.62-2.3-1.53-2.86-2.75s-0.85-3.11-0.85-5.66v-1.49h6.84v1.71c0,1.77,0.06,3.03,0.19,3.78
		s0.55,1.12,1.29,1.12c0.34,0,0.61-0.11,0.82-0.32c0.21-0.21,0.32-0.45,0.34-0.69c0.02-0.25,0.04-1.33,0.06-3.24v-5.44
		c0-1.03-0.11-1.73-0.32-2.1c-0.21-0.37-0.57-0.56-1.07-0.56c-0.32,0-0.58,0.1-0.8,0.29c-0.21,0.19-0.35,0.4-0.42,0.62
		c-0.06,0.22-0.09,0.73-0.09,1.53h-6.78l0.29-13.82H234.25z"/>
</g>
<g>
	<path class="st3" d="M51.09,141.05v4.67H36.03l0-3.91c4.46-7.29,7.11-11.81,7.95-13.54c0.84-1.73,1.26-3.09,1.26-4.06
		c0-0.75-0.13-1.3-0.38-1.67S44.23,122,43.71,122s-0.91,0.2-1.16,0.61c-0.25,0.41-0.38,1.21-0.38,2.42v2.61h-6.13v-1
		c0-1.54,0.08-2.75,0.24-3.63s0.55-1.76,1.17-2.62c0.62-0.86,1.43-1.51,2.42-1.95c0.99-0.44,2.18-0.66,3.57-0.66
		c2.72,0,4.78,0.67,6.17,2.02s2.09,3.06,2.09,5.12c0,1.57-0.39,3.23-1.18,4.98c-0.78,1.75-3.1,5.47-6.94,11.15H51.09z"/>
	<path class="st3" d="M68.69,118.3v4.39H60.2v4.66c1.06-1.25,2.43-1.88,4.1-1.88c1.89,0,3.31,0.53,4.28,1.58s1.45,3.08,1.45,6.09
		v3.91c0,1.94-0.09,3.37-0.28,4.28c-0.19,0.91-0.58,1.75-1.19,2.52c-0.61,0.77-1.46,1.37-2.55,1.78s-2.42,0.62-3.99,0.62
		c-1.76,0-3.31-0.31-4.66-0.92c-1.34-0.62-2.3-1.53-2.86-2.75s-0.85-3.11-0.85-5.66v-1.49h6.84v1.71c0,1.77,0.06,3.03,0.19,3.78
		s0.55,1.12,1.29,1.12c0.34,0,0.61-0.11,0.82-0.32c0.21-0.21,0.32-0.45,0.34-0.69c0.02-0.25,0.04-1.33,0.06-3.24v-5.44
		c0-1.03-0.11-1.73-0.32-2.1c-0.21-0.37-0.57-0.56-1.07-0.56c-0.32,0-0.58,0.1-0.8,0.29c-0.21,0.19-0.35,0.4-0.42,0.62
		c-0.06,0.22-0.09,0.73-0.09,1.53h-6.78L54,118.3H68.69z"/>
</g>
<g>
	<g>
		<path class="st3" d="M88.94,33.86h11.89v5.49h-4.76v5.2h4.46v5.22h-4.46v6.03h5.23v5.49H88.94V33.86z"/>
		<path class="st3" d="M125.36,33.86v27.42h-6.23l-0.01-18.51l-2.48,18.51h-4.42l-2.62-18.09l-0.01,18.09h-6.23V33.86h9.23
			c0.27,1.65,0.56,3.59,0.85,5.83l1.01,6.98l1.64-12.81H125.36z"/>
		<path class="st3" d="M128.22,33.86h7.18c1.94,0,3.44,0.15,4.48,0.46c1.04,0.3,1.83,0.75,2.35,1.32c0.53,0.58,0.88,1.27,1.07,2.09
			c0.19,0.82,0.28,2.09,0.28,3.8v2.39c0,1.75-0.18,3.03-0.54,3.83s-1.02,1.42-1.99,1.85c-0.96,0.43-2.23,0.64-3.79,0.64h-1.91v11.04
			h-7.13V33.86z M135.35,38.55v6.98c0.2,0.01,0.38,0.02,0.53,0.02c0.66,0,1.11-0.16,1.36-0.48c0.25-0.32,0.38-0.99,0.38-2.01v-2.25
			c0-0.94-0.15-1.55-0.44-1.83C136.89,38.7,136.27,38.55,135.35,38.55z"/>
		<path class="st3" d="M160,33.86v5.49h-4.23v21.94h-7.13V39.35h-4.22v-5.49H160z"/>
		<path class="st3" d="M177.68,33.86l-5.2,17.5v9.93h-6.61v-9.93l-5.01-17.5h6.55c1.02,5.35,1.6,8.96,1.73,10.81
			c0.39-2.93,1.06-6.53,1.99-10.81H177.68z"/>
	</g>
</g>
</svg>
