<svg height="512pt" viewBox="0 0 512 512" width="512pt" xmlns="http://www.w3.org/2000/svg"><path d="m318.101562 193.898438c8.398438-18 12.898438-37.796876 12.898438-57.898438 0-74.402344-60.601562-136-135-136s-135 61.597656-135 136c0 20.097656 4.5 39.898438 12.898438 57.898438-45.898438 36.902343-73.898438 92.699218-73.898438 152.101562 0 65.398438 33.699219 127.300781 88.300781 163.597656l3.601563 2.402344h208.195312l3.601563-2.402344c54.601562-36.296875 87.300781-98.199218 87.300781-163.597656 0-59.402344-27-115.199219-72.898438-152.101562zm-68.699218-4.5-9.601563-2.398438c-14.402343-3.898438-29.101562-6-43.800781-6s-29.398438 2.101562-43.800781 6l-9.601563 2.398438c-2.699218-4.199219-21.597656-21.597657-21.597656-53.398438 0-41.398438 33.601562-76 75-76s75 34.601562 75 76c0 31.800781-18.898438 48.898438-21.597656 53.398438zm0 0" fill="#766e6e"/><path d="m391 346c0 65.398438-32.699219 127.300781-87.300781 163.597656l-3.601563 2.402344h-104.097656v-331c14.699219 0 29.398438 2.101562 43.800781 6l9.601563 2.398438c2.699218-4.5 21.597656-21.597657 21.597656-53.398438 0-41.398438-33.601562-76-75-76v-60c74.398438 0 135 61.597656 135 136 0 20.097656-4.5 39.898438-12.898438 57.898438 45.898438 36.902343 72.898438 92.699218 72.898438 152.101562zm0 0" fill="#5b5555"/><path d="m256 361h180v30h-180zm0 0" fill="#766e6e"/><path d="m512 451h-91v-150h91zm0 0" fill="#6aa9ff"/><path d="m181 301v150h90v-150zm0 0" fill="#7ed8f6"/><path d="m196 301h75v150h-75zm0 0" fill="#6aa9ff"/></svg>