<svg width="100" height="84" viewBox="0 0 100 84" fill="none" xmlns="http://www.w3.org/2000/svg">
<g clip-path="url(#clip0)">
<path opacity="0.1" d="M58.1008 11.0347C51.6899 10.8118 45.5842 8.74258 39.7538 6.47818C33.9234 4.21378 28.1485 1.70472 21.8912 0.505162C17.8666 -0.266477 13.2635 -0.375437 10.0214 1.78198C6.90021 3.86214 5.89183 7.44297 5.35 10.7692C4.9419 13.2714 4.70218 15.9052 5.81952 18.2469C6.59611 19.8734 7.97298 21.2403 8.92589 22.7985C12.2413 28.2188 9.89762 34.903 6.30588 40.1955C4.62195 42.6788 2.66561 45.0492 1.36502 47.69C0.0644266 50.3308 -0.536837 53.3609 0.601305 56.0572C1.72855 58.7317 4.41591 60.7366 7.32714 62.1481C13.2397 65.0157 20.2043 65.8359 27.0005 66.3005C42.04 67.3297 57.1587 66.8839 72.2379 66.4382C77.8186 66.2727 83.4232 66.1053 88.9128 65.2426C91.9617 64.7631 95.1087 64.0034 97.3226 62.1669C100.132 59.8361 100.828 55.8898 98.9451 52.9667C95.7872 48.0644 87.0585 46.8471 84.8486 41.5862C83.6342 38.6899 84.8813 35.4646 86.6474 32.7783C90.4353 27.0172 96.7837 21.9625 97.1175 15.3773C97.3474 10.8544 94.2955 6.32464 89.5765 4.18406C84.6307 1.94146 77.7711 2.22278 74.1239 5.93635C70.3648 9.75987 63.7618 11.2308 58.1008 11.0347Z" fill="#FF0F00"/>
<path opacity="0.1" d="M47.8921 81.4341C64.5213 81.4341 78.0019 79.6105 78.0019 77.361C78.0019 75.1114 64.5213 73.2878 47.8921 73.2878C31.2629 73.2878 17.7823 75.1114 17.7823 77.361C17.7823 79.6105 31.2629 81.4341 47.8921 81.4341Z" fill="#FF0F00"/>
<path d="M64.3233 28.7081H63.8993C63.774 28.7081 63.6725 28.8097 63.6725 28.935V35.7143C63.6725 35.8396 63.774 35.9411 63.8993 35.9411H64.3233C64.4486 35.9411 64.5501 35.8396 64.5501 35.7143V28.935C64.5501 28.8097 64.4486 28.7081 64.3233 28.7081Z" fill="#3A3768"/>
<path d="M34.7733 23.0412H34.7346C34.6094 23.0412 34.5078 23.1428 34.5078 23.268V25.1956C34.5078 25.3209 34.6094 25.4225 34.7346 25.4225H34.7733C34.8986 25.4225 35.0001 25.3209 35.0001 25.1956V23.268C35.0001 23.1428 34.8986 23.0412 34.7733 23.0412Z" fill="#3A3768"/>
<path d="M34.8179 27.4016H34.7168C34.5915 27.4016 34.49 27.5031 34.49 27.6284V31.3192C34.49 31.4445 34.5915 31.546 34.7168 31.546H34.8179C34.9431 31.546 35.0447 31.4445 35.0447 31.3192V27.6284C35.0447 27.5031 34.9431 27.4016 34.8179 27.4016Z" fill="#3A3768"/>
<path d="M34.8 32.9962H34.7257C34.6005 32.9962 34.4989 33.0978 34.4989 33.2231V36.9495C34.4989 37.0748 34.6005 37.1763 34.7257 37.1763H34.8C34.9253 37.1763 35.0269 37.0748 35.0269 36.9495V33.2231C35.0269 33.0978 34.9253 32.9962 34.8 32.9962Z" fill="#3A3768"/>
<path d="M60.284 15.1722H38.6484C36.5154 15.1722 34.7863 16.9014 34.7863 19.0344V70.9798C34.7863 73.1128 36.5154 74.8419 38.6484 74.8419H60.284C62.417 74.8419 64.1462 73.1128 64.1462 70.9798V19.0344C64.1462 16.9014 62.417 15.1722 60.284 15.1722Z" fill="#3A3768"/>
<path d="M60.0046 16.7225H56.6367V17.1276C56.6367 17.3798 56.587 17.6295 56.4905 17.8625C56.3939 18.0954 56.2525 18.3071 56.0741 18.4854C55.8957 18.6637 55.684 18.805 55.451 18.9015C55.2179 18.9979 54.9682 19.0474 54.716 19.0473H44.0052C43.753 19.0474 43.5033 18.9979 43.2703 18.9015C43.0373 18.805 42.8255 18.6637 42.6471 18.4854C42.4688 18.3071 42.3273 18.0954 42.2308 17.8625C42.1342 17.6295 42.0845 17.3798 42.0845 17.1276V16.7225H38.9316C38.3132 16.7225 37.7201 16.9681 37.2828 17.4054C36.8455 17.8427 36.5999 18.4358 36.5999 19.0542V70.9561C36.5999 71.5745 36.8455 72.1676 37.2828 72.6049C37.7201 73.0422 38.3132 73.2878 38.9316 73.2878H60.0046C60.623 73.2878 61.2161 73.0422 61.6534 72.6049C62.0907 72.1676 62.3363 71.5745 62.3363 70.9561V19.0582C62.3368 18.7516 62.2769 18.448 62.16 18.1646C62.043 17.8813 61.8713 17.6238 61.6548 17.4068C61.4382 17.1899 61.181 17.0178 60.8978 16.9003C60.6147 16.7829 60.3111 16.7225 60.0046 16.7225Z" fill="#FF0F00"/>
<path d="M50.3505 16.9543H47.0174C46.8057 16.9543 46.634 17.1259 46.634 17.3376V17.403C46.634 17.6147 46.8057 17.7863 47.0174 17.7863H50.3505C50.5623 17.7863 50.7339 17.6147 50.7339 17.403V17.3376C50.7339 17.1259 50.5623 16.9543 50.3505 16.9543Z" fill="#E6E8EC"/>
<path d="M51.8266 17.8428C52.0876 17.8428 52.2991 17.6312 52.2991 17.3703C52.2991 17.1093 52.0876 16.8978 51.8266 16.8978C51.5657 16.8978 51.3541 17.1093 51.3541 17.3703C51.3541 17.6312 51.5657 17.8428 51.8266 17.8428Z" fill="#E6E8EC"/>
<path d="M74.3111 12.5552C74.3111 12.5552 65.9707 12.052 66.9533 17.8963C66.9533 17.8963 66.7552 18.9294 67.6942 19.398C67.6942 19.398 67.7091 18.9651 68.55 19.1127C68.8494 19.1623 69.1536 19.1769 69.4564 19.1563C69.8649 19.1294 70.2535 18.9705 70.5638 18.7036C70.5638 18.7036 72.9085 17.7348 73.8198 13.9034C73.8198 13.9034 74.4943 13.0673 74.4676 12.8524L73.06 13.4537C73.06 13.4537 73.5414 14.469 73.1591 15.3129C73.1591 15.3129 73.1135 13.4903 72.8431 13.5299C72.7886 13.5379 72.1121 13.8816 72.1121 13.8816C72.1121 13.8816 72.9392 15.6497 72.3151 16.9354C72.3151 16.9354 72.5519 14.7562 71.8535 14.0094L70.863 14.5878C70.863 14.5878 71.8298 16.4144 71.174 17.9052C71.174 17.9052 71.3424 15.619 70.654 14.7285L69.7565 15.4288C69.7565 15.4288 70.6649 17.2286 70.1112 18.4649C70.1112 18.4649 70.0388 15.8042 69.5624 15.6032C69.5624 15.6032 68.7769 16.2965 68.657 16.5798C68.657 16.5798 69.2791 17.8874 68.8928 18.5768C68.8928 18.5768 68.656 16.8037 68.4619 16.7938C68.4619 16.7938 67.6793 17.9686 67.5981 18.7749C67.5981 18.7749 67.6318 17.5773 68.2727 16.6829C68.2727 16.6829 67.5159 16.8126 67.0741 17.3029C67.0741 17.3029 67.196 16.4729 68.4658 16.3996C68.4658 16.3996 69.1127 15.5081 69.285 15.4546C69.285 15.4546 68.0231 15.3486 67.2574 15.6883C67.2574 15.6883 67.931 14.9048 69.5168 15.2614L70.4034 14.5373C70.4034 14.5373 68.7412 14.3105 68.0359 14.5611C68.0359 14.5611 68.8472 13.8677 70.6421 14.3729L71.6069 13.7964C71.6069 13.7964 70.1894 13.4913 69.3455 13.5983C69.3455 13.5983 70.2369 13.1179 71.8902 13.6389L72.5836 13.3289C72.5836 13.3289 71.5455 13.1248 71.2414 13.0921C70.9373 13.0594 70.9214 12.9762 70.9214 12.9762C71.5791 12.8665 72.2543 12.9416 72.8718 13.1931C72.8718 13.1931 74.3358 12.6474 74.3111 12.5552Z" fill="#FF0F00"/>
<path d="M65.7557 9.95602C65.7557 9.95602 61.9916 9.72918 62.4314 12.37C62.4314 12.37 62.3432 12.8365 62.7662 13.0485C62.7662 13.0485 62.7731 12.8504 63.1535 12.9187C63.2886 12.9415 63.4259 12.9481 63.5626 12.9386C63.7474 12.9263 63.923 12.854 64.0628 12.7325C64.0628 12.7325 65.1227 12.2947 65.5348 10.5632C65.5348 10.5632 65.8389 10.1858 65.827 10.0888L65.1911 10.3602C65.1911 10.3602 65.408 10.8188 65.2376 11.2001C65.2376 11.2001 65.2168 10.377 65.095 10.3958C65.0702 10.3958 64.7641 10.5553 64.7641 10.5553C64.7641 10.5553 65.1386 11.3547 64.8563 11.9351C64.8563 11.9351 64.9632 10.9505 64.6472 10.6128L64.1995 10.8782C64.1995 10.8782 64.6364 11.7033 64.3402 12.3769C64.3402 12.3769 64.4164 11.3438 64.1054 10.9416L63.7003 11.2586C63.7003 11.2586 64.1104 12.0718 63.8607 12.6305C63.8607 12.6305 63.8271 11.428 63.6121 11.3368C63.6121 11.3368 63.2575 11.6499 63.203 11.7786C63.203 11.7786 63.4843 12.373 63.31 12.681C63.31 12.681 63.203 11.8797 63.1119 11.8757C63.1119 11.8757 62.7583 12.4066 62.7216 12.7672C62.7393 12.431 62.8445 12.1053 63.0267 11.8222C62.8226 11.8609 62.6343 11.9583 62.4849 12.1025C62.4849 12.1025 62.5403 11.7271 63.1139 11.6944C63.1139 11.6944 63.411 11.2913 63.4843 11.2665C63.4843 11.2665 62.9138 11.219 62.5681 11.3725C62.5681 11.3725 62.8722 11.0189 63.5883 11.1793L63.9846 10.8525C63.9846 10.8525 63.2327 10.7534 62.9148 10.8634C62.9148 10.8634 63.2813 10.5503 64.0925 10.7782L64.5284 10.5177C64.5284 10.5177 63.8875 10.38 63.5061 10.4295C63.5061 10.4295 63.9093 10.2126 64.6562 10.4473L64.9682 10.3077C64.9682 10.3077 64.4987 10.2155 64.361 10.2007C64.2233 10.1858 64.2164 10.1482 64.2164 10.1482C64.5137 10.0987 64.819 10.133 65.0979 10.2472C65.0979 10.2472 65.7676 9.99762 65.7557 9.95602Z" fill="#FF0F00"/>
<path opacity="0.1" d="M85.6004 77.0539C87.0737 77.0539 88.268 76.8521 88.268 76.6032C88.268 76.3543 87.0737 76.1525 85.6004 76.1525C84.1272 76.1525 82.9329 76.3543 82.9329 76.6032C82.9329 76.8521 84.1272 77.0539 85.6004 77.0539Z" fill="#FF0F00"/>
<path opacity="0.1" d="M9.0229 80.7526C10.4961 80.7526 11.6904 80.5508 11.6904 80.3019C11.6904 80.053 10.4961 79.8512 9.0229 79.8512C7.54965 79.8512 6.35535 80.053 6.35535 80.3019C6.35535 80.5508 7.54965 80.7526 9.0229 80.7526Z" fill="#FF0F00"/>
<path opacity="0.1" d="M19.3415 83.1706C20.8147 83.1706 22.0091 82.9688 22.0091 82.7199C22.0091 82.4709 20.8147 82.2691 19.3415 82.2691C17.8683 82.2691 16.674 82.4709 16.674 82.7199C16.674 82.9688 17.8683 83.1706 19.3415 83.1706Z" fill="#FF0F00"/>
<path d="M79.7611 82.1067C81.9608 82.1067 83.7441 81.8051 83.7441 81.4331C83.7441 81.0611 81.9608 80.7596 79.7611 80.7596C77.5613 80.7596 75.7781 81.0611 75.7781 81.4331C75.7781 81.8051 77.5613 82.1067 79.7611 82.1067Z" fill="#FF0F00"/>
<path d="M81.4083 80.3316C81.5899 80.1832 81.7221 79.9832 81.7877 79.7581C81.8372 79.5313 81.7402 79.2628 81.5222 79.1747C81.2786 79.0816 81.0181 79.251 80.8209 79.4213C80.6238 79.5917 80.397 79.7868 80.1384 79.7502C80.2715 79.6298 80.3711 79.4771 80.4275 79.3068C80.4839 79.1365 80.4953 78.9544 80.4604 78.7785C80.4488 78.7055 80.4176 78.637 80.3702 78.5804C80.2355 78.4357 79.9899 78.4971 79.8284 78.612C79.3133 78.9736 79.1697 79.6739 79.1667 80.3029C79.1142 80.0761 79.1588 79.8393 79.1568 79.6095C79.1548 79.3797 79.0924 79.1143 78.8953 78.9924C78.7737 78.9272 78.637 78.895 78.4991 78.8993C78.2673 78.8904 78.0097 78.9142 77.8512 79.0836C77.6531 79.2935 77.7066 79.6462 77.877 79.876C78.0474 80.1058 78.3079 80.2534 78.5476 80.4129C78.7394 80.5272 78.9029 80.6833 79.026 80.8695C79.0409 80.8955 79.0528 80.9231 79.0617 80.9517H80.5089C80.8352 80.7864 81.1378 80.5778 81.4083 80.3316Z" fill="#FF0F00"/>
<path d="M19.4791 71.6435C19.4791 71.6435 20.0239 72.3557 19.2285 73.4265C18.4331 74.4973 17.7774 75.4076 18.0399 76.0782C18.0399 76.0782 19.2404 74.0823 20.2191 74.0545C21.1977 74.0268 20.5539 72.8441 19.4791 71.6435Z" fill="#FF0F00"/>
<path opacity="0.1" d="M19.4792 71.6435C19.5267 71.7125 19.5641 71.7878 19.5901 71.8674C20.5431 72.9867 21.0512 74.0317 20.1349 74.0575C19.2821 74.0823 18.2588 75.6077 18.0132 75.993C18.0211 76.0227 18.031 76.0515 18.0419 76.0812C18.0419 76.0812 19.2425 74.0852 20.2211 74.0575C21.1998 74.0298 20.554 72.8441 19.4792 71.6435Z" fill="black"/>
<path d="M20.4905 72.5509C20.4905 72.8015 20.4628 73.0046 20.4281 73.0046C20.3935 73.0046 20.3657 72.8015 20.3657 72.5509C20.3657 72.3003 20.4004 72.4181 20.4351 72.4181C20.4697 72.4181 20.4905 72.3003 20.4905 72.5509Z" fill="#FFD037"/>
<path d="M20.8382 72.85C20.6183 72.9698 20.4261 73.0421 20.4102 73.0114C20.3944 72.9807 20.5578 72.8589 20.7777 72.7391C20.9976 72.6192 20.9115 72.7064 20.9273 72.7391C20.9432 72.7717 21.0581 72.7301 20.8382 72.85Z" fill="#FFD037"/>
<path d="M16.6057 71.6435C16.6057 71.6435 16.0609 72.3557 16.8563 73.4265C17.6517 74.4973 18.3074 75.4076 18.0449 76.0782C18.0449 76.0782 16.8454 74.0823 15.8657 74.0545C14.8861 74.0268 15.5289 72.8441 16.6057 71.6435Z" fill="#FF0F00"/>
<path opacity="0.1" d="M16.6056 71.6435C16.558 71.7125 16.5203 71.7879 16.4937 71.8674C15.5408 72.9867 15.0336 74.0317 15.9489 74.0575C16.8027 74.0823 17.826 75.6077 18.0716 75.993C18.0635 76.023 18.0536 76.0524 18.0419 76.0812C18.0419 76.0812 16.8424 74.0852 15.8627 74.0575C14.883 74.0298 15.5289 72.8441 16.6056 71.6435Z" fill="black"/>
<path d="M15.5931 72.5509C15.5931 72.8015 15.6219 73.0046 15.6565 73.0046C15.6912 73.0046 15.7189 72.8015 15.7189 72.5509C15.7189 72.3003 15.6843 72.4181 15.6496 72.4181C15.6149 72.4181 15.5931 72.3003 15.5931 72.5509Z" fill="#FFD037"/>
<path d="M15.2465 72.85C15.4664 72.9698 15.6576 73.0421 15.6744 73.0114C15.6912 72.9807 15.5258 72.8589 15.3059 72.7391C15.086 72.6192 15.1732 72.7064 15.1563 72.7391C15.1395 72.7717 15.0266 72.7301 15.2465 72.85Z" fill="#FFD037"/>
<path d="M15.7666 75.9881C15.7666 75.9881 17.2881 75.9405 17.7477 75.6146C18.2073 75.2888 20.0884 74.8975 20.2013 75.4215C20.3142 75.9455 22.4885 78.0257 20.7709 78.0395C19.0532 78.0534 16.7789 77.7721 16.3213 77.4937C15.8637 77.2154 15.7666 75.9881 15.7666 75.9881Z" fill="#A8A8A8"/>
<path opacity="0.2" d="M20.8006 77.8573C19.083 77.8711 16.8087 77.5898 16.351 77.3115C16.0033 77.0985 15.8637 76.3367 15.8171 75.9861H15.7666C15.7666 75.9861 15.8657 77.2124 16.3203 77.4918C16.775 77.7711 19.0523 78.0514 20.7699 78.0376C21.2652 78.0376 21.4365 77.8573 21.4276 77.5958C21.3583 77.7562 21.1691 77.8543 20.8006 77.8573Z" fill="black"/>
<path d="M27.9563 44.0498C27.9704 44.0634 27.9885 44.0721 28.008 44.0746C28.0274 44.0771 28.0472 44.0733 28.0643 44.0637C28.0278 44.0642 27.9914 44.0595 27.9563 44.0498Z" fill="url(#paint0_linear)"/>
<path d="M39.826 24.3378C39.617 24.2764 39.3199 24.1764 38.9603 24.0506C39.3334 23.5632 39.6062 23.0067 39.7626 22.4132L39.7319 22.4251C39.7418 22.3884 39.7527 22.3528 39.7626 22.3161C39.0752 22.5994 38.3135 22.118 37.8291 21.5029C37.3447 20.8877 37.0149 20.122 36.4849 19.5545C36.2636 19.3296 36.0255 19.122 35.7727 18.9334C35.6162 18.8106 35.4468 18.6828 35.2556 18.6768C34.9466 18.6679 34.7039 18.974 34.4057 19.0661C34.2092 19.111 34.0042 19.1035 33.8114 19.0443C33.0418 18.865 32.2998 18.5352 31.5183 18.45C31.0982 18.3971 30.6716 18.4457 30.2742 18.5916C29.8779 18.7442 29.6996 19.0463 29.3827 19.285C29.0389 19.5446 28.3545 19.5386 27.9493 19.5822C27.4582 19.6386 26.9636 19.6595 26.4695 19.6446C26.1853 19.6189 25.899 19.6296 25.6176 19.6763C25.0292 19.807 24.5567 20.2805 24.1159 20.7362C23.9951 20.8402 23.9084 20.9783 23.8673 21.1324C23.8618 21.1758 23.8618 21.2197 23.8673 21.2632C23.8627 21.3816 23.883 21.4997 23.9267 21.6098C24.0599 22.0194 24.25 22.4082 24.4913 22.7648C24.6716 23.0263 24.8806 23.272 24.9866 23.581C25.0353 23.7332 25.061 23.8918 25.0629 24.0516C25.0573 24.2213 25.0398 24.3905 25.0104 24.5577C24.9325 25.019 24.8047 25.4704 24.629 25.9039C24.5359 26.1337 24.4309 26.3625 24.4061 26.6141C24.4032 26.6643 24.4032 26.7145 24.4061 26.7647C24.3764 27.5403 25.15 28.0999 25.2976 28.8716C25.3094 28.9354 25.3166 28.9999 25.3194 29.0647C25.3026 29.5461 25.0322 30.0167 24.634 30.2029C24.6686 30.2167 24.7043 30.2286 24.74 30.2415C24.7057 30.2632 24.6704 30.2831 24.634 30.3009C24.7063 30.3287 24.7806 30.3524 24.8559 30.3742C24.4004 30.7732 24.0179 31.2485 23.7256 31.7788C22.3924 34.3077 13.305 39.2684 13.305 39.2684C13.305 39.2684 13.3566 39.2971 13.4398 39.3466C13.4061 39.3675 13.3704 39.3912 13.3308 39.418C12.5443 39.9489 10.6979 41.4981 12.367 43.4515C12.367 43.4515 13.6696 41.3664 14.5819 40.4798C14.6235 40.4402 14.6631 40.4036 14.7017 40.3689C14.7221 40.4002 14.7358 40.4353 14.7419 40.4721C14.7481 40.509 14.7465 40.5467 14.7374 40.5829L20.7134 37.1783C20.7134 37.1783 22.8371 35.6707 23.4295 35.33C23.6335 35.2131 24.1536 34.8882 24.7756 34.7446L24.7063 34.7753C24.9295 34.7128 25.1599 34.6795 25.3917 34.6762C26.4496 34.693 27.5947 35.4785 27.9731 38.5899C28.4793 42.7561 28.2445 43.507 28.0821 43.61C28.0619 43.6085 28.042 43.6048 28.0226 43.5991C28.0275 43.6036 28.0328 43.6076 28.0385 43.611C28.0163 43.6096 27.9944 43.6056 27.9731 43.5991C27.9845 43.6099 27.9986 43.6177 28.0138 43.6215C28.0291 43.6253 28.0451 43.6251 28.0603 43.6209C28.0713 43.6241 28.0829 43.6251 28.0943 43.6237C28.1057 43.6223 28.1167 43.6187 28.1266 43.613C28.1494 43.613 28.1762 43.613 28.2069 43.613C28.2069 43.6506 28.2009 43.6902 28.198 43.7288C28.19 43.7288 28.1504 43.7516 28.198 43.7546C28.1861 43.9894 28.1871 44.2499 28.198 44.5124C27.672 44.5421 27.147 44.5738 26.6864 44.6025L26.728 44.3816L26.7468 44.2826C27.15 44.2499 27.5333 44.13 27.5779 43.7972C27.6769 43.0681 26.6864 42.6789 25.8494 42.6303C25.0124 42.5818 19.9724 42.9225 19.9724 42.9225C19.9724 42.9225 19.2167 43.9131 21.6128 44.2211C21.6841 44.2588 21.7584 44.3004 21.8337 44.344C22.7717 44.8868 24.0456 45.8853 24.6548 46.3776L24.74 46.4459L24.4666 46.6668C25.9524 47.0076 27.3808 52.7468 28.1702 55.3728C28.9597 57.9987 30.6892 57.9016 32.1215 57.5133C33.4637 57.1478 33.6351 53.1965 33.6509 52.7003C33.6509 52.6666 33.6509 52.6497 33.6509 52.6497L36.0372 55.6323L36.2185 55.8591C36.2888 55.8958 36.3571 55.9305 36.4245 55.9631C38.2322 56.8358 40.2292 55.1638 39.6606 53.2619C39.0871 51.3402 38.1956 48.5003 37.6013 47.2998C37.106 46.2944 36.4611 44.6253 36.0709 43.5773C36.1214 43.5565 36.1707 43.5327 36.2185 43.506C36.2185 43.506 36.2095 43.4594 36.1937 43.3732L36.2185 43.3604C36.2185 43.3604 35.6439 40.3342 35.6122 38.1857C35.6122 38.1481 35.6122 38.1104 35.6122 38.0728C35.6122 38.0352 35.6122 38.0262 35.6122 38.0025C36.0441 37.9034 36.3175 37.8638 36.3175 37.8638L36.3254 37.7707L36.2749 37.7816L36.5146 34.9942C36.5146 34.9942 37.3962 33.0933 36.7217 32.3009C36.5163 32.0682 36.3791 31.7834 36.3254 31.4777C36.2125 30.7487 36.3254 29.5352 37.8974 28.5259C40.3174 26.9697 41.2564 25.7048 41.2564 25.7048C41.2564 25.7048 41.3079 24.7756 39.826 24.3378ZM35.0199 26.2714V24.9837C35.4686 24.9619 35.9272 25.0144 36.3779 24.9837C36.5996 24.968 36.8192 24.9309 37.0337 24.8727L37.1426 24.949C36.4832 25.4628 35.7717 25.906 35.0199 26.2714ZM28.1593 46.4598C28.3366 46.5846 28.5149 46.7144 28.6903 46.8441C28.7992 47.4791 28.8953 47.9278 28.9023 47.9585C28.702 47.4368 28.4533 46.935 28.1593 46.4598Z" fill="url(#paint1_linear)"/>
<path d="M32.0384 45.6465L31.9314 46.227L31.8492 46.6708L31.6996 47.483L30.2494 48.4983C30.2494 48.4983 30.1187 48.3864 29.9027 48.2101C29.3084 47.7208 28.0593 46.7243 27.1421 46.1894C26.9061 46.039 26.6509 45.9214 26.3833 45.8397L32.0384 45.6465Z" fill="#FFBDC6"/>
<path opacity="0.1" d="M32.0384 45.6465L31.9314 46.227C31.6116 46.2444 31.2908 46.2278 30.9745 46.1775L27.5908 46.226C27.4313 46.2161 27.2817 46.2042 27.1421 46.1894C26.9061 46.039 26.6509 45.9214 26.3833 45.8397L32.0384 45.6465Z" fill="black"/>
<path d="M30.9745 46.0784C30.9745 46.0784 32.6654 46.3686 32.7644 45.6465C32.8635 44.9244 31.8937 44.5341 31.0726 44.4856C30.2514 44.4371 25.3204 44.7758 25.3204 44.7758C25.3204 44.7758 24.4507 45.9358 27.5918 46.1299L30.9745 46.0784Z" fill="#474463"/>
<path opacity="0.1" d="M32.0384 45.6465L31.9314 46.227L31.8492 46.6708L31.6996 47.483L30.2494 48.4983C30.2494 48.4983 30.1187 48.3864 29.9027 48.2101C29.3084 47.7208 28.0593 46.7243 27.1421 46.1894C26.9061 46.039 26.6509 45.9214 26.3833 45.8397L32.0384 45.6465Z" fill="black"/>
<path opacity="0.1" d="M32.0384 45.6465L31.9314 46.227C31.6116 46.2444 31.2908 46.2278 30.9745 46.1775L27.5908 46.226C27.4313 46.2161 27.2817 46.2042 27.1421 46.1894C26.9061 46.039 26.6509 45.9214 26.3833 45.8397L32.0384 45.6465Z" fill="black"/>
<path opacity="0.1" d="M30.9745 46.0764C30.9745 46.0764 32.6664 46.3656 32.7635 45.6406C32.8605 44.9155 31.8928 44.5292 31.0716 44.4806C30.2504 44.4321 25.3195 44.7709 25.3195 44.7709C25.3195 44.7709 24.4498 45.9308 27.5908 46.1239L30.9745 46.0764Z" fill="black"/>
<path d="M34.6723 22.2497H25.8267V32.7387H34.6723V22.2497Z" fill="#474463"/>
<path opacity="0.1" d="M34.6723 22.2973H25.8267V32.7862H34.6723V22.2973Z" fill="black"/>
<path d="M15.4595 40.2054C15.3139 40.2421 15.1277 40.3827 14.9206 40.5868C14.0291 41.4694 12.7523 43.5406 12.7523 43.5406C11.1199 41.5962 12.9267 40.0598 13.6963 39.5319C13.8835 39.4041 14.0093 39.3337 14.0093 39.3337L15.4595 40.2054Z" fill="#FFBDC6"/>
<path d="M31.9412 25.5602C31.9412 25.5602 32.3761 28.6051 33.8748 29.3302C35.3735 30.0553 31.9412 31.4103 31.9412 31.4103L27.2529 29.669C27.2529 29.669 29.9116 28.7983 29.3796 26.2367L31.9412 25.5602Z" fill="#FFBDC6"/>
<path d="M26.9143 43.8794L26.8083 44.4579L26.7221 44.9036L26.5725 45.7159L25.1224 46.7302C25.1224 46.7302 24.9916 46.6193 24.7757 46.4429C24.1813 45.9536 22.9323 44.9571 22.014 44.4222C21.7782 44.2716 21.5229 44.154 21.2552 44.0726L26.9143 43.8794Z" fill="#FFBDC6"/>
<path opacity="0.1" d="M26.9142 43.8794L26.8082 44.4579C26.4884 44.4753 26.1677 44.4587 25.8513 44.4084L22.4676 44.4569C22.3081 44.447 22.1576 44.4351 22.0179 44.4202C21.7821 44.2697 21.5268 44.152 21.2592 44.0706L26.9142 43.8794Z" fill="black"/>
<path d="M25.8513 44.3142C25.8513 44.3142 27.5432 44.6035 27.6393 43.8794C27.7354 43.1553 26.7696 42.767 25.9474 42.7185C25.1253 42.6699 20.1963 43.0087 20.1963 43.0087C20.1963 43.0087 19.3256 44.1686 22.4676 44.3628L25.8513 44.3142Z" fill="#474463"/>
<path opacity="0.1" d="M26.7221 44.9036L26.5725 45.7158L25.1223 46.7302C25.1223 46.7302 24.9916 46.6192 24.7756 46.4429L26.6933 44.8699L26.7221 44.9036Z" fill="black"/>
<path d="M36.2997 55.9691C36.2334 55.9364 36.167 55.9027 36.1016 55.87L35.9233 55.6452L33.5847 52.6795C33.5847 52.6795 33.5847 52.6973 33.5847 52.731C33.5688 53.2263 33.4004 57.1508 32.0869 57.5134C30.6853 57.8997 28.9944 57.9968 28.2238 55.3867C27.4532 52.7765 26.0446 47.0729 24.5984 46.7342L26.7499 44.97C26.7499 44.97 28.1743 46.6361 28.7547 48.2309C28.7329 48.1318 27.7493 43.5357 28.5566 42.7224H35.6143C35.6143 42.7224 36.7039 45.8258 37.4508 47.3632C38.0322 48.5568 38.9049 51.3789 39.4665 53.2887C40.0232 55.1747 38.0689 56.8398 36.2997 55.9691Z" fill="#474463"/>
<path opacity="0.1" d="M36.0986 43.5892C35.009 44.234 30.2256 43.9715 28.6695 43.8665L28.2455 43.8358C28.2 43.8358 28.2525 43.8101 28.2525 43.8101L28.296 43.3713L29.456 40.4234L35.6667 36.8217C35.5409 37.2011 35.4993 37.7816 35.5092 38.4462C35.538 40.5819 36.0986 43.5892 36.0986 43.5892Z" fill="black"/>
<path d="M36.0987 43.4435C35.0091 44.0884 30.2257 43.8259 28.6696 43.7209L28.2456 43.6912L28.1753 43.6852L28.2526 43.6654L28.6349 43.5664L29.4561 40.2797L35.6668 36.6791C35.541 37.0585 35.4994 37.6389 35.5093 38.3036C35.5381 40.4372 36.0987 43.4435 36.0987 43.4435Z" fill="#F2F1F2"/>
<path opacity="0.1" d="M35.5053 38.3016C34.2423 38.5928 31.4628 39.4477 30.395 41.511C29.6828 42.8849 29.0835 43.4743 28.6655 43.7209L28.2416 43.6912C28.2443 43.6827 28.2467 43.6741 28.2485 43.6654L28.6309 43.5664L29.452 40.2797L35.6628 36.6791C35.538 37.0565 35.4954 37.6369 35.5053 38.3016Z" fill="black"/>
<path opacity="0.1" d="M14.0093 39.3358L15.4595 40.2055C15.3139 40.2421 15.1276 40.3828 14.9206 40.5868C14.7998 40.2342 14.041 39.7419 13.6963 39.5319C13.8835 39.4061 14.0093 39.3358 14.0093 39.3358Z" fill="black"/>
<path opacity="0.1" d="M27.9831 43.7477C27.9672 43.7559 27.9491 43.7591 27.9313 43.7566C27.9136 43.7541 27.897 43.7461 27.884 43.7338C27.9162 43.7432 27.9496 43.7479 27.9831 43.7477Z" fill="black"/>
<path d="M31.2647 29.137C31.2647 29.137 29.9592 29.2817 29.041 28.3149C29.041 28.3149 25.1778 29.4273 23.8693 31.9403C22.5608 34.4533 13.6666 39.3843 13.6666 39.3843C13.6666 39.3843 15.2139 40.254 15.0683 40.6888L20.9175 37.3051C20.9175 37.3051 22.9976 35.8074 23.5751 35.4686C24.1526 35.1299 27.3461 33.0517 28.0227 38.7067C28.6992 44.3618 28.0227 43.6853 28.0227 43.6853C28.0227 43.6853 28.9894 44.024 30.3911 41.3168C31.7927 38.6097 36.1422 37.9817 36.1422 37.9817L36.3839 35.1309C36.3839 35.1309 37.2467 33.2409 36.582 32.4564C36.3806 32.2241 36.2467 31.9412 36.1947 31.6382C36.0848 30.9141 36.1947 29.7076 37.734 28.7052C40.1024 27.1579 41.0207 25.9019 41.0207 25.9019C41.0207 25.9019 41.0692 24.9827 39.619 24.5478C38.1689 24.113 32.2721 21.7446 32.2721 21.7446L32.074 22.5667L36.7266 25.8504C36.7266 25.8504 34.4068 27.7324 32.5663 27.6869C32.5663 27.6869 32.9081 29.0885 31.2647 29.137Z" fill="#FF748E"/>
<path opacity="0.1" d="M32.1602 26.8855C32.0458 26.4981 31.9565 26.1037 31.8927 25.7048L29.3311 26.3813C29.4441 26.8703 29.4239 27.3807 29.2727 27.8592C29.7964 27.999 30.3497 27.9812 30.8633 27.808C31.3769 27.6348 31.828 27.3139 32.1602 26.8855Z" fill="black"/>
<path d="M30.0326 27.8077C31.5539 27.8077 32.7873 26.5744 32.7873 25.053C32.7873 23.5316 31.5539 22.2982 30.0326 22.2982C28.5112 22.2982 27.2778 23.5316 27.2778 25.053C27.2778 26.5744 28.5112 27.8077 30.0326 27.8077Z" fill="#FFBDC6"/>
<path opacity="0.1" d="M31.4975 18.7878C32.2622 18.8739 32.9883 19.2028 33.7411 19.3821C33.9292 19.4409 34.1295 19.4488 34.3216 19.4049C34.6138 19.3137 34.8515 19.0087 35.1546 19.0176C35.3409 19.0176 35.5063 19.1503 35.6598 19.2721C35.9063 19.4603 36.1381 19.6669 36.3532 19.8902C36.8722 20.4539 37.1942 21.2126 37.6677 21.8258C38.1411 22.4389 38.888 22.9154 39.5606 22.6341C39.103 24.4171 37.6043 25.7751 35.9827 25.886C35.3359 25.9296 34.6732 25.7949 34.0472 25.9851C33.8912 26.0486 33.7266 26.0886 33.5589 26.104C33.1983 26.104 32.9081 25.7731 32.6832 25.4512C32.1562 24.6944 31.7392 23.8346 31.1459 23.1442C30.9478 22.9164 30.7189 22.6994 30.4416 22.6578C30.1642 22.6162 29.9097 22.748 29.663 22.8758C29.2559 23.0867 28.8399 23.3057 28.5239 23.6682C28.2079 24.0307 28.0088 24.5696 28.1396 25.055C28.2099 25.3185 28.3704 25.5562 28.3733 25.8316C28.3793 26.2704 27.991 26.5923 27.9147 27.0202C27.8975 27.1999 27.8912 27.3806 27.8959 27.5611C27.8622 28.1475 27.4789 28.6279 27.0787 28.9964C26.9222 29.14 26.7498 29.2935 26.7042 29.5154C26.6735 29.666 26.7042 29.8264 26.6844 29.979C26.626 30.3594 26.2466 30.5525 25.9108 30.603C25.5185 30.6602 25.118 30.6127 24.7499 30.4653C25.2194 30.2425 25.5086 29.6115 25.3997 29.0449C25.2501 28.2604 24.4616 27.6978 24.529 26.8984C24.5662 26.6535 24.6396 26.4154 24.7469 26.1921C24.9189 25.7611 25.0437 25.3127 25.1194 24.8549C25.1788 24.5003 25.2075 24.1248 25.0966 23.7881C24.9975 23.48 24.7905 23.2363 24.6152 22.9768C24.3773 22.6234 24.1896 22.2387 24.0575 21.8337C24.0092 21.7141 23.9909 21.5846 24.004 21.4563C24.0426 21.3026 24.1273 21.1643 24.2467 21.0601C24.6776 20.6074 25.1382 20.1359 25.7157 20.0071C25.9911 19.9606 26.2715 19.9496 26.5497 19.9744C27.0336 19.9901 27.518 19.9696 27.9989 19.913C28.3951 19.8665 29.0647 19.8734 29.4005 19.6159C29.7135 19.3752 29.8899 19.075 30.2752 18.9225C30.6656 18.7788 31.0852 18.7326 31.4975 18.7878Z" fill="black"/>
<path opacity="0.1" d="M33.0289 47.2383C33.0289 47.2383 34.6237 50.3804 34.1403 51.3461L33.0289 47.2383Z" fill="black"/>
<path opacity="0.1" d="M35.9203 55.6412L33.5846 52.6794C33.5846 52.6794 33.5846 52.6973 33.5846 52.7309C33.5846 52.7309 33.4499 51.7721 33.8946 52.094C34.8693 52.7993 36.4285 53.9553 36.4622 54.1544C36.4958 54.3535 36.1462 55.1489 35.9203 55.6412Z" fill="black"/>
<g opacity="0.1">
<path opacity="0.1" d="M32.6178 27.6869C32.6178 27.6869 32.8159 28.5031 32.178 28.9112C33.1586 28.7438 33.2022 27.9801 33.1685 27.6483C32.9864 27.6774 32.8021 27.6904 32.6178 27.6869Z" fill="black"/>
<path opacity="0.1" d="M14.251 39.1901C14.251 39.1901 23.1442 34.2602 24.4537 31.7471C25.3898 29.9434 27.6462 28.8617 28.8448 28.3941C27.9711 28.6913 25.0272 29.8116 23.9218 31.9403C22.6172 34.4533 13.7191 39.3843 13.7191 39.3843L14.251 39.1901Z" fill="black"/>
<path opacity="0.1" d="M34.3493 27.3025C35.8628 26.832 37.309 25.6572 37.309 25.6572L32.6653 22.3686L32.7713 21.9189L32.3266 21.7406L32.1334 22.5628L36.7742 25.8494C36.0304 26.4341 35.2156 26.9224 34.3493 27.3025Z" fill="black"/>
<path opacity="0.1" d="M34.376 38.4413C34.9687 38.239 35.5769 38.0853 36.1946 37.9817L36.2025 37.8885C35.5803 38.0253 34.9696 38.2101 34.376 38.4413Z" fill="black"/>
<path opacity="0.1" d="M28.7518 43.505H28.7092C28.6932 43.5131 28.6752 43.5161 28.6575 43.5137C28.6397 43.5112 28.6232 43.5033 28.6101 43.4911C28.6423 43.5005 28.6757 43.5051 28.7092 43.505C28.8677 43.4128 29.1054 42.6907 28.6101 38.5126C28.0772 34.0551 25.9802 34.4028 24.8331 34.9159C26.0059 34.593 27.6196 34.8723 28.0782 38.7058C28.5784 42.8839 28.3397 43.606 28.1772 43.6981C28.3834 43.6904 28.5829 43.6233 28.7518 43.505Z" fill="black"/>
<path opacity="0.1" d="M28.1772 43.6991C28.1437 43.6993 28.1103 43.6946 28.0781 43.6852C28.0912 43.6974 28.1077 43.7053 28.1255 43.7078C28.1432 43.7103 28.1612 43.7073 28.1772 43.6991Z" fill="black"/>
</g>
<path d="M31.4975 18.6907C32.2622 18.7778 32.9883 19.1057 33.7411 19.285C33.9292 19.3435 34.1295 19.351 34.3216 19.3068C34.6138 19.2167 34.8515 18.9106 35.1546 18.9195C35.3408 18.9254 35.5062 19.0522 35.6598 19.1741C35.906 19.3625 36.1378 19.5691 36.3532 19.7922C36.8722 20.3558 37.1941 21.1145 37.6676 21.7277C38.1411 22.3408 38.888 22.8173 39.5606 22.536C39.1029 24.319 37.6042 25.677 35.9827 25.788C35.3359 25.8325 34.6732 25.6978 34.0472 25.887C33.8913 25.9509 33.7267 25.991 33.5588 26.0059C33.1983 26.0059 32.908 25.675 32.6832 25.3531C32.1562 24.5963 31.7392 23.7375 31.1459 23.0471C30.9477 22.8183 30.7189 22.6014 30.4416 22.5598C30.1642 22.5182 29.9096 22.6509 29.663 22.7787C29.2559 22.9897 28.8399 23.2076 28.5239 23.5711C28.2079 23.9346 28.0088 24.4715 28.1395 24.9579C28.2099 25.2214 28.3703 25.4591 28.3733 25.7345C28.3792 26.1743 27.991 26.4952 27.9147 26.9231C27.8975 27.1029 27.8912 27.2835 27.8959 27.464C27.8622 28.0504 27.4788 28.5298 27.0787 28.8993C26.9222 29.0419 26.7498 29.1964 26.7042 29.4173C26.6735 29.5689 26.7042 29.7284 26.6844 29.8819C26.626 30.2623 26.2466 30.4554 25.9108 30.5049C25.5185 30.563 25.1177 30.5155 24.7499 30.3673C25.2194 30.1454 25.5086 29.5134 25.3997 28.9478C25.2501 28.1633 24.4616 27.5997 24.529 26.8013C24.566 26.5563 24.6395 26.3183 24.7469 26.095C24.9187 25.6636 25.0436 25.2149 25.1194 24.7568C25.1788 24.4032 25.2075 24.0278 25.0966 23.69C24.9975 23.3829 24.7905 23.1382 24.6152 22.8787C24.3775 22.5256 24.1898 22.1412 24.0575 21.7366C24.0095 21.6166 23.9911 21.4868 24.004 21.3582C24.0437 21.2064 24.1283 21.07 24.2467 20.967C24.6776 20.5143 25.1382 20.0438 25.7157 19.914C25.9912 19.8683 26.2715 19.8576 26.5497 19.8823C27.0336 19.8975 27.518 19.877 27.9989 19.8209C28.3951 19.7743 29.0647 19.7803 29.4005 19.5237C29.7135 19.284 29.8898 18.9829 30.2752 18.8303C30.6653 18.6857 31.0847 18.6378 31.4975 18.6907Z" fill="#474463"/>
<path d="M49.6453 51.2937C52.7127 51.2937 55.1993 48.8071 55.1993 45.7397C55.1993 42.6723 52.7127 40.1856 49.6453 40.1856C46.5779 40.1856 44.0913 42.6723 44.0913 45.7397C44.0913 48.8071 46.5779 51.2937 49.6453 51.2937Z" fill="white"/>
<path d="M56.9427 45.0076C56.9427 46.4758 56.5073 47.911 55.6916 49.1317C54.876 50.3525 53.7166 51.3039 52.3602 51.8657C51.0038 52.4276 49.5113 52.5746 48.0713 52.2882C46.6313 52.0017 45.3087 51.2947 44.2705 50.2566C43.2324 49.2184 42.5254 47.8958 42.239 46.4558C41.9525 45.0159 42.0995 43.5233 42.6614 42.1669C43.2232 40.8105 44.1747 39.6511 45.3954 38.8355C46.6161 38.0198 48.0513 37.5844 49.5195 37.5844C51.4882 37.5844 53.3764 38.3665 54.7685 39.7586C56.1606 41.1508 56.9427 43.0389 56.9427 45.0076ZM48.6617 48.9371L54.1681 43.4307C54.2127 43.3862 54.2481 43.3334 54.2722 43.2753C54.2963 43.2172 54.3087 43.1548 54.3087 43.0919C54.3087 43.029 54.2963 42.9666 54.2722 42.9085C54.2481 42.8504 54.2127 42.7976 54.1681 42.7531L53.4906 42.0805C53.4462 42.036 53.3935 42.0007 53.3355 41.9766C53.2774 41.9524 53.2152 41.94 53.1523 41.94C53.0895 41.94 53.0272 41.9524 52.9692 41.9766C52.9111 42.0007 52.8584 42.036 52.8141 42.0805L48.3229 46.5717L46.2259 44.4697C46.1359 44.3802 46.0141 44.33 45.8871 44.33C45.7602 44.33 45.6384 44.3802 45.5484 44.4697L44.8708 45.1512C44.7813 45.2413 44.7311 45.3631 44.7311 45.49C44.7311 45.617 44.7813 45.7388 44.8708 45.8288L47.9841 48.9411C48.0286 48.9857 48.0814 49.021 48.1395 49.0451C48.1976 49.0693 48.26 49.0817 48.3229 49.0817C48.3858 49.0817 48.4482 49.0693 48.5063 49.0451C48.5644 49.021 48.6172 48.9857 48.6617 48.9411V48.9371Z" fill="#3ACC6C"/>
</g>
<defs>
<linearGradient id="paint0_linear" x1="28.0108" y1="44.0755" x2="28.0108" y2="44.0498" gradientUnits="userSpaceOnUse">
<stop stop-color="#808080" stop-opacity="0.25"/>
<stop offset="0.54" stop-color="#808080" stop-opacity="0.12"/>
<stop offset="1" stop-color="#808080" stop-opacity="0.1"/>
</linearGradient>
<linearGradient id="paint1_linear" x1="10729.5" y1="24095.7" x2="10729.5" y2="8513.95" gradientUnits="userSpaceOnUse">
<stop stop-color="#808080" stop-opacity="0.25"/>
<stop offset="0.54" stop-color="#808080" stop-opacity="0.12"/>
<stop offset="1" stop-color="#808080" stop-opacity="0.1"/>
</linearGradient>
<clipPath id="clip0">
<rect width="100" height="83.1706" fill="white"/>
</clipPath>
</defs>
</svg>
