<?xml version="1.0" encoding="iso-8859-1"?>
<!-- Generator: Adobe Illustrator 19.0.0, SVG Export Plug-In . SVG Version: 6.00 Build 0)  -->
<svg version="1.1" id="Capa_1" xmlns="http://www.w3.org/2000/svg" xmlns:xlink="http://www.w3.org/1999/xlink" x="0px" y="0px"
	 viewBox="0 0 511.998 511.998" style="enable-background:new 0 0 511.998 511.998;" xml:space="preserve">
<path style="fill:#F7C78B;" d="M488.324,213.185c-11.97,8.255-32.046,12.979-32.046,12.979s-70.647,13.484-90.925,61.753
	c-1.297,3.087-5.153,4.17-7.827,2.154c-11.25-8.484-41.743-25.374-105.689-24.742c-36.945,1.223-67.325,14.886-95.967,34.029
	c0,0,13.009-13.063,16.176-41.615c2.489-22.439-2.364-44.993-13.125-65.505c-4.468-8.516-10.443-18.284-18.276-28.258
	c-4.894-6.231-5.208-14.386-0.601-20.78c2.862-3.972,7.551-8.497,15.053-13.412l17.589-11.314c0,0-17.953-24.88-17.955-24.882
	c-1.227-1.7-26.193,11.657-27.681,12.509c-22.831,13.068-42.113,30.583-57.469,50.16c-19.47,24.822-32.63,53.055-40.986,82.116
	c-5.503,19.138-8.945,38.702-10.839,58.352c-3.996,41.468-5.282,97.293,22.387,135.747c8.343,11.595,20.851,20.471,35.478,25.517
	c44.412,15.322,165.995,48.566,282.698,2.792c2.481-0.973,5.299,0.138,6.462,2.536c6.212,12.815,28.926,49.361,85.676,48.667
	l40.799,0.009c2.841,0,5.145-2.302,5.145-5.144V217.407C496.401,213.252,491.744,210.827,488.324,213.185z"/>
<path style="fill:#F8AE7B;" d="M494.414,459.105l-40.792-0.01c-56.759,0.699-79.465-35.853-85.678-48.662
	c-1.163-2.397-3.982-3.508-6.461-2.541c-116.707,45.771-238.29,12.531-282.704-2.788c-14.629-5.051-27.129-13.92-35.473-25.514
	c-18.755-26.059-24.208-60.102-24.527-92.232c-0.391,3.117-0.73,6.245-1.029,9.372c-3.992,41.471-5.278,97.294,22.387,135.75
	c8.344,11.595,20.854,20.473,35.483,25.514c44.413,15.319,165.997,48.57,282.693,2.788c2.49-0.967,5.309,0.144,6.471,2.541
	c6.204,12.819,28.92,49.362,85.668,48.662l40.802,0.01c2.84,0,5.144-2.305,5.144-5.144v-48.138
	C495.783,458.961,495.114,459.105,494.414,459.105z"/>
<circle style="fill:#B3B3BA;" cx="218.61" cy="81.1" r="81.1"/>
<path style="fill:#A0A0A5;" d="M299.714,81.104c0,44.794-36.317,81.1-81.1,81.1c-30.957,0-57.87-17.346-71.543-42.85
	c13.23,9.383,29.393,14.897,46.851,14.897c44.794,0,81.1-36.306,81.1-81.1c0-13.838-3.467-26.862-9.578-38.261
	C286.175,29.571,299.714,53.758,299.714,81.104z"/>
<circle style="fill:#7D7878;" cx="218.61" cy="81.1" r="40.551"/>
<path style="fill:#666363;" d="M259.159,81.104c0,22.397-18.148,40.545-40.545,40.545c-20.524,0-37.5-15.247-40.185-35.041
	c7.027,5.864,16.07,9.383,25.936,9.383c22.387,0,40.545-18.158,40.545-40.545c0-1.872-0.123-3.714-0.381-5.525
	C253.47,57.349,259.159,68.563,259.159,81.104z"/>
<g>
</g>
<g>
</g>
<g>
</g>
<g>
</g>
<g>
</g>
<g>
</g>
<g>
</g>
<g>
</g>
<g>
</g>
<g>
</g>
<g>
</g>
<g>
</g>
<g>
</g>
<g>
</g>
<g>
</g>
</svg>
