<?xml version="1.0" encoding="utf-8"?>
<!-- Generator: Adobe Illustrator 23.0.1, SVG Export Plug-In . SVG Version: 6.00 Build 0)  -->
<svg version="1.1" id="Layer_1" xmlns="http://www.w3.org/2000/svg" xmlns:xlink="http://www.w3.org/1999/xlink" x="0px" y="0px"
	 viewBox="0 0 90.2 90.2" style="enable-background:new 0 0 90.2 90.2;" xml:space="preserve">
<style type="text/css">
	.st0{fill-rule:evenodd;clip-rule:evenodd;fill:#FFFFFF;}
	.st1{fill:#00AEEF;}
	.st2{fill-rule:evenodd;clip-rule:evenodd;fill:#EBB688;}
	.st3{fill-rule:evenodd;clip-rule:evenodd;fill:#E0AC7E;}
	.st4{fill-rule:evenodd;clip-rule:evenodd;fill:#6E4823;}
	.st5{fill-rule:evenodd;clip-rule:evenodd;fill:#59301D;}
	.st6{fill-rule:evenodd;clip-rule:evenodd;fill:#F2C196;}
	.st7{fill-rule:evenodd;clip-rule:evenodd;fill:#D49E6F;}
</style>
<g>
	<circle class="st0" cx="45.1" cy="45.1" r="44.6"/>
	<path class="st1" d="M45.1,1c24.32,0,44.1,19.78,44.1,44.1S69.42,89.2,45.1,89.2C20.78,89.2,1,69.42,1,45.1S20.78,1,45.1,1 M45.1,0
		C20.19,0,0,20.19,0,45.1c0,24.91,20.19,45.1,45.1,45.1c24.91,0,45.1-20.19,45.1-45.1C90.2,20.19,70.01,0,45.1,0L45.1,0z"/>
</g>
<g>
	<path class="st2" d="M44.85,18.06c-3.36-0.18-5.67,1.49-7.03,4.83c-0.52,1.48-0.68,3.05,0,4.83c-0.85-0.15-1.45,0.58-1.54,1.54
		c-0.01,1.17,0.35,2.49,1.54,3.07l0.77,0.22c1.06,2.26,1.66,3.11,1.8,5.24c-0.26,3.8-1.47,4.43-3.89,3.77
		c-3.51-3.51-7.91-3.08-12.08-0.66c-3.56-1.66-7.23-1.13-10.98,0.88c2.46-4.09,2.42-11.2,4.17-12.96l-0.02-0.01l1.61-1.42
		c0.56,0.23,0.92,0.22,1.63-0.07l1.78-0.85c0.75,0.43,1.67,0.13,2.74-0.78l2.46,0.51c0.95,0.17,1.37-1.2,0.79-1.75l-1.38-0.8
		c0.52-0.27,0.89-0.73,0.98-1.57c-0.19-1.06-1.16-1.78-3.27-2.76c-0.67-0.44-1.56-0.51-2.35-0.48c-3.04,1.04-2.93,1.01-5.68,3.76
		l-3.82,5.46c-4.49,4-7.96,9.36-9.98,16.14c-0.56,0.84-0.35,1.93,0.66,2.86c5.07,3.85,10.86,6.16,20.43,6.36
		c3.26,2.14,5.13,5.41,6.37,9.68c0.35,3.12,0.86,6.17,2.2,8.79c2.94,3.67,6.99,6.04,12.08,7.16V18.06z"/>
	<path class="st3" d="M44.85,18.06c3.36-0.18,5.67,1.49,7.03,4.83c0.52,1.48,0.68,3.05,0,4.83c0.85-0.15,1.45,0.58,1.54,1.54
		c0.01,1.17-0.35,2.49-1.54,3.07l-0.77,0.22c-1.06,2.26-1.66,3.11-1.8,5.24c0.26,3.8,1.47,4.43,3.89,3.77
		c3.51-3.51,7.91-3.08,12.08-0.66c3.56-1.66,7.23-1.13,10.98,0.88c-2.46-4.09-2.42-11.2-4.17-12.96l0.02-0.01l-1.61-1.42
		c-0.56,0.23-0.92,0.22-1.63-0.07l-1.78-0.85c-0.75,0.43-1.67,0.13-2.74-0.78l-2.46,0.51c-0.95,0.17-1.37-1.2-0.79-1.75l1.38-0.8
		c-0.52-0.27-0.89-0.73-0.98-1.57c0.19-1.06,1.16-1.78,3.27-2.76c0.67-0.44,1.56-0.51,2.35-0.48c3.04,1.04,2.93,1.01,5.68,3.76
		l3.82,5.46c4.49,4,7.96,9.36,9.98,16.14c0.56,0.84,0.35,1.93-0.66,2.86c-5.07,3.85-10.86,6.16-20.43,6.36
		c-3.26,2.14-5.13,5.41-6.37,9.68c-0.36,3.12-0.86,6.17-2.2,8.79c-3.21,3.84-7.23,6.24-12.08,7.16V18.06z"/>
	<path class="st4" d="M52.6,29.74c0.25-3.23,1.34-6.61,0.56-9.6c-1.83-4.28-10.49-6.3-14.66-5.54c-2.6,4.38-1.53,9.78-1.05,14.77
		L52.6,29.74z"/>
	<path class="st5" d="M44.98,29.55V15c3.55,0.83,7.08,2.58,8.18,5.14c0.79,2.99-0.31,6.38-0.56,9.6L44.98,29.55z"/>
	<path class="st6" d="M40.85,20.95c-1.37-0.27-2.69,1.14-2.94,2.51c-0.23,1.26-0.39,2.56-0.44,3.86c-0.04-0.01,0.17-0.01-0.11-0.01
		c-0.28,0-1.18,0.2-1.14,1.41c0.03,0.9,0.81,3.52,1.84,3.09c1.49,3.99,3.5,6.25,6.78,7.04c0.05-0.11,0.08-0.02,0.13-0.06V21.37
		C43.66,21.38,42.33,21.24,40.85,20.95z"/>
	<path class="st2" d="M48.97,20.95c1.37-0.27,2.69,1.14,2.94,2.51c0.23,1.26,0.38,2.56,0.44,3.86c0.04-0.01-0.17-0.01,0.11-0.01
		c0.28,0,1.18,0.2,1.14,1.41c-0.03,0.9-0.82,3.52-1.84,3.09c-1.51,4.05-3.55,6.27-6.91,7.04V21.37
		C46.17,21.38,47.5,21.24,48.97,20.95z"/>
	<path class="st3" d="M24.53,52.99c3.48,2.54,4.8,4.8,5.68,7.38c0.66-2.31,1.35-3.1-0.96-5.84L24.53,52.99z"/>
	<path class="st7" d="M64.84,53.21c-3.48,2.54-4.8,4.8-5.68,7.38c-0.66-2.31-1.35-3.1,0.96-5.84L64.84,53.21z"/>
	<path class="st3" d="M31.44,56.5c-0.11-0.14-0.09-0.35,0.05-0.46c0.14-0.11,0.35-0.09,0.46,0.05c1.09,1.38,2.09,2.63,3.58,3.13
		c1.49,0.5,3.46,0.25,5.45-0.28c0.17-0.05,0.93-0.24,1.17,0.45c0.14,0.68-0.83,0.93-1.01,0.98c-2.29,0.6-4.47,0.32-5.97-0.09
		C32.88,59.21,31.97,57.66,31.44,56.5z"/>
	<path class="st7" d="M58.3,56.5c0.11-0.14,0.09-0.35-0.05-0.46c-0.14-0.11-0.35-0.09-0.46,0.05c-1.09,1.38-2.09,2.63-3.58,3.13
		c-1.49,0.5-3.46,0.25-5.45-0.28c-0.17-0.05-0.93-0.24-1.17,0.45c-0.13,0.68,0.84,0.93,1.01,0.98c2.29,0.6,4.47,0.32,5.97-0.09
		C56.87,59.21,57.78,57.66,58.3,56.5z"/>
</g>
</svg>
