<svg width="48" height="48" viewBox="0 0 48 48" fill="none" xmlns="http://www.w3.org/2000/svg">
<path d="M47.5 24C47.5 36.9787 36.9787 47.5 24 47.5C11.0213 47.5 0.5 36.9787 0.5 24C0.5 11.0213 11.0213 0.5 24 0.5C36.9787 0.5 47.5 11.0213 47.5 24Z" fill="#E5EBF1" stroke="#FF0F00"/>
<path d="M14.8103 25.3449H12.1207C11.6256 25.3449 11.2241 24.9434 11.2241 24.4483C11.2241 23.9532 11.6256 23.5518 12.1207 23.5518H14.8103V25.3449Z" fill="#DC4D41"/>
<path d="M26.9138 25.3449H29.1552C29.6503 25.3449 30.0518 24.9434 30.0518 24.4483C30.0518 23.9532 29.6503 23.5518 29.1552 23.5518H26.9138V25.3449Z" fill="#DC4D41"/>
<path d="M17.5 32.069H20.1897V32.9655H17.5V32.069Z" fill="#979797"/>
<path d="M17.9482 32.069H18.3965V32.9655H17.9482V32.069Z" fill="#818181"/>
<path d="M21.0862 32.069H23.7758V32.9655H21.0862V32.069Z" fill="#979797"/>
<path d="M19.7413 29.3793H21.5344V35.6551H19.7413V29.3793Z" fill="#A8A8A8"/>
<path d="M19.7413 29.3793H21.5344V30.7241H19.7413V29.3793Z" fill="#979797"/>
<path d="M19.7413 34.3103H21.5344V35.2069H19.7413V34.3103Z" fill="#979797"/>
<path d="M33.1897 18.6207H34.0863V26.6897H33.1897V18.6207Z" fill="#CDCDCD"/>
<path d="M33.1897 14.1379H34.0863V16.8276H33.1897V14.1379Z" fill="#CDCDCD"/>
<path d="M33.1897 31.1725H34.0863V33.8621H33.1897V31.1725Z" fill="#CDCDCD"/>
<path d="M33.1897 31.1725H34.0863V32.069H33.1897V31.1725Z" fill="#B9B9B9"/>
<path d="M23.3277 29.8276H17.9484C17.4533 29.8276 17.0519 29.4261 17.0519 28.931V28.0345L17.9484 26.2414L18.845 25.7931H22.4312L23.3277 26.2414L24.2243 28.0345V28.931C24.2243 29.4261 23.8228 29.8276 23.3277 29.8276Z" fill="#F55648"/>
<path d="M23.3277 29.8275H17.9484C17.4533 29.8275 17.0519 29.4261 17.0519 28.931V28.0344H24.2243V28.931C24.2243 29.4261 23.8228 29.8275 23.3277 29.8275Z" fill="#FF5A4B"/>
<path d="M17.9483 33.4138H16.1552C15.6601 33.4138 15.2587 33.0124 15.2587 32.5173C15.2587 32.0222 15.6601 31.6207 16.1552 31.6207H17.9483V33.4138Z" fill="#DC4D41"/>
<path d="M23.3275 33.4138H25.1206C25.6157 33.4138 26.0172 33.0124 26.0172 32.5173C26.0172 32.0222 25.6157 31.6207 25.1206 31.6207H23.3275V33.4138Z" fill="#DC4D41"/>
<path d="M17.9484 35.2069H23.3277C23.8228 35.2069 24.2243 35.6083 24.2243 36.1035V37H17.0519V36.1035C17.0519 35.6083 17.4533 35.2069 17.9484 35.2069Z" fill="#428DC5"/>
<path d="M21.5345 14.1379V11H19.7414V14.1379L18.8448 15.4828V17.2759L19.7414 18.6207V20.4138H21.5345V18.6207L22.4311 17.2759V15.4828L21.5345 14.1379Z" fill="#A8A8A8"/>
<path d="M13.9138 15.4828H27.3621V17.2759H13.9138V15.4828Z" fill="#428DC5"/>
<path d="M31.8448 33.4138H35.431C35.9261 33.4138 36.3275 33.8153 36.3275 34.3104V35.2069H30.9482V34.3104C30.9482 33.8153 31.3497 33.4138 31.8448 33.4138Z" fill="#428DC5"/>
<path d="M31.8448 29.8276H35.431C35.9261 29.8276 36.3275 30.2291 36.3275 30.7242V31.6207H30.9482V30.7242C30.9482 30.2291 31.3497 29.8276 31.8448 29.8276Z" fill="#428DC5"/>
<path d="M31.8448 28.0345H35.431C35.9261 28.0345 36.3275 28.436 36.3275 28.9311V29.8277H30.9482V28.9311C30.9482 28.436 31.3497 28.0345 31.8448 28.0345Z" fill="#428DC5"/>
<path d="M31.8448 26.2415H35.431C35.9261 26.2415 36.3275 26.6429 36.3275 27.138V28.0346H30.9482V27.138C30.9482 26.6429 31.3497 26.2415 31.8448 26.2415Z" fill="#428DC5"/>
<path d="M33.1897 18.6207H34.0863V26.6897H33.1897V18.6207Z" fill="#CDCDCD"/>
<path d="M33.638 19.5173C33.791 19.5157 33.9427 19.4879 34.0863 19.4348V18.6207H33.1897V19.4348C33.3333 19.4879 33.485 19.5157 33.638 19.5173Z" fill="#B9B9B9"/>
<path d="M33.638 15.0345C33.791 15.033 33.9427 15.0052 34.0863 14.952V14.1379H33.1897V14.952C33.3333 15.0052 33.485 15.033 33.638 15.0345Z" fill="#B9B9B9"/>
<path d="M30.5 35.2069H36.7759V37H30.5V35.2069Z" fill="#A8A8A8"/>
<path d="M30.5 35.2069H36.7759V35.6552H30.5V35.2069Z" fill="#979797"/>
<path d="M34.9828 24H35.8793V24.8965H34.9828V24Z" fill="#C0F5F9"/>
<path d="M34.9828 22.2069H35.8793V23.1035H34.9828V22.2069Z" fill="#C0F5F9"/>
<path d="M34.9828 19.5172H35.8793V21.3103H34.9828V19.5172Z" fill="#C0F5F9"/>
<path d="M31.0724 28.4827H36.2035C36.0444 28.2062 35.75 28.0353 35.431 28.0344H31.8448C31.5259 28.0353 31.2315 28.2062 31.0724 28.4827Z" fill="#277BAA"/>
<path d="M31.0724 26.6897H36.2035C36.0444 26.4133 35.75 26.2423 35.431 26.2415H31.8448C31.5259 26.2423 31.2315 26.4133 31.0724 26.6897Z" fill="#4799CF"/>
<path d="M31.0724 30.2758H36.2035C36.0444 29.9993 35.75 29.8284 35.431 29.8275H31.8448C31.5259 29.8284 31.2315 29.9993 31.0724 30.2758Z" fill="#277BAA"/>
<path d="M31.0724 33.8621H36.2035C36.0444 33.5856 35.75 33.4147 35.431 33.4138H31.8448C31.5259 33.4147 31.2315 33.5856 31.0724 33.8621Z" fill="#277BAA"/>
<path d="M34.5347 17.7241C34.5347 18.2192 34.1332 18.6206 33.6381 18.6206C33.143 18.6206 32.7416 18.2192 32.7416 17.7241C32.7416 17.2289 33.143 16.8275 33.6381 16.8275C34.1332 16.8275 34.5347 17.2289 34.5347 17.7241Z" fill="#CDCDCD"/>
<path d="M33.6379 19.0689C32.8952 19.0689 32.2931 18.4668 32.2931 17.7241C32.2931 16.9814 32.8952 16.3793 33.6379 16.3793C34.3806 16.3793 34.9827 16.9814 34.9827 17.7241C34.9827 18.4668 34.3806 19.0689 33.6379 19.0689ZM33.6379 17.2758C33.3904 17.2758 33.1896 17.4765 33.1896 17.7241C33.1896 17.9717 33.3904 18.1724 33.6379 18.1724C33.8855 18.1724 34.0862 17.9717 34.0862 17.7241C34.0862 17.4765 33.8855 17.2758 33.6379 17.2758Z" fill="#A8A8A8"/>
<path d="M32.7416 12.7931H34.5347V13.6896C34.5347 14.1848 34.1332 14.5862 33.6381 14.5862C33.143 14.5862 32.7416 14.1848 32.7416 13.6896V12.7931Z" fill="#CDCDCD"/>
<path d="M22.8793 32.069H23.3275V32.9655H22.8793V32.069Z" fill="#818181"/>
<path d="M21.8335 18.1724L22.4311 17.2759H18.8448L19.4424 18.1724H21.8335Z" fill="#878787"/>
<path d="M19.7413 12.7931H21.5344V13.6896H19.7413V12.7931Z" fill="#878787"/>
<path d="M14.3621 15.4828H15.2586V17.2759H14.3621V15.4828Z" fill="#277BAA"/>
<path d="M26.0172 15.4828H26.9138V17.2759H26.0172V15.4828Z" fill="#277BAA"/>
<path d="M23.3276 26.2414H17.9482L18.7896 20.3506C18.8212 20.1297 19.0103 19.9656 19.2335 19.9656H22.0423C22.2655 19.9656 22.4546 20.1297 22.4862 20.3506L23.3276 26.2414Z" fill="#DC4D41"/>
<path d="M13.0172 23.5518H13.9138V25.3449H13.0172V23.5518Z" fill="#C7463B"/>
<path d="M27.3621 23.5518H28.2586V25.3449H27.3621V23.5518Z" fill="#C7463B"/>
<path d="M32.7416 12.3448H34.5347V13.2414H32.7416V12.3448Z" fill="#C3C3C3"/>
<path d="M19.7413 11H35.8793V12.7931H19.7413V11Z" fill="#428DC5"/>
<path d="M14.3621 19.5172H13.9138V19.9655H12.569V14.5862H14.3621V19.5172Z" fill="#CDCDCD"/>
<path d="M12.1207 19.5173C12.1207 20.5712 12.838 21.4896 13.8604 21.7453L13.9138 21.7587H14.8104V20.4138H13.9138V18.6207H12.569V19.5173H12.1207Z" fill="#A8A8A8"/>
<path d="M12.569 18.6207H14.3621V19.5173H12.569V18.6207Z" fill="#B9B9B9"/>
<path d="M14.8104 19.5172C15.3055 19.5172 15.7069 19.9186 15.7069 20.4138V25.7931C15.7069 26.2882 15.3055 26.6896 14.8104 26.6896C14.3153 26.6896 13.9138 26.2882 13.9138 25.7931V20.4138C13.9138 19.9186 14.3153 19.5172 14.8104 19.5172Z" fill="#F55648"/>
<path d="M26.9138 19.5172H27.3621V19.9655H28.7069V14.5862H26.9138V19.5172Z" fill="#CDCDCD"/>
<path d="M29.1552 19.5173C29.1552 20.5712 28.4379 21.4896 27.4155 21.7453L27.3621 21.7587H26.4656V20.4138H27.3621V18.6207H28.707V19.5173H29.1552Z" fill="#A8A8A8"/>
<path d="M28.7069 19.5173H26.9138V18.6207H28.7069V19.5173Z" fill="#B9B9B9"/>
<path d="M26.4655 26.6896C25.9704 26.6896 25.569 26.2882 25.569 25.7931V20.4138C25.569 19.9186 25.9704 19.5172 26.4655 19.5172C26.9606 19.5172 27.3621 19.9186 27.3621 20.4138V25.7931C27.3621 26.2882 26.9606 26.6896 26.4655 26.6896Z" fill="#F55648"/>
</svg>
