<?xml version="1.0" encoding="utf-8"?>
<!-- Generator: Adobe Illustrator 23.0.1, SVG Export Plug-In . SVG Version: 6.00 Build 0)  -->
<svg version="1.1" id="Layer_1" xmlns="http://www.w3.org/2000/svg" xmlns:xlink="http://www.w3.org/1999/xlink" x="0px" y="0px"
	 viewBox="0 0 512 512" style="enable-background:new 0 0 512 512;" xml:space="preserve">
<style type="text/css">
	.st0{fill:#6A829A;}
	.st1{fill:#516980;}
	.st2{fill:#2EDDDA;}
	.st3{fill:#889CB0;}
	.st4{fill:#76E7E7;}
	.st5{fill:#454545;}
</style>
<path class="st0" d="M381.94,331.08l-34.5-66.92c0,0,38.69-21.6,64.29-78.14c6.55-14.47,6.95-30.64,1.11-45.52
	c-5.88-14.97-17.25-26.64-32.03-32.84c-39.28-16.5-81.13-24.86-124.4-24.86s-85.12,8.36-124.4,24.86
	c-14.78,6.21-26.15,17.87-32.03,32.84c-5.84,14.88-5.45,31.05,1.11,45.52c25.59,56.54,63.08,77.48,64.66,78.34l-0.38-0.2
	l-34.5,66.92c-6.25-3.22-62.05-33.77-98.38-114.01c-15.01-33.15-15.93-70.12-2.6-104.09c13.37-34.06,39.28-60.61,72.96-74.75
	C151.39,17.84,203.05,7.5,256.39,7.5s105,10.34,153.56,30.73c33.68,14.15,59.59,40.7,72.96,74.75
	c13.33,33.97,12.41,70.94-2.6,104.09C443.98,297.31,388.18,327.86,381.94,331.08z"/>
<path class="st1" d="M32.48,217.07c36.32,80.24,92.13,110.79,98.37,114.01l34.5-66.92c0,0-38.69-21.6-64.29-78.14
	c-6.55-14.47-6.95-30.64-1.11-45.52c5.88-14.97,17.25-26.64,32.03-32.84C131.99,107.65,76.41,122.43,32.48,217.07z"/>
<path class="st1" d="M480.31,217.07c-36.33,80.24-92.13,110.79-98.37,114.01l-34.5-66.92c0,0,38.69-21.6,64.29-78.14
	c6.55-14.47,6.95-30.64,1.1-45.52c-5.88-14.97-17.25-26.64-32.03-32.84C380.79,107.65,436.38,122.43,480.31,217.07z"/>
<path class="st2" d="M130.85,331.08l34.5-66.92c0,0-34.59-19.32-59.87-68.95c-20.21,17.85-37.25,39.22-50.15,63.14
	C88.6,308.14,125.82,328.49,130.85,331.08z"/>
<path class="st2" d="M407.3,195.21c-25.28,49.63-59.87,68.95-59.87,68.95l34.5,66.92c5.03-2.59,42.25-22.94,75.52-72.73
	C444.56,234.44,427.52,213.07,407.3,195.21z"/>
<path class="st3" d="M335.77,504.5c35.93,0,68.14-22.27,80.71-55.93c10.29-27.58,16.04-56.05,16.04-82.29
	c0-97.27-78.86-176.12-176.12-176.12S80.27,269,80.27,366.28c0,26.24,5.74,54.71,16.04,82.29c12.56,33.66,44.78,55.93,80.7,55.93
	H335.77z"/>
<path class="st0" d="M80.27,366.28c0,26.24,5.74,54.71,16.04,82.3c12.56,33.66,44.78,55.93,80.71,55.93h110.5
	c-12.24-14.98-22.21-30.86-31.12-46.82c-15.96-28.61-26.56-57.61-33.55-82.21c-9.33-32.86,2.06-67.98,28.55-89.54
	c48.86-39.77,47-90.73,47-90.74c-13.46-3.29-27.53-5.04-42-5.04C159.12,190.15,80.27,269.01,80.27,366.28z"/>
<path class="st4" d="M352.81,361.26c0,53.25-43.17,96.42-96.42,96.42c-53.25,0-96.42-43.17-96.42-96.42
	c0-53.25,43.17-96.42,96.42-96.42C309.64,264.84,352.81,308.01,352.81,361.26z"/>
<path class="st2" d="M222.84,375.47c-9.33-32.86,2.06-67.98,28.55-89.54c7.91-6.44,14.49-13.17,19.97-19.94
	c-4.88-0.76-9.88-1.15-14.97-1.15c-53.25,0-96.42,43.17-96.42,96.42s43.17,96.42,96.42,96.42
	C240.43,429.07,229.83,400.07,222.84,375.47z"/>
<path class="st5" d="M271.43,366.93c0-10.58-6.73-19.16-15.04-19.16c-8.3,0-15.04,8.57-15.04,19.16c0,10.58,6.73,19.15,15.04,19.15
	C264.7,386.09,271.43,377.51,271.43,366.93z"/>
<path d="M318.2,371.89c4.14,0,7.5-3.36,7.5-7.5v-12.45c0-4.14-3.36-7.5-7.5-7.5c-4.14,0-7.5,3.36-7.5,7.5v12.45
	C310.7,368.53,314.05,371.89,318.2,371.89z"/>
<path d="M202.09,364.39v-12.45c0-4.14-3.36-7.5-7.5-7.5s-7.5,3.36-7.5,7.5v12.45c0,4.14,3.36,7.5,7.5,7.5
	S202.09,368.53,202.09,364.39z"/>
<path d="M256.39,465.18c57.3,0,103.92-46.62,103.92-103.92c0-57.3-46.62-103.92-103.92-103.92c-57.3,0-103.92,46.62-103.92,103.92
	C152.47,418.56,199.09,465.18,256.39,465.18z M256.39,272.34c49.04,0,88.92,39.89,88.92,88.92s-39.89,88.92-88.92,88.92
	c-49.03,0-88.92-39.89-88.92-88.92S207.36,272.34,256.39,272.34z"/>
<path d="M256.39,393.59c12.43,0,22.54-11.96,22.54-26.65c0-14.7-10.11-26.66-22.54-26.66s-22.54,11.96-22.54,26.66
	C233.86,381.63,243.96,393.59,256.39,393.59z M256.39,355.28c3.57,0,7.54,4.79,7.54,11.65c0,6.87-3.97,11.66-7.54,11.66
	c-3.56,0-7.54-4.79-7.54-11.66C248.86,360.06,252.83,355.28,256.39,355.28z"/>
</svg>
