<svg width="100" height="66" viewBox="0 0 100 66" fill="none" xmlns="http://www.w3.org/2000/svg">
<g clip-path="url(#clip0)">
<path opacity="0.1" d="M1.93617 20.886C1.18323 23.1654 3.39695 25.2154 5.13813 26.8664C7.52142 29.1313 9.40195 31.8719 10.6577 34.9105C11.4146 36.7468 11.9411 38.7223 11.7999 40.7037C11.3999 46.3233 6.10774 50.0674 1.87931 53.7899C1.28029 54.3223 0.681266 54.8792 0.332246 55.5968C-0.788342 57.8997 1.11656 60.5537 3.2146 62.0223C10.6862 67.2497 21.4705 65.6948 28.7175 60.1605C32.4705 57.2939 35.696 53.3958 40.244 52.1213C43.1519 51.3105 46.2381 51.6948 49.247 51.9448C53.7584 52.3186 58.2907 52.3724 62.8097 52.1056C64.396 52.0076 66.0548 51.8546 67.3832 50.9831C70.747 48.7791 70.1793 43.5537 72.6068 40.3478C74.3519 38.0438 77.3332 37.1556 79.9283 35.8821C83.9227 33.9111 87.2558 30.8182 89.5195 26.9821C91.6028 23.436 92.6822 19.4046 93.7352 15.4301C94.5293 12.4438 95.3264 9.31638 94.6538 6.29971C93.9813 3.28304 91.3264 0.466376 88.2479 0.731082C85.8842 0.934024 84.0038 2.80167 81.7273 3.4703C76.2744 5.07618 70.9803 -0.501271 65.3234 0.0369641C61.7617 0.3752 58.8891 3.07618 56.7175 5.91932C54.546 8.76246 52.7077 11.9634 49.8401 14.1046C45.3793 17.438 39.2675 17.5556 33.8068 16.4762C28.346 15.3968 23.1068 13.2723 17.5852 12.5644C14.3322 12.1478 11.8391 14.086 8.9097 15.1517C6.22146 16.1301 2.93225 17.8713 1.93617 20.886Z" fill="#FF0F00"/>
<path opacity="0.1" d="M13.5244 65.5078C17.463 65.5078 20.6558 64.5378 20.6558 63.3412C20.6558 62.1446 17.463 61.1745 13.5244 61.1745C9.58589 61.1745 6.39307 62.1446 6.39307 63.3412C6.39307 64.5378 9.58589 65.5078 13.5244 65.5078Z" fill="#FF0F00"/>
<path opacity="0.1" d="M80.954 36.8931C91.4729 36.8931 100 36.3274 100 35.6294C100 34.9315 91.4729 34.3657 80.954 34.3657C70.4352 34.3657 61.908 34.9315 61.908 35.6294C61.908 36.3274 70.4352 36.8931 80.954 36.8931Z" fill="#FF0F00"/>
<g opacity="0.5">
<path opacity="0.5" d="M69.4392 6.70587C69.7034 6.70587 69.9567 6.81081 70.1435 6.99762C70.3303 7.18442 70.4353 7.43777 70.4353 7.70195V35.398H68.4431V7.70097C68.4434 7.43696 68.5484 7.18386 68.7352 6.99727C68.922 6.81068 69.1752 6.70587 69.4392 6.70587Z" fill="#FF0F00"/>
<path opacity="0.5" d="M91.2949 6.70588C91.5591 6.70588 91.8125 6.81083 91.9993 6.99763C92.1861 7.18443 92.291 7.43779 92.291 7.70196V35.3981H90.2939V7.70098C90.2941 7.56984 90.3201 7.44002 90.3705 7.31896C90.4209 7.19791 90.4948 7.088 90.5878 6.99554C90.6808 6.90309 90.7911 6.82991 90.9125 6.7802C91.0338 6.73049 91.1638 6.70524 91.2949 6.70588Z" fill="#FF0F00"/>
<path opacity="0.5" d="M97.1089 12.8971C97.659 12.8971 98.105 12.4511 98.105 11.901C98.105 11.3509 97.659 10.9049 97.1089 10.9049L63.6265 10.9049C63.0764 10.9049 62.6304 11.3509 62.6304 11.901C62.6304 12.4511 63.0764 12.8971 63.6265 12.8971L97.1089 12.8971Z" fill="#FF0F00"/>
<path opacity="0.5" d="M67.8509 8.93921C67.8509 8.50821 67.5016 8.15881 67.0706 8.15881C66.6396 8.15881 66.2902 8.50821 66.2902 8.93921V14.8608C66.2902 15.2918 66.6396 15.6412 67.0706 15.6412C67.5016 15.6412 67.8509 15.2918 67.8509 14.8608V8.93921Z" fill="#FF0F00"/>
<path opacity="0.5" d="M66.2902 9.63919C66.2902 9.20819 65.9408 8.8588 65.5098 8.8588C65.0788 8.8588 64.7294 9.20819 64.7294 9.63919V14.1618C64.7294 14.5928 65.0788 14.9421 65.5098 14.9421C65.9408 14.9421 66.2902 14.5928 66.2902 14.1618V9.63919Z" fill="#FF0F00"/>
<path opacity="0.5" d="M92.8833 14.8608C92.8833 15.2918 93.2327 15.6412 93.6637 15.6412C94.0947 15.6412 94.4441 15.2918 94.4441 14.8608V8.93922C94.4441 8.50822 94.0947 8.15882 93.6637 8.15882C93.2327 8.15882 92.8833 8.50822 92.8833 8.93922V14.8608Z" fill="#FF0F00"/>
<path opacity="0.5" d="M94.4442 14.1608C94.4442 14.5918 94.7936 14.9412 95.2246 14.9412C95.6556 14.9412 96.005 14.5918 96.005 14.1608V9.63825C96.005 9.20726 95.6556 8.85786 95.2246 8.85786C94.7936 8.85786 94.4442 9.20726 94.4442 9.63825V14.1608Z" fill="#FF0F00"/>
</g>
<g opacity="0.5">
<path opacity="0.5" d="M78.3784 18.298H82.451C82.893 18.298 83.3169 18.4736 83.6295 18.7862C83.9421 19.0988 84.1177 19.5227 84.1177 19.9647V26.9608H76.7157V19.9647C76.7157 19.5234 76.8908 19.1 77.2025 18.7876C77.5142 18.4751 77.9371 18.2991 78.3784 18.298Z" fill="#FF0F00"/>
<path opacity="0.5" d="M80.9541 26.3324H79.8707V29.9432H80.9541V26.3324Z" fill="#FF0F00"/>
<path opacity="0.5" d="M78.7874 30.3941H77.7041V34.0049H78.7874V30.3941Z" fill="#FF0F00"/>
<path opacity="0.5" d="M83.3012 30.3941H82.2179V34.0049H83.3012V30.3941Z" fill="#FF0F00"/>
<path opacity="0.5" d="M84.1139 29.6716H76.7119V30.6647H84.1139V29.6716Z" fill="#FF0F00"/>
</g>
<path opacity="0.1" d="M46.3813 59.6402C68.8149 59.6402 87.0009 58.3067 87.0009 56.6618C87.0009 55.0168 68.8149 53.6833 46.3813 53.6833C23.9477 53.6833 5.76172 55.0168 5.76172 56.6618C5.76172 58.3067 23.9477 59.6402 46.3813 59.6402Z" fill="#FF0F00"/>
<path d="M56.8981 46.0549C56.8981 46.0549 59.6961 47.3186 61.05 47.3186C61.05 47.3186 62.4942 47.6794 63.3049 48.0412C64.1157 48.403 67.2765 48.5824 67.2765 48.5824C67.2765 48.5824 70.9775 49.9363 71.4285 50.5687C71.8794 51.201 73.2334 48.3137 73.2334 48.3137L72.5108 46.5088L58.8834 43.8912L56.8981 46.0549Z" fill="#FFB9B9"/>
<path opacity="0.05" d="M56.8981 46.0549C56.8981 46.0549 59.6961 47.3186 61.05 47.3186C61.05 47.3186 62.4942 47.6794 63.3049 48.0412C64.1157 48.403 67.2765 48.5824 67.2765 48.5824C67.2765 48.5824 70.9775 49.9363 71.4285 50.5687C71.8794 51.201 73.2334 48.3137 73.2334 48.3137L72.5108 46.5088L58.8834 43.8912L56.8981 46.0549Z" fill="black"/>
<path d="M70.7087 50.0275C70.7087 50.0275 72.4234 52.2824 71.7019 53.6383C70.9803 54.9942 71.2509 54.9923 71.7019 55.0825C72.1529 55.1726 74.6803 55.7148 74.9519 53.7285C75.2234 51.7422 75.7646 47.3196 75.7646 47.3196L72.0587 46.9579C72.0587 46.9579 73.0558 50.2981 70.7087 50.0275Z" fill="#737A9D"/>
<path d="M49.406 43.0765L57.1687 46.6873C57.1687 46.6873 59.6059 44.7912 59.4236 43.7991L50.3972 41.6324L49.406 43.0765Z" fill="#4C4C78"/>
<path opacity="0.1" d="M49.406 43.0765L57.1687 46.6873C57.1687 46.6873 59.6059 44.7912 59.4236 43.7991L50.3972 41.6324L49.406 43.0765Z" fill="black"/>
<path d="M81.9921 47.7707L81.1765 49.756L79.2843 50.205C78.7541 49.7625 78.187 49.3663 77.5892 49.0207C76.5706 48.4324 75.2304 47.8569 73.9617 47.9481C73.9617 47.9481 68.9068 47.1354 68.6363 46.7716C68.6363 46.7716 65.3863 46.0491 64.6647 46.1393C64.3167 46.1824 63.5686 45.9324 62.8882 45.6608C62.1578 45.3667 61.5049 45.0559 61.5049 45.0559L63.8519 41.3549C64.1257 41.4728 64.4074 41.571 64.6951 41.649C65.5921 41.9118 67.2068 42.253 69.5392 42.253C73.3304 42.253 78.5657 46.1344 78.5657 46.1344C78.5657 46.1344 78.6176 46.152 78.7068 46.1785C79.099 46.2971 80.2166 46.5765 80.7323 46.1344C81.3598 45.604 81.9921 47.7707 81.9921 47.7707Z" fill="#FFB9B9"/>
<path opacity="0.1" d="M81.9923 47.7707L81.1766 49.756L79.2845 50.205C78.7543 49.7625 78.1872 49.3663 77.5894 49.0207C80.3423 49.2276 78.6982 46.1883 78.6982 46.1883H78.7041C79.0962 46.307 80.2139 46.5864 80.7296 46.1442C81.3599 45.604 81.9923 47.7707 81.9923 47.7707Z" fill="black"/>
<path d="M77.6 49.097C77.6 49.097 79.7833 52.1588 78.8647 53.8833C77.9461 55.6078 78.2902 55.6068 78.8647 55.7225C79.4392 55.8382 82.6579 56.5274 83.002 53.999C83.2667 52.0549 83.0344 48.3235 82.9128 46.7039C82.905 46.6017 82.877 46.502 82.8304 46.4107C82.7837 46.3194 82.7194 46.2383 82.6411 46.172C82.5629 46.1058 82.4722 46.0558 82.3744 46.0249C82.2767 45.994 82.1737 45.9829 82.0716 45.9922L78.8784 46.2863C78.8784 46.2863 80.5883 49.4421 77.6 49.097Z" fill="#737A9D"/>
<path d="M25.756 52.1029L25.8462 56.5265L26.8393 57.248H30.2697L30.9011 56.3461V52.1029L29.9079 51.2H26.6589L25.756 52.1029Z" fill="#FF0F00"/>
<path opacity="0.2" d="M26.2972 52.1931C26.2972 52.1931 26.9295 56.2549 26.2972 56.6167L25.8462 56.5265L25.756 52.1941L26.2972 52.1931Z" fill="white"/>
<path d="M33.6991 51.8324L34.4216 51.1098H37.853L38.5755 51.8324C38.5755 51.8324 39.4784 54.45 38.7559 56.1647L37.9412 56.9774H34.5099L33.6971 56.2549L33.6991 51.8324Z" fill="#FF0F00"/>
<path opacity="0.1" d="M25.756 52.1029L25.8462 56.5265L26.8393 57.248H30.2697L30.9011 56.3461V52.1029L29.9079 51.2H26.6589L25.756 52.1029Z" fill="black"/>
<path opacity="0.1" d="M33.6991 51.8324L34.4216 51.1098H37.853L38.5755 51.8324C38.5755 51.8324 39.4784 54.45 38.7559 56.1647L37.9412 56.9774H34.5099L33.6971 56.2549L33.6991 51.8324Z" fill="black"/>
<path opacity="0.2" d="M34.5099 52.0127C34.5099 52.0127 35.2325 55.1726 34.5099 56.2549H33.6971V51.8324L34.5099 52.0127Z" fill="white"/>
<path d="M30.9011 36.848C30.9011 36.848 31.2619 40.3686 31.2619 40.8196C31.2619 41.2706 31.0815 44.251 31.6227 47.1383C32.1639 50.0255 31.2619 53.6363 31.2619 53.6363H34.2403L35.5041 43.8873L34.6011 38.7421L34.2403 37.1176L30.9011 36.848Z" fill="#FFB9B9"/>
<path opacity="0.05" d="M30.9011 36.848C30.9011 36.848 31.2619 40.3686 31.2619 40.8196C31.2619 41.2706 31.0815 44.251 31.6227 47.1383C32.1639 50.0255 31.2619 53.6363 31.2619 53.6363H34.2403L35.5041 43.8873L34.6011 38.7421L34.2403 37.1176L30.9011 36.848Z" fill="black"/>
<path d="M30.3597 27.9117C30.3597 27.9117 26.3881 28.0019 29.547 34.5911C29.547 34.5911 30.3597 37.299 30.3597 37.7509C30.3597 38.2029 34.4215 38.2019 34.8695 37.7509C35.3176 37.3 34.147 33.599 34.147 31.8833C34.147 30.1676 32.9774 27.3706 30.3597 27.9117Z" fill="#CBCDDA"/>
<path opacity="0.05" d="M30.3597 27.9117C30.3597 27.9117 26.3881 28.0019 29.547 34.5911C29.547 34.5911 30.3597 37.299 30.3597 37.7509C30.3597 38.2029 34.4215 38.2019 34.8695 37.7509C35.3176 37.3 34.147 33.599 34.147 31.8833C34.147 30.1676 32.9774 27.3706 30.3597 27.9117Z" fill="black"/>
<path d="M25.5755 24.0284C25.5755 24.0284 29.0069 27.7294 31.8941 25.0216L31.5333 34.5901C31.5333 34.5901 26.8392 28.9039 23.5922 29.3549L25.5755 24.0284Z" fill="#FFB9B9"/>
<path opacity="0.1" d="M64.691 41.6599C64.5538 42.7177 64.1224 44.9451 62.8842 45.6667C62.1538 45.3725 61.5009 45.0618 61.5009 45.0618L63.8479 41.3608C64.1215 41.4803 64.4033 41.5803 64.691 41.6599Z" fill="black"/>
<path d="M64.4805 41.0873C64.4805 41.0873 64.2099 45.5108 62.0432 45.8716L48.9569 43.5108C48.3218 43.3954 47.7246 43.1261 47.2176 42.7265C46.6892 42.3108 46.0412 41.7461 45.6578 41.2284C45.45 40.9461 45.3245 40.6765 45.3451 40.4539C45.4353 39.4608 49.4069 37.1137 48.0529 32.9617C48.2454 32.8093 48.4596 32.6864 48.6882 32.597C49.8186 32.1274 52.4206 31.7823 56.1765 35.6696C56.1765 35.6745 63.1265 41.2716 64.4805 41.0873Z" fill="#4C4C78"/>
<path d="M29.0961 52.4637L29.1863 56.8873L30.1784 57.6098H33.6088L34.2412 56.7069V52.4637L33.248 51.5618H29.998L29.0961 52.4637Z" fill="#FF0F00"/>
<path opacity="0.2" d="M29.6373 52.5578C29.6373 52.5578 30.2697 56.6196 29.6373 56.9814L29.1863 56.8912L29.0961 52.5578H29.6373Z" fill="white"/>
<path d="M39.0253 52.1029L39.7478 51.3804H43.1792L43.9017 52.1029C43.9017 52.1029 44.8047 54.7206 44.0821 56.4353L43.2694 57.248H39.838L39.0253 56.5255V52.1029Z" fill="#FF0F00"/>
<path opacity="0.2" d="M39.8371 52.2833C39.8371 52.2833 40.5596 55.4431 39.8371 56.5255H39.0244V52.1029L39.8371 52.2833Z" fill="white"/>
<path d="M34.2157 53.8186H39.099C39.4814 53.8186 39.7912 54.1618 39.7912 54.5863C39.7912 55.0098 39.4814 55.3539 39.099 55.3539H34.2157C33.801 55.3539 33.4794 54.953 33.5294 54.4971C33.5696 54.1098 33.8657 53.8186 34.2157 53.8186Z" fill="#FF0F00"/>
<path opacity="0.1" d="M48.3226 39.7363C47.3569 40.4127 46.3392 40.8559 45.6569 41.2333C45.449 40.951 45.3235 40.6814 45.3441 40.4588C45.4343 39.4657 49.4059 37.1186 48.052 32.9667C48.2445 32.8143 48.4586 32.6913 48.6873 32.602C48.8994 32.5975 49.1103 32.5685 49.3157 32.5157C49.3157 32.5157 50.1275 38.4725 48.3226 39.7363Z" fill="black"/>
<path d="M28.0579 31.0255C28.0579 31.0255 29.4118 32.3794 30.7206 33.2373C31.9285 34.0284 29.7726 26.0608 29.7726 26.0608C29.7726 26.0608 31.1099 24.9824 31.8952 24.3422C32.4196 23.9107 33.0878 23.6936 33.7657 23.7343C35.5726 23.851 38.8824 24.6108 41.553 28.2735C45.4344 33.599 48.955 32.5157 48.955 32.5157C48.955 32.5157 49.7677 38.4736 47.9618 39.7373C46.1559 41.001 44.1706 41.452 44.5304 42.1745C44.8903 42.8971 42.9059 38.6539 38.3922 37.9324C33.8785 37.2108 28.9138 34.051 29.005 32.5167C29.0059 32.5157 27.6971 31.4794 28.0579 31.0255Z" fill="#CBCDDA"/>
<path opacity="0.1" d="M27.1099 26.3814C27.1094 26.1204 27.0865 25.86 27.0413 25.603C25.8589 25.0147 26.0266 24.2147 26.0266 24.2147L24.0403 29.5402C24.7668 29.4422 25.5658 29.6461 26.3677 30.0304C27.4236 29.1961 27.1099 27.8216 27.1099 26.3814Z" fill="black"/>
<path d="M23.1384 30.801C25.6312 30.801 27.6521 28.7801 27.6521 26.2873C27.6521 23.7944 25.6312 21.7735 23.1384 21.7735C20.6455 21.7735 18.6246 23.7944 18.6246 26.2873C18.6246 28.7801 20.6455 30.801 23.1384 30.801Z" fill="#FFB9B9"/>
<path opacity="0.1" d="M19.0374 27.3049C18.954 27.5726 18.8256 27.848 18.5834 27.9912C18.2893 28.1657 17.8834 28.0794 17.6217 27.8539C17.3599 27.6284 17.2187 27.2912 17.1452 26.9539C17.0393 26.4656 17.0561 25.9587 17.1942 25.4784C17.3119 25.0716 17.5148 24.6941 17.6001 24.2775C17.6913 23.8343 17.6452 23.3706 17.7472 22.9294C17.8854 22.3314 18.2795 21.8304 18.6638 21.351C18.7843 21.168 18.9404 21.0112 19.1228 20.8899C19.3052 20.7686 19.5102 20.6853 19.7256 20.6451L21.6148 20.0755C21.973 19.9555 22.3411 19.8676 22.7148 19.8128C23.1953 19.7636 23.6807 19.8062 24.1452 19.9382C24.5151 20.0313 24.8661 20.1879 25.1825 20.401C25.4959 20.6339 25.772 20.9132 26.0011 21.2294C27.0001 22.5353 27.5697 24.6716 28.6001 25.9569C28.1933 26.0824 27.7864 25.6628 27.3795 25.7902C27.3217 25.8151 27.2573 25.8203 27.1962 25.8049C27.1357 25.7721 27.0883 25.7195 27.0619 25.6559C26.7033 25.0296 26.139 24.5467 25.4648 24.2892C24.9648 24.1 24.2883 24.101 24.0148 24.5598C23.8295 24.8696 23.904 25.2608 23.9531 25.6186C24.0021 25.9765 23.9932 26.4029 23.7099 26.6235C23.5533 26.7294 23.3711 26.791 23.1825 26.802C22.3031 26.9172 21.409 26.8297 20.5687 26.5461C20.2746 26.448 19.9756 26.1412 19.6648 26.2392C19.2452 26.3716 19.1481 26.949 19.0374 27.3049Z" fill="black"/>
<path d="M18.9384 27.2059C18.855 27.4736 18.7266 27.7491 18.4844 27.8922C18.1903 28.0667 17.7844 27.9804 17.5227 27.7549C17.2609 27.5294 17.1197 27.1922 17.0462 26.8549C16.9403 26.3666 16.9571 25.8596 17.0952 25.3794C17.2129 24.9726 17.4158 24.5951 17.5011 24.1784C17.5923 23.7353 17.5462 23.2716 17.6482 22.8304C17.7864 22.2324 18.1805 21.7314 18.5648 21.252C18.6853 21.069 18.8414 20.9121 19.0238 20.7909C19.2062 20.6696 19.4112 20.5863 19.6266 20.5461L21.5158 19.9765C21.874 19.8568 22.2421 19.7692 22.6158 19.7147C23.0963 19.6655 23.5817 19.7081 24.0462 19.8402C24.4161 19.9332 24.7671 20.0898 25.0835 20.3029C25.3969 20.5358 25.673 20.8152 25.9021 21.1314C26.9011 22.4373 27.4707 24.5735 28.5011 25.8588C28.0943 25.9843 27.6874 25.5647 27.2805 25.6922C27.2227 25.7171 27.1583 25.7223 27.0972 25.7069C27.036 25.6744 26.9878 25.6218 26.9609 25.5579C26.6024 24.9315 26.0381 24.4486 25.3639 24.1912C24.8639 24.002 24.1874 24.003 23.9139 24.4618C23.7286 24.7716 23.8031 25.1628 23.8521 25.5206C23.9011 25.8785 23.8923 26.3049 23.609 26.5255C23.4524 26.6313 23.2702 26.693 23.0815 26.7039C22.2021 26.8192 21.3081 26.7317 20.4678 26.4481C20.1737 26.35 19.8746 26.0432 19.5638 26.1412C19.1462 26.2726 19.0491 26.85 18.9384 27.2059Z" fill="#B96B6B"/>
<g opacity="0.1">
<path opacity="0.1" d="M30.0787 25.8147L29.7728 26.0618C29.7728 26.0618 31.0366 30.7314 31.0866 32.5657C31.7317 32.3912 30.4905 27.3951 30.0787 25.8147Z" fill="black"/>
<path opacity="0.1" d="M48.1375 39.0147C46.3326 40.2785 44.3463 40.7294 44.7061 41.452C45.0659 42.1745 43.0816 37.9314 38.5679 37.2098C34.3336 36.5324 29.7022 33.7098 29.2198 32.0961C28.5433 31.5176 28.0512 31.0265 28.0512 31.0265C27.6904 31.4774 28.9992 32.5157 28.9992 32.5157C28.909 34.05 33.8738 37.2098 38.3865 37.9314C42.8993 38.653 44.8855 42.8961 44.5248 42.1736C44.164 41.451 46.1493 40.9971 47.9561 39.7363C48.4728 39.3745 48.7748 38.6284 48.9434 37.7471C48.7689 38.3049 48.5101 38.7569 48.1375 39.0147Z" fill="black"/>
</g>
<path d="M39.0257 47.6804C38.7551 48.0412 38.5747 51.7422 38.5747 51.7422C38.5747 51.7422 39.6532 57.0677 36.3198 56.5265C32.9864 55.9853 35.8688 52.1941 35.8688 52.1941L35.4178 46.9588C33.7031 42.449 34.0639 39.1961 34.0639 39.1961L33.7433 36.248L33.6119 35.0441L37.4933 34.1412C37.3875 34.2824 37.4326 35.1627 37.5277 36.1853C37.6757 37.7873 37.9443 39.7373 37.9443 39.7373C38.7541 40.6392 39.2963 47.3186 39.0257 47.6804Z" fill="#FFB9B9"/>
<path opacity="0.1" d="M33.5186 26.0167C33.5186 26.0167 29.5471 26.1069 32.7059 32.6961C32.7059 32.6961 33.5186 35.4039 33.5186 35.8559C33.5186 36.3079 37.5804 36.3069 38.0284 35.8559C38.4765 35.4049 37.3059 31.7039 37.3059 29.9882C37.3059 28.2726 36.1363 25.4745 33.5186 26.0167Z" fill="black"/>
<path opacity="0.1" d="M37.5243 36.1853C36.6812 36.4156 34.6145 36.4362 33.739 36.248L33.6077 35.0441L37.489 34.1412C37.3851 34.2814 37.4302 35.1617 37.5243 36.1853Z" fill="black"/>
<path d="M33.3381 26.0167C33.3381 26.0167 29.3665 26.1069 32.5254 32.6961C32.5254 32.6961 33.3381 35.4039 33.3381 35.8559C33.3381 36.3079 37.3999 36.3069 37.8479 35.8559C38.296 35.4049 37.1254 31.7039 37.1254 29.9882C37.1254 28.2726 35.9558 25.4745 33.3381 26.0167Z" fill="#CBCDDA"/>
<g opacity="0.5">
<path opacity="0.5" d="M7.3568 40.1465L4.4823 40.2053L4.01367 40.8504V43.0799L4.59995 43.4906H7.3568L7.94406 42.8455V40.7337L7.3568 40.1465Z" fill="#FF0F00"/>
<path opacity="0.2" d="M7.29895 40.499C7.29895 40.499 4.65875 40.9097 4.42444 40.499L4.48326 40.2049L7.29895 40.1461V40.499Z" fill="white"/>
<path opacity="0.5" d="M7.59204 46.6L8.06165 47.0696V49.299L7.59204 49.7686C7.59204 49.7686 5.89106 50.3568 4.77636 49.8862L4.24792 49.3578V47.1284L4.71753 46.6H7.59204Z" fill="#FF0F00"/>
<path opacity="0.2" d="M7.47439 47.1284C7.47439 47.1284 5.42145 47.5981 4.71753 47.1284V46.6H7.59204L7.47439 47.1284Z" fill="white"/>
<path opacity="0.5" d="M6.47729 43.4754V46.649C6.47044 46.7747 6.41411 46.8926 6.32061 46.9769C6.2271 47.0612 6.10403 47.1051 5.97827 47.0989C5.85251 47.1051 5.72943 47.0612 5.63593 46.9769C5.54242 46.8926 5.48609 46.7747 5.47925 46.649V43.4754C5.47925 43.2058 5.74003 42.997 6.03611 43.0284C6.15187 43.0353 6.26098 43.0848 6.34244 43.1673C6.42389 43.2499 6.47193 43.3596 6.47729 43.4754Z" fill="#FF0F00"/>
<path opacity="0.5" d="M11.9607 40.2372L9.08619 40.2961L8.61658 40.9412V43.1706L9.20383 43.5814H11.9607L12.547 42.9363V40.8245L11.9607 40.2372Z" fill="#FF0F00"/>
<path opacity="0.2" d="M11.9019 40.5902C11.9019 40.5902 9.26166 41.0009 9.02734 40.5902L9.08617 40.2961L11.9019 40.2372V40.5902Z" fill="white"/>
<path opacity="0.5" d="M12.1949 46.6912L12.6646 47.1608V49.3902L12.1949 49.8597C12.1949 49.8597 10.494 50.448 9.37926 49.9774L8.85083 49.449V47.2187L9.32044 46.6902L12.1949 46.6912Z" fill="#FF0F00"/>
<path opacity="0.2" d="M12.0783 47.2186C12.0783 47.2186 10.0253 47.6881 9.32141 47.2186V46.6902H12.1959L12.0783 47.2186Z" fill="white"/>
<path opacity="0.5" d="M11.0785 43.5656V46.7392C11.0716 46.865 11.0153 46.9829 10.9218 47.0672C10.8283 47.1515 10.7052 47.1954 10.5795 47.1892C10.4537 47.1954 10.3306 47.1515 10.2371 47.0672C10.1436 46.9829 10.0873 46.865 10.0804 46.7392V43.5656C10.0804 43.296 10.3412 43.0872 10.6373 43.1185C10.7531 43.1254 10.8622 43.1749 10.9436 43.2575C11.0251 43.34 11.0731 43.4498 11.0785 43.5656Z" fill="#FF0F00"/>
<path opacity="0.5" d="M17.8214 41.9352L15.4548 41.9832L15.0685 42.5146V44.35L15.5518 44.6873H17.8214L18.3038 44.1559V42.4176L17.8214 41.9352Z" fill="#FF0F00"/>
<path opacity="0.2" d="M17.7724 42.2245C17.7724 42.2245 15.5989 42.5627 15.4058 42.2245L15.4538 41.9833L17.7714 41.9353L17.7724 42.2245Z" fill="white"/>
<path opacity="0.5" d="M18.0147 47.247L18.4009 47.6333V49.4686L18.0147 49.8549C18.0147 49.8549 16.6147 50.3382 15.697 49.9529L15.2617 49.5186V47.6814L15.648 47.247H18.0147Z" fill="#FF0F00"/>
<path opacity="0.2" d="M17.9177 47.6813C17.9177 47.6813 16.2275 48.0676 15.6481 47.6813V47.247H18.0147L17.9177 47.6813Z" fill="white"/>
<path opacity="0.5" d="M17.0971 44.6745V47.2873C17.091 47.3905 17.0444 47.4871 16.9675 47.5561C16.8906 47.6251 16.7895 47.661 16.6863 47.6559C16.5827 47.661 16.4814 47.6248 16.4044 47.5554C16.3274 47.4859 16.2811 47.3888 16.2755 47.2853V44.6745C16.2789 44.6192 16.2939 44.5653 16.3193 44.5161C16.3448 44.467 16.3803 44.4237 16.4235 44.3891C16.4667 44.3545 16.5167 44.3293 16.5702 44.3151C16.6238 44.3009 16.6797 44.2981 16.7343 44.3068C16.8295 44.3125 16.9192 44.3532 16.9862 44.4211C17.0532 44.489 17.0927 44.5792 17.0971 44.6745Z" fill="#FF0F00"/>
<path opacity="0.5" d="M21.6108 42.0088L19.2442 42.0578L18.8579 42.5882V44.4236L19.3412 44.7618H21.6108L22.0942 44.2304V42.4922L21.6108 42.0088Z" fill="#FF0F00"/>
<path opacity="0.2" d="M21.5626 42.299C21.5626 42.299 19.3891 42.6372 19.1959 42.299L19.244 42.0578L21.5616 42.0098L21.5626 42.299Z" fill="white"/>
<path opacity="0.5" d="M21.804 47.3216L22.1902 47.7078V49.5431L21.804 49.9294C21.804 49.9294 20.404 50.4127 19.4863 50.0274L19.052 49.5931V47.7539L19.4383 47.3196L21.804 47.3216Z" fill="#FF0F00"/>
<path opacity="0.2" d="M21.7077 47.7539C21.7077 47.7539 20.0175 48.1401 19.4381 47.7539V47.3196H21.8038L21.7077 47.7539Z" fill="white"/>
<path opacity="0.5" d="M20.8824 44.749V47.3618C20.8768 47.4653 20.8304 47.5624 20.7535 47.6319C20.6765 47.7013 20.5751 47.7374 20.4716 47.7324C20.368 47.7374 20.2667 47.7013 20.1897 47.6319C20.1127 47.5624 20.0664 47.4653 20.0608 47.3618V44.749C20.0642 44.6937 20.0791 44.6398 20.1046 44.5907C20.1301 44.5415 20.1656 44.4982 20.2088 44.4636C20.252 44.429 20.302 44.4038 20.3555 44.3896C20.409 44.3755 20.4649 44.3726 20.5196 44.3814C20.6148 44.3871 20.7045 44.4278 20.7715 44.4956C20.8384 44.5635 20.8779 44.6538 20.8824 44.749Z" fill="#FF0F00"/>
</g>
<g opacity="0.8">
<path opacity="0.8" d="M11.4883 57.7539C11.4883 57.7539 10.0991 57.2833 9.42949 58.5078C9.25308 58.8397 9.16328 59.2108 9.16842 59.5866C9.17356 59.9624 9.27347 60.3309 9.4589 60.6578C9.89812 61.4519 10.803 62.4823 12.5177 62.3911C13.9726 62.3137 14.456 61.2029 14.5873 60.1706C14.6376 59.7833 14.5876 59.3897 14.4422 59.0273C14.2967 58.6649 14.0607 58.3459 13.7567 58.1009C13.4527 57.8558 13.0909 57.6929 12.7059 57.6277C12.3209 57.5624 11.9257 57.5971 11.5579 57.7284L11.4883 57.7539Z" fill="#FF0F00"/>
<path opacity="0.1" d="M9.754 60.7667C9.56857 60.4398 9.46866 60.0713 9.46352 59.6955C9.45838 59.3196 9.54817 58.9486 9.72459 58.6167C10.3932 57.3921 11.7834 57.8627 11.7834 57.8627L11.855 57.8372C12.3846 57.6456 12.9667 57.6585 13.4873 57.8735C13.1998 57.702 12.8777 57.5964 12.5443 57.5646C12.211 57.5327 11.8747 57.5753 11.5599 57.6892L11.4883 57.7147C11.4883 57.7147 10.0991 57.2441 9.42949 58.4686C9.25308 58.8005 9.16328 59.1716 9.16842 59.5474C9.17356 59.9233 9.27347 60.2917 9.4589 60.6187C9.75302 61.1412 10.2432 61.7658 11.0275 62.106C10.4889 61.7839 10.0486 61.3208 9.754 60.7667Z" fill="white"/>
<path opacity="0.2" d="M10.7706 58.3421C10.7706 58.3421 11.2853 58.747 12.5353 58.3421H10.7706Z" fill="black"/>
<path opacity="0.8" d="M10.6609 55.401C10.6609 55.401 11.5432 57.7931 11.4707 58.4186L12.1697 58.3451C12.1697 58.3451 10.9932 56.248 11.2874 55.4039L10.6609 55.401Z" fill="#FF0F00"/>
<path opacity="0.2" d="M10.6609 55.401C10.6609 55.401 11.5432 57.7931 11.4707 58.4186L12.1697 58.3451C12.1697 58.3451 10.9932 56.248 11.2874 55.4039L10.6609 55.401Z" fill="black"/>
<path opacity="0.8" d="M14.2648 55.5971C14.2648 55.5971 12.8746 54.8863 12.253 55.4735C11.6315 56.0608 11.5354 57.5618 11.5354 57.5618C11.5354 57.5618 13.8021 57.8745 14.2648 55.5971Z" fill="#FF0F00"/>
<path opacity="0.1" d="M14.2648 55.5971C14.2648 55.5971 12.8746 54.8863 12.253 55.4735C11.6315 56.0608 11.5354 57.5618 11.5354 57.5618C11.5354 57.5618 13.8021 57.8745 14.2648 55.5971Z" fill="white"/>
<path opacity="0.8" d="M11.5354 57.5578C11.5354 57.5578 11.9001 55.8157 14.2648 55.5971" stroke="#FF0F00" stroke-miterlimit="10"/>
</g>
<path d="M17.3529 59.9196C17.3529 59.9196 15.9637 59.449 15.2941 60.6736C15.1177 61.0055 15.0279 61.3765 15.033 61.7523C15.0382 62.1282 15.1381 62.4966 15.3235 62.8236C15.7627 63.6177 16.6676 64.6481 18.3823 64.557C19.8372 64.4795 20.3206 63.3687 20.4519 62.3363C20.5022 61.9491 20.4522 61.5554 20.3068 61.1931C20.1614 60.8307 19.9254 60.5117 19.6214 60.2666C19.3174 60.0215 18.9556 59.8586 18.5706 59.7934C18.1856 59.7281 17.7903 59.7628 17.4225 59.8941L17.3529 59.9196Z" fill="#FF0F00"/>
<path opacity="0.1" d="M15.6214 62.9333C15.436 62.6064 15.3361 62.2379 15.331 61.8621C15.3258 61.4863 15.4156 61.1152 15.592 60.7833C16.2607 59.5588 17.6509 60.0294 17.6509 60.0294L17.7224 60.0039C18.2521 59.8123 18.8342 59.8252 19.3548 60.0402C19.0672 59.8687 18.7451 59.7631 18.4118 59.7313C18.0785 59.6994 17.7422 59.742 17.4273 59.8559L17.3558 59.8814C17.3558 59.8814 15.9665 59.4108 15.2969 60.6353C15.1205 60.9672 15.0307 61.3382 15.0359 61.7141C15.041 62.0899 15.1409 62.4583 15.3263 62.7853C15.6205 63.3078 16.1107 63.9323 16.895 64.2725C16.3564 63.9505 15.916 63.4874 15.6214 62.9333Z" fill="white"/>
<path opacity="0.2" d="M16.6383 60.5078C16.6383 60.5078 17.153 60.9127 18.403 60.5078H16.6383Z" fill="black"/>
<path d="M16.5276 57.5647C16.5276 57.5647 17.4099 59.9569 17.3374 60.5823L18.0364 60.5088C18.0364 60.5088 16.8599 58.4118 17.1541 57.5676L16.5276 57.5647Z" fill="#FF0F00"/>
<path opacity="0.2" d="M16.5276 57.5647C16.5276 57.5647 17.4099 59.9569 17.3374 60.5823L18.0364 60.5088C18.0364 60.5088 16.8599 58.4118 17.1541 57.5676L16.5276 57.5647Z" fill="black"/>
<path d="M20.1324 57.7637C20.1324 57.7637 18.7422 57.053 18.1206 57.6402C17.499 58.2274 17.403 59.7283 17.403 59.7283C17.403 59.7283 19.6696 60.0401 20.1324 57.7637Z" fill="#FF0F00"/>
<path opacity="0.1" d="M20.1324 57.7637C20.1324 57.7637 18.7422 57.053 18.1206 57.6402C17.499 58.2274 17.403 59.7283 17.403 59.7283C17.403 59.7283 19.6696 60.0401 20.1324 57.7637Z" fill="white"/>
<path d="M17.403 59.7284C17.403 59.7284 17.7677 57.9863 20.1324 57.7676" stroke="#FF0F00" stroke-miterlimit="10"/>
<path d="M6.17644 54.2412C6.17644 54.2412 6.31271 54.0892 6.05683 54.0284V53.7784H6.21075C6.21063 53.4762 6.10677 53.1832 5.91655 52.9484C5.72633 52.7135 5.46126 52.5511 5.16566 52.4882V52.1853H5.20585V51.7931H4.21566V52.1853H4.24409V52.4922C3.9524 52.5584 3.69187 52.7217 3.50519 52.9554C3.31851 53.1891 3.21677 53.4793 3.21664 53.7784H3.35389V54.0186C3.35389 54.0186 3.0284 54.1725 3.35389 54.4471C3.67938 54.7216 3.6284 54.9265 3.6284 54.9265C3.6284 54.9265 3.49115 55.4402 3.21762 55.5088V60.2882C3.21762 60.5698 3.32948 60.8399 3.5286 61.039C3.72772 61.2381 3.99778 61.35 4.27938 61.35H5.1186C5.39935 61.349 5.66825 61.2368 5.8665 61.038C6.06474 60.8392 6.17618 60.57 6.17644 60.2892V55.5088C6.17644 55.5088 5.69703 55.149 5.78428 54.9265C5.89808 54.6888 6.02915 54.4597 6.17644 54.2412Z" fill="#FF0F00"/>
</g>
<defs>
<clipPath id="clip0">
<rect width="100" height="65.5078" fill="white"/>
</clipPath>
</defs>
</svg>
