<svg id="Layer_1" data-name="Layer 1" xmlns="http://www.w3.org/2000/svg" xmlns:xlink="http://www.w3.org/1999/xlink" viewBox="0 0 8.83 8.83"><defs><style>.cls-1{fill:#fae4d9;}.cls-2{fill:#2a878d;}.cls-3{fill:#444;}.cls-4{fill:#195054;}.cls-5{fill:#1d1d1b;}.cls-6{clip-path:url(#clip-path);}.cls-7{fill:#601905;}.cls-8{fill:#e0022c;}.cls-9{fill:#ff4c3b;}.cls-10{fill:#f7995e;}.cls-11{fill:#f7b185;}.cls-12{fill:#fa966a;}.cls-13{fill:#db7d53;}.cls-14{fill:#f7904f;}.cls-15{fill:#782417;}.cls-16,.cls-23{fill:#fff;}.cls-17{fill:#f24445;}.cls-18{fill:#884533;}.cls-19{fill:#6f4237;}.cls-20{fill:#edeeee;opacity:0.7;}.cls-21{fill:#62341e;}.cls-22{fill:#703724;}.cls-23{opacity:0.4;}.cls-24{opacity:0.29;}.cls-25{fill:#f7701b;}.cls-26{clip-path:url(#clip-path-2);}.cls-27{isolation:isolate;}.cls-28{clip-path:url(#clip-path-3);}.cls-29{clip-path:url(#clip-path-4);}.cls-30{clip-path:url(#clip-path-5);}.cls-31{fill:#bababa;}.cls-32{fill:#8c8c8c;}</style><clipPath id="clip-path"><circle class="cls-1" cx="4.41" cy="4.41" r="4.41"/></clipPath><clipPath id="clip-path-2"><path class="cls-2" d="M6.5,3.5l-.19,0H6.19l.2,0Z"/></clipPath><clipPath id="clip-path-3"><path class="cls-3" d="M6,3.57l.18-.1a2.74,2.74,0,0,0-2-2.8L4,.77A2.74,2.74,0,0,1,6,3.57Z"/></clipPath><clipPath id="clip-path-4"><path class="cls-4" d="M6.24,3.29l-.2,0H5.88l.2,0A.29.29,0,0,1,6.24,3.29Z"/></clipPath><clipPath id="clip-path-5"><path class="cls-5" d="M5.77,5l.2,0c-.25,0-.44-.34-.45-.74a1,1,0,0,1,.56-1l-.2,0a1,1,0,0,0-.56,1C5.33,4.7,5.52,5,5.77,5Z"/></clipPath></defs><title>Artboard 13-600</title><circle class="cls-1" cx="4.41" cy="4.41" r="4.41"/><g class="cls-6"><path class="cls-7" d="M2,2.13S1.82,3.31,1.81,3.4A7,7,0,0,0,2,4.69a4.79,4.79,0,0,1-.39,2.58S3,7.88,3.55,7,2.3,2.37,2,2.13Z"/><path class="cls-8" d="M3.79,8.39a11.35,11.35,0,0,1-.68,1.14,6.87,6.87,0,0,0-.45.9H1A12.13,12.13,0,0,1,2.27,7.79a.42.42,0,0,1,.16-.13l0,0,.55.1.32.06L4,7.91s0,.08,0,.22S3.83,8.3,3.79,8.39Z"/><path class="cls-9" d="M1.67,10.43a1.13,1.13,0,0,1,.08-.22,3.86,3.86,0,0,0,.39-1c0-.24.22-1.43.22-1.43.23,4.08,4.08,1.64,4.08,1.64a1.36,1.36,0,0,1-.08,1Z"/><path class="cls-9" d="M4.13,10.43H3.21a.63.63,0,0,1-.43-.24,4.85,4.85,0,0,1-.35-2.54s1-.39,1-.39l2.8-.1a2.86,2.86,0,0,1,1,.31c.36.24-.81,2.4-.81,2.4A12.6,12.6,0,0,1,4.13,10.43Z"/><path class="cls-7" d="M5.9,4.57s.48,1.42-.24,2A17.72,17.72,0,0,1,3.29,7.87L3.12,5.45Z"/><path class="cls-10" d="M4,8.42a1.22,1.22,0,0,0,.33,0A1.13,1.13,0,0,0,4.86,7a2.17,2.17,0,0,1,.32-1.19L5.4,6c.14-.43.33-.82.33-.93l-1.85.85a.72.72,0,0,1,.18.64c-.07.41-.83.82-.83.82A.91.91,0,0,0,4,8.42Z"/><path class="cls-11" d="M2.09,2.84a7.87,7.87,0,0,1,0,1.68c-.06.39.8,1.34,1.12,2a.47.47,0,0,0,.51.2L4,6.61C6.1,5.93,5.4,3.07,5.4,3.07a.53.53,0,0,1,.39-.18c-.1-.7-.24-1-.43-1s-2.31-.53-2.66,0a4.13,4.13,0,0,1-.47.58A.38.38,0,0,0,2.09,2.84Z"/><path class="cls-12" d="M3.1,4A2.53,2.53,0,0,1,3,4.61a2.45,2.45,0,0,0-.12.31A.13.13,0,0,0,3,5.09a.73.73,0,0,0,.25.07c.35-.09.48,0,.49-.13s-.08-.21-.29-.12a2.24,2.24,0,0,0-.15-.56A2.55,2.55,0,0,1,3.1,4Z"/><path class="cls-13" d="M4.29,8.41A3.43,3.43,0,0,0,5.9,7.18c-.79,0-.61-.82-.41-1.47l-.35-.07a2.5,2.5,0,0,0-.34,1.3A1.16,1.16,0,0,1,4.29,8.41Z"/><path class="cls-14" d="M3.69,6.69h.1C4.56,6.51,5.94,6,5.9,4.57c0-.72-.06-1.27-.11-1.68a.53.53,0,0,0-.39.18S6,5.93,3.88,6.62Z"/><path class="cls-7" d="M5.85,1.84a5.3,5.3,0,0,1-1.25.44l-.22,0L4.27,2l-.08-.22C4.26,1.31,5.35,1.66,5.85,1.84Z"/><path class="cls-7" d="M6.09,3.85a.46.46,0,0,0-.23-.18c-.28-.11-.65-.08-.84-.16a1,1,0,0,1-.3-.42A.76.76,0,0,1,5,2.58c.19-.19.55-.29,1.21-.11C6.21,3.12,6.24,4.08,6.09,3.85Z"/><path class="cls-7" d="M5.85,1.84a5.46,5.46,0,0,1-1.25.44L4.29,2h0A2.14,2.14,0,0,0,1.81,3.41a2.66,2.66,0,0,1,.49-2,4.07,4.07,0,0,1,3.61-.37,1.09,1.09,0,0,1,.54.45A6.23,6.23,0,0,1,5.85,1.84Z"/><path class="cls-7" d="M7.5,4.35A1.4,1.4,0,0,1,5.81,5a2.53,2.53,0,0,0,.05-1.3,1.6,1.6,0,0,0-.1-.23A4.54,4.54,0,0,0,5,2.58c.19-.19.55-.29,1.21-.11a5.2,5.2,0,0,1,1,.37A10.44,10.44,0,0,1,7.5,4.35Z"/><path class="cls-7" d="M7.51,6.37c-.45,1.5-2.94,1.31-2.94,1.31a12.89,12.89,0,0,0,.72-1.33A2,2,0,0,1,7.51,6.37Z"/><path class="cls-15" d="M7.55,6.21c0,.06,0,.11,0,.16a2,2,0,0,0-2.22,0A8.16,8.16,0,0,0,5.81,5,1.4,1.4,0,0,0,7.5,4.35,5.91,5.91,0,0,1,7.55,6.21Z"/><path class="cls-15" d="M5,2.58a.76.76,0,0,0-.23.51c-.12-.23-.24-.53-.34-.78l.22,0Z"/><path class="cls-15" d="M6.16,2.47c-.66-.18-1-.08-1.21.11l-.35-.3a5.46,5.46,0,0,0,1.25-.44l.24.09A2.14,2.14,0,0,1,6.16,2.47Z"/><path class="cls-15" d="M7.11,2.84a5.2,5.2,0,0,0-1-.37,2.14,2.14,0,0,0-.07-.54l-.24-.09a6.23,6.23,0,0,0,.6-.33A5.49,5.49,0,0,1,7.11,2.84Z"/><path class="cls-16" d="M3.06,5.59l.15.29L3.35,6l.52-.11.19-.18a.88.88,0,0,0,.08-.27s-.06,0-.13,0Z"/><path class="cls-17" d="M3.21,5.88a.2.2,0,0,0,0,.18c.09.12.69.08.83-.38A1.07,1.07,0,0,1,3.39,6C3.23,5.93,3.21,5.88,3.21,5.88Z"/><path class="cls-16" d="M4.71,3.72a.64.64,0,0,1-.53.48.9.9,0,0,1-.57-.26l.11-.13a.67.67,0,0,1,.42-.24A.71.71,0,0,1,4.71,3.72Z"/><path class="cls-18" d="M3.8,4a.3.3,0,0,0,.27.32A.3.3,0,0,0,4.39,4a.29.29,0,0,0-.27-.31A.29.29,0,0,0,3.8,4Z"/><path class="cls-19" d="M4,4a.12.12,0,0,0,.12.13A.12.12,0,0,0,4.23,4a.12.12,0,0,0-.12-.13A.12.12,0,0,0,4,4Z"/><path class="cls-20" d="M4.26,4a.12.12,0,1,0,.12-.11A.11.11,0,0,0,4.26,4Z"/><path class="cls-21" d="M4.81,3.59l-.1.13a.71.71,0,0,0-.57-.15.67.67,0,0,0-.42.24l-.11.13S3.82,3.21,4.81,3.59Z"/><path class="cls-16" d="M2.17,4a.54.54,0,0,0,.45.36c.18,0,.29-.29.29-.29l-.09-.1a.41.41,0,0,0-.31-.17A.39.39,0,0,0,2.17,4Z"/><path class="cls-18" d="M2.73,4a.26.26,0,0,1-.13.31c-.11,0-.21-.06-.24-.2a.23.23,0,0,1,.13-.3C2.59,3.82,2.7,3.91,2.73,4Z"/><path class="cls-19" d="M2.62,4.1a.1.1,0,0,1-.06.12s-.09,0-.1-.08,0-.11,0-.12S2.6,4,2.62,4.1Z"/><path class="cls-20" d="M2.43,4.07a.09.09,0,0,1-.05.11s-.09,0-.1-.07,0-.11.05-.12A.09.09,0,0,1,2.43,4.07Z"/><path class="cls-21" d="M2.09,3.85,2.17,4a.39.39,0,0,1,.34-.2.41.41,0,0,1,.31.17l.09.1A.48.48,0,0,0,2.09,3.85Z"/><path class="cls-7" d="M2.09,3.27S2.55,3,2.69,3s0,.14,0,.14a4.65,4.65,0,0,0-.57.17C2.07,3.35,2.09,3.27,2.09,3.27Z"/><path class="cls-7" d="M3.79,2.91s0,.14,0,.13a2.76,2.76,0,0,1,.9,0c.07.08.1-.06-.06-.11A2.82,2.82,0,0,0,3.79,2.91Z"/><path class="cls-17" d="M3.09,5.62s0,0,0,0,.11-.14.17-.1.14,0,.18,0a.18.18,0,0,1,.21-.05.92.92,0,0,0,.52,0S4.06,5.62,3.09,5.62Z"/><path class="cls-9" d="M7.66,10.43H6.36c0-.29-.05-.58-.08-.85v0a4.11,4.11,0,0,1,.18-1.41c.08-.49.35-.72.53-.71a.41.41,0,0,1,.17,0h0A15.74,15.74,0,0,1,7.66,10.43Z"/><path class="cls-8" d="M7.66,10.43a15.74,15.74,0,0,0-.54-2.95h0a1.08,1.08,0,0,1,.37.4,6.75,6.75,0,0,1,.77,2.56Z"/><polygon class="cls-22" points="4.51 4.26 5.79 3.58 5.75 3.48 4.46 4.17 4.51 4.26"/><path class="cls-23" d="M3.4,4.27l0,.23a.14.14,0,0,0,.13.15l.78-.07a.15.15,0,0,0,.11-.16l0-.24a0,0,0,0,0,0,0l-1,.08S3.4,4.25,3.4,4.27Z"/><path class="cls-23" d="M1.88,4.4l0,.24A.13.13,0,0,0,2,4.78l.79-.07c.07,0,.11-.08.11-.16l0-.24a0,0,0,0,0,0,0l-1,.08A.05.05,0,0,0,1.88,4.4Z"/><g class="cls-24"><polygon class="cls-16" points="3.78 4.2 4.04 4.6 4.29 4.58 4.04 4.18 3.78 4.2"/><polygon class="cls-16" points="3.4 4.23 3.66 4.64 3.86 4.62 3.61 4.22 3.4 4.23"/></g><g class="cls-24"><polygon class="cls-16" points="2.27 4.33 2.53 4.74 2.78 4.71 2.53 4.31 2.27 4.33"/><polygon class="cls-16" points="1.89 4.37 2.15 4.77 2.35 4.75 2.1 4.35 1.89 4.37"/></g><path class="cls-22" d="M1.8,4.41l0,.23a.25.25,0,0,0,.05.16A.16.16,0,0,0,2,4.88l.79-.07c.1,0,.18-.11.18-.24a.35.35,0,0,1,.34,0c0,.13.11.22.21.21l.79-.07a.15.15,0,0,0,.12-.07.32.32,0,0,0,.06-.2l0-.24a.15.15,0,0,0-.08-.12h0l-1,.08c-.05,0-.1.07-.09.15v.13a.5.5,0,0,0-.34,0V4.31c0-.08-.06-.14-.12-.13l-1,.08a.06.06,0,0,0-.06,0A.16.16,0,0,0,1.8,4.41Zm1.6-.14a.05.05,0,0,1,0,0l1-.08a0,0,0,0,1,0,0l0,.24c0,.08,0,.16-.11.16l-.79.07a.13.13,0,0,1-.12-.14ZM1.88,4.4a.05.05,0,0,1,0,0l1-.08a0,0,0,0,1,0,0l0,.24c0,.08,0,.16-.11.16L2,4.78a.13.13,0,0,1-.12-.14Z"/><path class="cls-14" d="M5.58,3.87a.77.77,0,0,1,.31-.51c.14-.1.32-.17.46,0,.28.33.18,1.29-.35,1.42S5.49,4.38,5.58,3.87Z"/><path class="cls-25" d="M6.19,3.75c-.32,0-.47.34-.36.6s.32,0,.32,0-.29.14-.29-.22a.33.33,0,0,1,0-.15h0c0,.13.29,0,.29,0C6,4,5.94,4,5.93,3.91A.41.41,0,0,1,6.19,3.75Z"/><path class="cls-2" d="M6.5,3.5l-.19,0H6.19l.2,0Z"/><g class="cls-26"><g class="cls-27"><polygon class="cls-2" points="6.5 3.5 6.3 3.46 6.3 3.46 6.5 3.49 6.5 3.5"/><path class="cls-2" d="M6.5,3.49l-.2,0h0l.2,0Z"/><path class="cls-2" d="M6.47,3.49l-.2,0h0l.2,0Z"/><path class="cls-2" d="M6.44,3.49l-.2,0h0l.2,0Z"/><path class="cls-2" d="M6.42,3.49l-.2,0h0l.2,0Z"/><polygon class="cls-2" points="6.39 3.5 6.2 3.46 6.19 3.47 6.39 3.5 6.39 3.5"/></g></g><g class="cls-27"><path class="cls-3" d="M3.34.77A.76.76,0,0,0,3.06,1h0A1.4,1.4,0,0,1,4,.77l.18-.1A1.6,1.6,0,0,0,3.34.77Z"/><path class="cls-3" d="M6,3.57l.18-.1a2.74,2.74,0,0,0-2-2.8L4,.77A2.74,2.74,0,0,1,6,3.57Z"/><g class="cls-28"><g class="cls-27"><path class="cls-3" d="M6,3.57l.18-.1a3.3,3.3,0,0,0-.19-1.1l-.18.1A3.34,3.34,0,0,1,6,3.57Z"/><path class="cls-3" d="M5.76,2.47l.18-.1A3,3,0,0,0,5.76,2l-.18.1A3,3,0,0,1,5.76,2.47Z"/><path class="cls-3" d="M5.58,2.06,5.76,2a1.83,1.83,0,0,0-.18-.3l-.18.1A2.38,2.38,0,0,1,5.58,2.06Z"/><path class="cls-3" d="M5.4,1.76l.18-.1a2.35,2.35,0,0,0-.19-.25l-.18.1A2.35,2.35,0,0,1,5.4,1.76Z"/><path class="cls-3" d="M5.21,1.51l.18-.1a1.34,1.34,0,0,0-.2-.21L5,1.3A1.34,1.34,0,0,1,5.21,1.51Z"/><path class="cls-3" d="M5,1.3l.18-.1A1.92,1.92,0,0,0,5,1l-.18.1Z"/><path class="cls-3" d="M4.78,1.11,5,1a2.38,2.38,0,0,0-.3-.18l-.18.1Z"/><path class="cls-3" d="M4.48.93l.18-.1A1.78,1.78,0,0,0,4.15.67L4,.77A1.78,1.78,0,0,1,4.48.93Z"/></g></g><path class="cls-5" d="M3,1,3.31,1A1.86,1.86,0,0,1,4,.93,2.56,2.56,0,0,1,5.82,3.55l.13,0A2.74,2.74,0,0,0,4,.77h-.1a1.18,1.18,0,0,0-.76.17A.44.44,0,0,0,3,1Z"/></g><path class="cls-3" d="M2.54,6.31h.68a.31.31,0,0,1,0,.62H2.54a.31.31,0,0,1,0-.62Z"/><path class="cls-3" d="M3.35,6.68A2.7,2.7,0,0,0,5.86,4.86l-.12,0A2.55,2.55,0,0,1,3.35,6.56a.06.06,0,0,0-.06.06h0A.05.05,0,0,0,3.35,6.68Z"/><g class="cls-27"><g class="cls-27"><path class="cls-4" d="M6.24,3.29l-.2,0H5.88l.2,0A.29.29,0,0,1,6.24,3.29Z"/><g class="cls-29"><g class="cls-27"><polygon class="cls-4" points="6.24 3.29 6.04 3.26 6.03 3.26 6.23 3.29 6.24 3.29"/><path class="cls-4" d="M6.23,3.29l-.2,0H6l.2,0Z"/><path class="cls-4" d="M6.19,3.29l-.2,0H6l.2,0Z"/><path class="cls-4" d="M6.15,3.29l-.2,0h0l.2,0Z"/><path class="cls-4" d="M6.12,3.29l-.2,0h0l.2,0Z"/><polygon class="cls-4" points="6.09 3.3 5.89 3.26 5.88 3.26 6.08 3.3 6.09 3.3"/></g></g></g><g class="cls-27"><path class="cls-5" d="M5.77,5l.2,0c-.25,0-.44-.34-.45-.74a1,1,0,0,1,.56-1l-.2,0a1,1,0,0,0-.56,1C5.33,4.7,5.52,5,5.77,5Z"/><g class="cls-30"><g class="cls-27"><path class="cls-5" d="M6.08,3.3l-.2,0h0l.2,0Z"/><path class="cls-5" d="M6.06,3.3l-.2,0h0l.2,0Z"/><path class="cls-5" d="M6,3.31l-.2,0h0l.2,0Z"/><path class="cls-5" d="M6,3.32l-.2,0h0l.19,0Z"/><path class="cls-5" d="M6,3.33l-.19,0h0l.2,0Z"/><path class="cls-5" d="M6,3.35l-.2,0,0,0,.2,0Z"/><path class="cls-5" d="M5.94,3.36l-.2,0h0l.2,0Z"/><path class="cls-5" d="M5.91,3.38l-.2,0,0,0,.2,0Z"/><path class="cls-5" d="M5.89,3.4l-.2,0,0,0,.2,0Z"/><path class="cls-5" d="M5.87,3.42l-.2,0,0,0,.2,0Z"/><path class="cls-5" d="M5.84,3.44l-.2,0,0,0,.2,0Z"/><path class="cls-5" d="M5.82,3.46l-.2,0,0,0,.2,0Z"/><path class="cls-5" d="M5.79,3.49l-.2,0,0,0,.2,0Z"/><path class="cls-5" d="M5.77,3.52l-.2,0,0,0,.2,0Z"/><path class="cls-5" d="M5.74,3.56l-.2,0,0,0,.2,0Z"/><path class="cls-5" d="M5.71,3.6l-.2,0,0,.06.2,0Z"/><path class="cls-5" d="M5.68,3.65l-.2,0a.25.25,0,0,1,0,.07l.2,0S5.67,3.68,5.68,3.65Z"/><path class="cls-5" d="M5.64,3.73l-.2,0A1.31,1.31,0,0,0,5.35,4l.2,0A1.15,1.15,0,0,1,5.64,3.73Z"/><path class="cls-5" d="M5.55,4l-.2,0s0,0,0,.08l.2,0A.17.17,0,0,1,5.55,4Z"/><path class="cls-5" d="M5.54,4.08l-.2,0s0,0,0,.06l.2,0A.13.13,0,0,1,5.54,4.08Z"/><path class="cls-5" d="M5.53,4.14l-.2,0v0l.19,0A.09.09,0,0,0,5.53,4.14Z"/><path class="cls-5" d="M5.52,4.19l-.19,0v0l.2,0Z"/><path class="cls-5" d="M5.52,4.24l-.2,0v0l.2,0Z"/><path class="cls-5" d="M5.52,4.28l-.2,0v0h0l.2,0h0Z"/><path class="cls-5" d="M5.52,4.33l-.2,0v0l.2,0Z"/><path class="cls-5" d="M5.52,4.37l-.2,0v0l.2,0Z"/><path class="cls-5" d="M5.53,4.41l-.2,0v0l.2,0Z"/><path class="cls-5" d="M5.53,4.45l-.2,0v0l.19,0Z"/><path class="cls-5" d="M5.53,4.48l-.19,0v0l.2,0Z"/><path class="cls-5" d="M5.54,4.52l-.2,0v0l.2,0Z"/><path class="cls-5" d="M5.55,4.55l-.2,0v0l.2,0Z"/><path class="cls-5" d="M5.56,4.59l-.2,0v0l.19,0Z"/><path class="cls-5" d="M5.56,4.62l-.19,0v0l.19,0Z"/><path class="cls-5" d="M5.57,4.66l-.19,0v0l.2,0Z"/><path class="cls-5" d="M5.59,4.69l-.2,0v0l.2,0Z"/><path class="cls-5" d="M5.6,4.72l-.2,0,0,0,.2,0Z"/><path class="cls-5" d="M5.62,4.76l-.2,0,0,0,.19,0Z"/><path class="cls-5" d="M5.63,4.8l-.19,0a.05.05,0,0,0,0,0l.2,0Z"/><path class="cls-5" d="M5.66,4.84l-.2,0s0,0,0,0l.2,0Z"/><path class="cls-5" d="M5.68,4.88l-.2,0,0,0,.2,0A.1.1,0,0,0,5.68,4.88Z"/><path class="cls-5" d="M5.72,4.93l-.2,0A.47.47,0,0,0,5.77,5l.2,0A.4.4,0,0,1,5.72,4.93Z"/></g></g></g><path class="cls-3" d="M6.08,3.3a1,1,0,0,0-.56,1c0,.48.28.82.61.74a1,1,0,0,0,.56-1C6.67,3.55,6.4,3.22,6.08,3.3Z"/></g><path class="cls-31" d="M5.78,4.2a.62.62,0,0,0,.5.7.42.42,0,0,0,.3-.12h-.1a.62.62,0,0,1-.5-.7.76.76,0,0,1,.24-.54A.66.66,0,0,0,5.78,4.2Z"/><path class="cls-32" d="M6,4.09a.62.62,0,0,0,.5.7h.1a.76.76,0,0,0,.24-.54.61.61,0,0,0-.5-.7h-.1A.76.76,0,0,0,6,4.09Z"/></g></svg>