<svg id="Layer_1" data-name="Layer 1" xmlns="http://www.w3.org/2000/svg" xmlns:xlink="http://www.w3.org/1999/xlink" viewBox="0 0 8.77 8.77"><defs><style>.cls-1{fill:#fae4d9;}.cls-2{clip-path:url(#clip-path);}.cls-3{fill:#bfd9f2;}.cls-4{fill:#e2f2fc;}.cls-5{clip-path:url(#clip-path-2);}.cls-6{clip-path:url(#clip-path-3);}.cls-7{fill:#347c8a;}.cls-8{fill:#df806b;}.cls-9{fill:#0096b8;}.cls-10{fill:#45a4bc;}.cls-11{fill:#3c8ca1;}.cls-12{fill:#f7b185;}.cls-13{fill:#e29773;}.cls-14{fill:#fff;}.cls-15{fill:#66282d;}.cls-16{fill:#290800;}.cls-17{fill:#d57d55;}.cls-18{fill:#1d1d1b;}.cls-19{fill:#8a2905;}.cls-20{fill:#d65d54;}.cls-21{fill:#874533;}.cls-22{fill:#884533;}.cls-23{fill:#d74b45;}.cls-24{fill:#bc433c;}</style><clipPath id="clip-path"><path class="cls-1" d="M8.72-6.17A4.38,4.38,0,0,1,4.33-1.78,4.38,4.38,0,0,1,0-6.17a4.38,4.38,0,0,1,4.38-4.38A4.38,4.38,0,0,1,8.72-6.17Z"/></clipPath><clipPath id="clip-path-2"><circle class="cls-1" cx="-6.19" cy="-6.17" r="4.41"/></clipPath><clipPath id="clip-path-3"><path class="cls-1" d="M8.77,4.39A4.39,4.39,0,1,1,4.39,0,4.38,4.38,0,0,1,8.77,4.39Z"/></clipPath></defs><title>Artboard 10-600</title><path class="cls-1" d="M8.72-6.17A4.38,4.38,0,0,1,4.33-1.78,4.38,4.38,0,0,1,0-6.17a4.38,4.38,0,0,1,4.38-4.38A4.38,4.38,0,0,1,8.72-6.17Z"/><g class="cls-2"><path class="cls-3" d="M3.14.4,4.79-1.76s-.39-1.17-.93-.83A18.79,18.79,0,0,0,1.94.4Z"/><path class="cls-4" d="M7,.4a4.57,4.57,0,0,0,.26-1.55,2.26,2.26,0,0,0-1-1.77,2.41,2.41,0,0,0-.71-.33,1.8,1.8,0,0,0-1.19.08A1.52,1.52,0,0,0,4-2.95a1.29,1.29,0,0,0-.17.16l-.12.14A8.35,8.35,0,0,0,2.36.4ZM4.45-2.54h0c0,.09,0,.18,0,.25s-.16.27-.21.35A2.49,2.49,0,0,0,4.45-2.54Z"/><path class="cls-3" d="M6.94.4A4,4,0,0,0,7-1.92c-.65-.83-1.56-.74-1.63.83,0,.46-.06,1-.12,1.49Z"/></g><circle class="cls-1" cx="-6.19" cy="-6.17" r="4.41"/><path class="cls-1" d="M8.77,4.39A4.39,4.39,0,1,1,4.39,0,4.38,4.38,0,0,1,8.77,4.39Z"/><g class="cls-6"><path class="cls-1" d="M8.77,4.39A4.39,4.39,0,1,1,4.39,0,4.38,4.38,0,0,1,8.77,4.39Z"/><path class="cls-7" d="M5.33,6.64s.27-.44.58-.28l0,.37Z"/><path class="cls-8" d="M3.8,6.37a5.19,5.19,0,0,1,0,.67l.33.8S5.81,7.43,5.83,7a6,6,0,0,1,0-1.41C6,5.12,3.8,6.37,3.8,6.37Z"/><path class="cls-9" d="M3.34,10.5a4.21,4.21,0,0,0,.65-3A2.59,2.59,0,0,0,1.91,9.08c-.35.67-.56,1.13-.68,1.42Z"/><path class="cls-9" d="M6.56,10.16l.16.11v.23h.41l0-.3L7,10.08A18.78,18.78,0,0,0,6.17,7S6,7,5.75,7.09h0A19.22,19.22,0,0,1,6.56,10.16Z"/><path class="cls-10" d="M6.71,10.5v-.23l-.16-.11a30.62,30.62,0,0,0-.45-3.23l-.36.16a15.17,15.17,0,0,0-1.61.74l0-.12v0l-.14-.22H3.7l-.13.15,0,0,0,0A4.59,4.59,0,0,0,2.38,10.5Z"/><path class="cls-10" d="M4.37,7.48s-.14.06-.25.4l1.52-.71A4.77,4.77,0,0,0,4.37,7.48Z"/><path class="cls-11" d="M4.37,7.48s.55-.16.59.65c0,0,1.21-.94,1.21-1.17a1.49,1.49,0,0,0-.26-.6S5.87,6.87,4.37,7.48Z"/><path class="cls-10" d="M4,7.3l.16.54s-.19-.66-.7,0C3.44,7.83,3.76,7.25,4,7.3Z"/><path class="cls-12" d="M5.36,5.73c-.18.73-.8,1-1.6,1a.63.63,0,0,1-.46-.42c-.11-.34-.39-.92-.56-1.29a17.4,17.4,0,0,1-.19-2.56c.9-1.53,2-1.33,2.77-.87L4.69,2a1.12,1.12,0,0,0,.39.71C5.41,2.9,6,3.14,5.36,5.73Z"/><path class="cls-13" d="M6.24,4.54c-.18.82-.68,2.31-2.24,2.2a.67.67,0,0,1-.24,0c.8,0,1.42-.24,1.6-1,.68-2.59,0-2.83-.28-3A1.12,1.12,0,0,1,4.69,2l.63-.43a2.75,2.75,0,0,1,.85.77A3.92,3.92,0,0,1,6.24,4.54Z"/><path class="cls-14" d="M2.63,3.91a.3.3,0,0,0,.29.31.35.35,0,0,0,.41-.35Z"/><path class="cls-14" d="M4,3.84a.31.31,0,0,0,.32.28.52.52,0,0,0,.54-.38Z"/><path class="cls-15" d="M3.16,4A.18.18,0,0,1,3,4.22.2.2,0,0,1,2.81,4,.2.2,0,0,1,3,3.84.17.17,0,0,1,3.16,4Z"/><path class="cls-16" d="M3.08,4a.09.09,0,0,1-.08.1A.09.09,0,0,1,2.9,4,.1.1,0,0,1,3,3.93.11.11,0,0,1,3.08,4Z"/><path class="cls-15" d="M4.54,3.92a.17.17,0,0,1-.16.2A.19.19,0,0,1,4.19,4a.18.18,0,0,1,.16-.2A.17.17,0,0,1,4.54,3.92Z"/><path class="cls-16" d="M4.46,3.93a.09.09,0,1,1-.18,0,.09.09,0,0,1,.08-.1A.11.11,0,0,1,4.46,3.93Z"/><path class="cls-17" d="M2.63,3.91s.1-.31.23-.34.35-.07.47.3Z"/><path class="cls-17" d="M4,3.84a.36.36,0,0,1,.42-.4c.44,0,.44.3.44.3S4.14,3.81,4,3.84Z"/><polygon class="cls-18" points="3.93 3.79 4.01 3.84 4.87 3.74 4.86 3.71 3.93 3.79"/><polygon class="cls-18" points="2.63 3.91 2.58 3.87 3.3 3.84 3.33 3.87 2.63 3.91"/><path class="cls-19" d="M3.66.59C3.17.56,2,1.71,2,2.37a.86.86,0,0,1,1.3,0,7.72,7.72,0,0,1,2.46-.32c.33.11.66-.51.07-.88A4.76,4.76,0,0,0,3.66.59Z"/><path class="cls-19" d="M5.49,2.73s.62-.63,0-.94c0,0,1.16-1,1.38.65C7,3,6.19,4.17,6.19,4.17A3.22,3.22,0,0,0,5.49,2.73Z"/><path class="cls-19" d="M2.56,2.85c0-.16.2-.82.56-.88s-.85-.41-.91.23S2.56,2.85,2.56,2.85Z"/><path class="cls-20" d="M3.45,4.38c0,.08-.19.44-.12.54s.37.07.56,0,.2,0,.24,0,0-.24-.1-.25.11.1.07.18-.06,0-.22,0-.46.15-.51.05S3.45,4.38,3.45,4.38Z"/><path class="cls-20" d="M3.33,3.55a1.12,1.12,0,0,1,.11.85.92.92,0,0,0-.09-.87Z"/><path class="cls-21" d="M3.37,3.34v0s0,.17-.09.2-.53-.11-.75,0-.07-.13,0-.19S3.32,3.17,3.37,3.34Z"/><path class="cls-21" d="M3.94,3.1s0,.07,0,.08,0,.17.09.2.68-.17.9,0,.07-.15,0-.2S4,3,3.94,3.1Z"/><path class="cls-13" d="M6,3.92a1,1,0,0,1,.35-.8c.13-.13.3-.2.44,0a1,1,0,0,1-.29,1.31A.34.34,0,0,1,6,4.21,1.14,1.14,0,0,1,6,3.92Z"/><path class="cls-20" d="M6.55,3.34c-.24,0-.26.56-.26.56a1.53,1.53,0,0,1,.08-.31c0,.12,0,.39.2.44,0,0-.17-.1-.15-.51a.11.11,0,0,1,0-.07h0a.12.12,0,0,1,.09-.05c.19,0,.17.23.17.23S6.8,3.35,6.55,3.34Z"/><path class="cls-19" d="M5.67,4.38S6,3.2,5.49,2.73L6,2.87A5.66,5.66,0,0,1,6,4.21Z"/><path class="cls-20" d="M4.57,5.29a2,2,0,0,1-1,.31H3.5l-.16,0s0-.18,0-.17l0,.11h.17A2.2,2.2,0,0,0,4.57,5.29Z"/><path class="cls-20" d="M4.64,5.07s.13,0,.15.12a.3.3,0,0,1,0,.16s.08-.21,0-.26A.24.24,0,0,0,4.64,5.07Z"/><path class="cls-22" d="M4.65,5.58c0,.14,0,.16-.08.22s-.92.33-.94.21,0-.18,0-.26A2.07,2.07,0,0,0,4.65,5.58Z"/><path class="cls-14" d="M4.7,5.2a2.82,2.82,0,0,1,0,.38,2.07,2.07,0,0,1-1.06.17,1.3,1.3,0,0,0,0-.15,2,2,0,0,0,1-.31l0,0a.15.15,0,0,0,.06,0Z"/><path class="cls-23" d="M3.33,7.7,2.6,8.89l.34.32s.61-1.45.8-1.72A1.74,1.74,0,0,0,3.33,7.7Z"/><path class="cls-11" d="M3.81,6.81A1.13,1.13,0,0,0,4,7.3s-.54.4-.57.76a2,2,0,0,1,.09-.79,1,1,0,0,1,.31-.46Z"/><path class="cls-9" d="M8.36,10.5H9c-.11-.3-.3-.76-.62-1.45A3.34,3.34,0,0,0,6.75,7.23a4.74,4.74,0,0,1,1,1.65C8,9.48,8.19,10,8.36,10.5Z"/><path class="cls-10" d="M8.36,10.5c-.17-.47-.37-1-.6-1.62a4.74,4.74,0,0,0-1-1.65,1.67,1.67,0,0,0-.66-.16,5.25,5.25,0,0,0,.33,3.43Z"/><path class="cls-24" d="M4.6,10.5h.81c0-.42.1-.82.14-1.14A2.5,2.5,0,0,1,6,8.22c.28-.36.58-.78.52-1A.32.32,0,0,0,6.17,7c.2.44-1.36,2.2-1.36,2.2S4.72,9.7,4.6,10.5Z"/></g></svg>