<svg id="Layer_1" data-name="Layer 1" xmlns="http://www.w3.org/2000/svg" xmlns:xlink="http://www.w3.org/1999/xlink" viewBox="0 0 8.83 8.83"><defs><style>.cls-1{fill:#fae4d9;}.cls-2{clip-path:url(#clip-path);}.cls-3{fill:#3a261d;}.cls-4{fill:#281812;}.cls-5{fill:#53bc15;}.cls-6{fill:#ffb084;}.cls-7{fill:#e8996d;}.cls-8{fill:#f4a178;}.cls-9{fill:#4aa012;}.cls-10{fill:#e28b5e;}.cls-11{fill:#dd7858;}.cls-12{fill:#ea8c68;}.cls-13{fill:#fff;}.cls-14{fill:#4c342a;}.cls-15{fill:#4c2a19;}.cls-16{fill:#f29c70;}.cls-17{fill:#e58961;}.cls-18{fill:#f4a187;}.cls-19{clip-path:url(#clip-path-2);}</style><clipPath id="clip-path"><circle class="cls-1" cx="4.41" cy="4.41" r="4.41"/></clipPath><clipPath id="clip-path-2"><circle class="cls-1" cx="20.54" cy="7.92" r="9.88"/></clipPath></defs><title>Artboard 6-600</title><circle class="cls-1" cx="4.41" cy="4.41" r="4.41"/><g class="cls-2"><path class="cls-3" d="M6.72,4.61c-.22.46.48,2.45.23,2.45-2,.07-1.24-.48-1.74.29s-3,.23-3,.23A1.73,1.73,0,0,1,1.9,6.34c.05-.84.17-1.55.13-2S4.31,2.55,4.31,2.55L6.84,4Z"/><path class="cls-4" d="M2.38,4.55A3.81,3.81,0,0,0,2.6,6.17c.29.47,2.19.71,2.19.71l.6-.45s-.71-.38-.08-.66c.15-.07.63-.21.71-.39a1.93,1.93,0,0,0,.13-1C6.11,4.12,2.38,4.55,2.38,4.55Z"/><path class="cls-5" d="M3.25,9.77h3.9A3.55,3.55,0,0,1,6,7.41c0-.72-.56-1.13-1.51-1.13-.72,0-2,.7-1.92,1.42a4,4,0,0,0,.59,1.85A2.53,2.53,0,0,0,3.25,9.77Z"/><path class="cls-6" d="M3,9.77A9,9,0,0,1,2.88,8.1a.45.45,0,0,0-.9,0,10.25,10.25,0,0,0,.15,1.67Z"/><path class="cls-6" d="M8.72,7.93,8.59,8A21.13,21.13,0,0,1,6.11,6.87a.44.44,0,1,0-.52.72A24.59,24.59,0,0,0,8.45,8.91a.45.45,0,0,0,.16,0l.11,0Z"/><path class="cls-7" d="M8.72,8.48A1.26,1.26,0,0,1,8,8.29c-.15-.13-.12-.6-.12-.6l-.16-.06-.4.8c.71.31,1,.42,1.16.48a.45.45,0,0,0,.16,0l.11,0Z"/><path class="cls-7" d="M2.53,9.77a15.16,15.16,0,0,1,0-2.11H2.43A.45.45,0,0,0,2,8.1a10.25,10.25,0,0,0,.15,1.67Z"/><path class="cls-5" d="M7.14,8.74l.57-1.15S6.26,7,5.18,6.38l-.89.71.52.37a15.62,15.62,0,0,0,1.76,1Z"/><path class="cls-5" d="M3,9l0-.64A6.32,6.32,0,0,1,3.43,7.1l.36-.72a3.42,3.42,0,0,0-1.16.44,3.16,3.16,0,0,0-.9,2.12Z"/><path class="cls-8" d="M3.76,6.43a2.15,2.15,0,0,1,.69-.15h.08a.78.78,0,0,1,0,.22.6.6,0,0,1-.6.59.59.59,0,0,1-.59-.59v0a3.6,3.6,0,0,1,.41-.1Z"/><path class="cls-9" d="M3.12,9.55a2.53,2.53,0,0,0,.13.22h3.9a3.89,3.89,0,0,1-1-1.54l.44.22.57.29.57-1.15s-1.19-.53-2.21-1a1.13,1.13,0,0,0-.27-.13l-.05,0h0l-.11,0c0,.73.39,3.2-.48,2.9S3.05,7,3,6.6a2.27,2.27,0,0,0-.41.22,3.16,3.16,0,0,0-.9,2.12L2.85,9A3.79,3.79,0,0,0,3.12,9.55Z"/><path class="cls-8" d="M5.44,4.23a.4.4,0,1,0,.39-.39A.39.39,0,0,0,5.44,4.23Z"/><path class="cls-8" d="M4,6.87a.32.32,0,0,0,.31-.3,2.45,2.45,0,0,1,.12-.85.32.32,0,0,0-.15-.41.32.32,0,0,0-.41.15,3.15,3.15,0,0,0-.18,1.09.32.32,0,0,0,.3.32Z"/><path class="cls-10" d="M3.74,5.81l.12-.17.49.27a2,2,0,0,0-.06.45H4.11a.8.8,0,0,1-.43-.08A4.46,4.46,0,0,1,3.74,5.81Z"/><path class="cls-8" d="M2,4.23a.38.38,0,0,0,.39.39.39.39,0,1,0,0-.78A.38.38,0,0,0,2,4.23Z"/><path class="cls-6" d="M5.78,2.61c0,.71,0,1.49,0,2S5.12,5.89,4.31,6.14s-1.56-.74-1.69-1a3.09,3.09,0,0,1-.33-1.58c0-.83-.11-2,1.31-2.18S5.79,2.08,5.78,2.61Z"/><path class="cls-8" d="M2.3,3.85a2.53,2.53,0,0,1,0-.28c0-.3,0-.65,0-1l.11-.43a1,1,0,0,1,.29-.43L5.51,2a1,1,0,0,1,.27.6c0,.35,0,.71,0,1.06a3.34,3.34,0,0,1-1.52-.33,3,3,0,0,1-1.06-1,1.57,1.57,0,0,1-.13,1A1.36,1.36,0,0,1,2.3,3.85Z"/><path d="M4.84,3.93H4.72s0-.52.32-.56.32.52.32.52l.17,0L5.25,4s0-.46-.17-.46S4.84,3.93,4.84,3.93Z"/><path class="cls-8" d="M2.81,5.14a2,2,0,0,0,1.46.77A2.17,2.17,0,0,0,5.62,4.7a2.27,2.27,0,0,0,0-1.09l.17-.13c0,.43,0,.84,0,1.17,0,.54-.71,1.24-1.52,1.49s-1.56-.74-1.69-1A2.74,2.74,0,0,1,2.3,3.87,5.11,5.11,0,0,0,2.81,5.14Z"/><path class="cls-11" d="M3.91,4.2c0,.25,0,.45.27.45s.3-.23.22-.47-.13-.45-.27-.45S3.94,4,3.91,4.2Z"/><path class="cls-12" d="M4,4.16c0,.24,0,.44.25.43s.27-.22.2-.45-.13-.44-.25-.43S4,3.92,4,4.16Z"/><path class="cls-13" d="M4.66,4.92a2.31,2.31,0,0,1-.52,0,2.37,2.37,0,0,1-.54,0s.12.54.55.54S4.66,4.92,4.66,4.92Z"/><path class="cls-12" d="M4.66,4.92a2.12,2.12,0,0,0-.53-.06,1.75,1.75,0,0,0-.53.07,1.46,1.46,0,0,0,.53.1A1.69,1.69,0,0,0,4.66,4.92Z"/><path class="cls-12" d="M4.66,4.92s-.11.59-.52.59-.54-.58-.54-.58.21.38.54.38S4.66,4.92,4.66,4.92Z"/><path class="cls-3" d="M2.87,1.75A1.4,1.4,0,0,1,4.36.49,2.9,2.9,0,0,1,7.13,2.92a3.18,3.18,0,0,1-.41,1.69,1.09,1.09,0,0,0-.8-.86A4.75,4.75,0,0,1,2.87,1.75Z"/><path class="cls-3" d="M2,4.06a2.74,2.74,0,0,0,1-1.24,1.47,1.47,0,0,0-.13-1.2s-.65-.27-1.09.64A1.91,1.91,0,0,0,2,4.06Z"/><path class="cls-14" d="M4.58,2.73A6,6,0,0,1,2.9,1.6a1.5,1.5,0,0,1,.22-.51A2.33,2.33,0,0,1,5.5,1a2.88,2.88,0,0,1,1.15,2A7.43,7.43,0,0,1,4.58,2.73Z"/><path class="cls-14" d="M2.78,1.88a2.06,2.06,0,0,1-.26,1.36c-.39.49-.5.52-.5.52S1.45,2.12,2.78,1.88Z"/><path class="cls-15" d="M3.12,3.2,3,3.12A.53.53,0,0,1,3.47,3l0,.11v0A.41.41,0,0,0,3.12,3.2Z"/><path class="cls-16" d="M5.13,4.39c0,.09.11.16.23.16s.24-.07.24-.16-.11-.16-.24-.16S5.13,4.3,5.13,4.39Z"/><path class="cls-16" d="M2.7,4.39c0,.09.1.16.23.16s.23-.07.23-.16-.1-.16-.23-.16S2.7,4.3,2.7,4.39Z"/><path class="cls-17" d="M5.94,4a.26.26,0,0,1,.14.21A.23.23,0,0,1,6,4.41.44.44,0,0,0,5.94,4Z"/><path class="cls-17" d="M2.24,4a.26.26,0,0,0-.14.21.23.23,0,0,0,.12.19A.48.48,0,0,1,2.24,4Z"/><path class="cls-18" d="M4.18,4.34c0-.06.18,0,.17,0S4.14,4.45,4.18,4.34Z"/><path d="M3.55,3.93h.11s0-.52-.31-.56S3,3.89,3,3.89l-.16,0L3.14,4s0-.46.17-.46S3.55,3.93,3.55,3.93Z"/></g><circle class="cls-1" cx="20.54" cy="7.92" r="9.88"/></svg>