<svg id="Layer_1" data-name="Layer 1" xmlns="http://www.w3.org/2000/svg" xmlns:xlink="http://www.w3.org/1999/xlink" viewBox="0 0 8.77 8.77"><defs><style>.cls-1{fill:#fae4d9;}.cls-2{clip-path:url(#clip-path);}.cls-3{fill:#cf5c3d;}.cls-4{fill:#e99176;}.cls-5{fill:#c37c61;}.cls-6{fill:#ffaa7d;}.cls-7{fill:#fff;}.cls-8{fill:#c96d3e;}.cls-9{fill:#e78572;}.cls-10{fill:#7d885b;}.cls-11{fill:#303c22;}.cls-12{fill:#df5540;}.cls-13{fill:#523f2f;}.cls-14{fill:#775c47;}.cls-15{fill:#ff6b3d;}.cls-16{fill:#ff643c;}.cls-17{fill:#d65d3c;}.cls-18{fill:#e83f3c;}.cls-19{fill:#f2edca;}.cls-20{fill:#e3c1a4;}</style><clipPath id="clip-path"><path class="cls-1" d="M8.77,4.39A4.39,4.39,0,1,1,4.39,0,4.38,4.38,0,0,1,8.77,4.39Z"/></clipPath></defs><title>Artboard 3-600</title><path class="cls-1" d="M8.77,4.39A4.39,4.39,0,1,1,4.39,0,4.38,4.38,0,0,1,8.77,4.39Z"/><g class="cls-2"><path class="cls-1" d="M8.77,4.39A4.39,4.39,0,1,1,4.39,0,4.38,4.38,0,0,1,8.77,4.39Z"/><path class="cls-3" d="M1.31,9.54a1.85,1.85,0,0,1,.49-.72A7.42,7.42,0,0,0,3.17,6.6S.9,8.15.73,8.81a5.69,5.69,0,0,1-.28.73Z"/><path class="cls-4" d="M5.83,4.15s.25,2-.68,2.81a6.85,6.85,0,0,1-1.35.85l-.14-.12c-.68-.87.28-2.32.28-2.32S5.05,2,4.6,1.17c0,0,1.34.4,1.6,2.62Z"/><path class="cls-5" d="M3.8,7.81A6.85,6.85,0,0,0,5.15,7c.93-.79.68-2.81.68-2.81l.37-.36c0,.25,0,.52,0,.81a2,2,0,0,0,.65,1.47C7.49,6.5,4.68,8.34,3.8,7.81Z"/><path class="cls-5" d="M3.36,1A2.06,2.06,0,0,1,6,1.92,1.84,1.84,0,0,1,5.7,4.48c0,.25-.17.72-.3.79s-.52-1-.52-1l.24-.78a.94.94,0,0,0-.28-.83A21.81,21.81,0,0,0,3.36,1Z"/><path class="cls-5" d="M5.29,2.89A12.59,12.59,0,0,1,5.4,5.27a3.08,3.08,0,0,1-1.31.83C3.64,6.2,4,4,4.33,3.55A2,2,0,0,1,5.29,2.89Z"/><path class="cls-6" d="M4.9,2.72a.8.8,0,0,1,.15.72c-.14.33-.53.63-.51.86,0,0,.07,1.52-.36,1.76a1.84,1.84,0,0,1-1.34.2,1.57,1.57,0,0,1-.71-1.6c.22-.78.14-.54,0-.77a.86.86,0,0,1,0-1.08C2.49,2.38,2.57,1,3.64,1S5,1.24,4.9,2.72Z"/><path class="cls-7" d="M3.48,3.09a.46.46,0,0,0,.45.27A.37.37,0,0,0,4.32,3Z"/><path class="cls-7" d="M2.67,3.09s-.2.36-.4-.11c0,0,0,0,.1,0l.07,0,.15.05.06,0Z"/><path class="cls-8" d="M4,4.58a3.4,3.4,0,0,0-.32-.74l0,0A2.21,2.21,0,0,1,4,4.58Z"/><path class="cls-8" d="M2.4,3.69a2.51,2.51,0,0,0-.09.83,3.88,3.88,0,0,1,.14-.79Z"/><path class="cls-8" d="M3.83,4.91a2.92,2.92,0,0,0-1.32,0A10.65,10.65,0,0,0,3.83,4.91Z"/><path class="cls-9" d="M5.63,2.75s.58-.68.83-.07a.8.8,0,0,1-.25,1c-.15.11-.5.52-.7.38S5.63,2.75,5.63,2.75Z"/><path class="cls-5" d="M5.71,3.06l.44-.24s.21.21.11.38a2.57,2.57,0,0,1-.42.46A3.48,3.48,0,0,0,5.71,3.06Z"/><path class="cls-10" d="M4.17,3.12A.21.21,0,0,1,4,3.33a.2.2,0,0,1-.2-.21.21.21,0,1,1,.41,0Z"/><path class="cls-11" d="M4.09,3.12A.12.12,0,0,1,4,3.24.12.12,0,0,1,4,3,.12.12,0,0,1,4.09,3.12Z"/><path class="cls-10" d="M2.65,3.08a.13.13,0,0,1-.14.11.14.14,0,0,1-.15-.14s0,0,0-.06l.07,0,.15.05Z"/><path class="cls-11" d="M2.59,3.06a.08.08,0,0,1-.08.07.09.09,0,0,1-.09-.08.05.05,0,0,1,0,0Z"/><path class="cls-12" d="M2.61,3.64s-.23-.06-.22.14a.79.79,0,0,0,.22.4Z"/><path class="cls-13" d="M4.71,3a10.24,10.24,0,0,1-1.38.22c-.14,0-.15-.26-.09-.29l0,0c0,.08,0,.2.13.21S4.33,3,4.66,2.9C4.7,2.93,4.72,3,4.71,3Z"/><path class="cls-14" d="M4.66,2.9c-.33.06-1.14.19-1.25.18S3.28,3,3.28,2.87A1.41,1.41,0,0,1,4.66,2.9Z"/><path class="cls-13" d="M2.78,3.13a.1.1,0,0,1-.14,0,1.2,1.2,0,0,0-.58-.22c-.13,0-.07-.14-.07-.14a.43.43,0,0,1,.22-.06l-.1,0s-.06.09.07.14a1.14,1.14,0,0,1,.57.22Z"/><path class="cls-14" d="M2.8,3.1l0,0,0,0a1.14,1.14,0,0,0-.57-.22c-.13-.05-.07-.14-.07-.14l.1,0A.63.63,0,0,1,2.8,3,.19.19,0,0,1,2.8,3.1Z"/><path class="cls-15" d="M2.88,2.91a1.93,1.93,0,0,0-.35,1.24s.17.29.42.12a.56.56,0,0,1,.48-.16c.2,0,.35-.33.19-.33a3.33,3.33,0,0,0-.46,0C3,3.81,2.85,3.09,2.88,2.91Z"/><path class="cls-14" d="M4.7,5.92a1.85,1.85,0,0,1-1,.47H3.52l-.61,0-.41,0c-.11,0-.39-.52-.37-.69s0-.36,0-.36a6.13,6.13,0,0,0,.41.78c.11.13.3-.1.21-.32S3,5.59,3,5.59a.65.65,0,0,0,.58.58h.08c.61,0,1.17-1,1.11-1.43C4.72,4.74,4.93,5.61,4.7,5.92Z"/><path class="cls-14" d="M4.72,4.74l.1,0a2.23,2.23,0,0,1,0,1c-.18.38-.33.14-.33.14s.34-.54.31-.71A4.11,4.11,0,0,1,4.72,4.74Z"/><path class="cls-5" d="M6.32,5.69A4.55,4.55,0,0,1,4.71,8.05h0l-.64,0c0-.08,0-.15,0-.23a4,4,0,0,0,2-1.7,2.08,2.08,0,0,0,.23-.48Z"/><path class="cls-5" d="M4.07,8.07H4a1.69,1.69,0,0,0,0-.23h.09C4.06,7.92,4.06,8,4.07,8.07Z"/><path class="cls-16" d="M8.37,9.54c0-.12.05-.24.07-.37A3.52,3.52,0,0,0,7.92,7L7,6.25,6.57,5.9l-.25-.21A4.55,4.55,0,0,1,4.71,8.05h0l-.64,0H4a1.69,1.69,0,0,0,0-.23.17.17,0,0,1-.13-.07,1.3,1.3,0,0,1-.41-.92h0a2.57,2.57,0,0,1,.07-.4c0-.05-.31.13-.32.16a3.4,3.4,0,0,1-.38.63C2.24,8,1.43,8.61,1.21,9.08c-.05.1-.12.26-.2.46Z"/><path class="cls-17" d="M6.57,5.9,7.92,7l1,.8a1.64,1.64,0,0,1,.54,1.77h.79A1.5,1.5,0,0,0,9.69,8L7.55,6.37c-.64-.92-1.36-1.49-1.26-1a.58.58,0,0,1,0,.34Z"/><path class="cls-16" d="M7.92,9.21a1.8,1.8,0,0,0-.41.33h2a1.64,1.64,0,0,0-.54-1.77l-1-.8L6.57,5.9l1.19,3Z"/><path class="cls-18" d="M7.23,7.38c-.37-.48-2.34.58-2.52.68h0A4.55,4.55,0,0,0,6.32,5.69a.92.92,0,0,0,0-.53A2.67,2.67,0,0,1,7,6.25a4.57,4.57,0,0,1,.28.8C7.4,7.58,7.23,7.38,7.23,7.38Z"/><path class="cls-19" d="M4.18,9.54C4.53,8.31,4,8.07,4,8.07H4v0c0,.15-.09.72-.22,1.42Z"/><path class="cls-18" d="M4,7.84a1.69,1.69,0,0,1,0,.23H4v0s0,.05,0,.07a1.64,1.64,0,0,0-1.14-1h0a3.31,3.31,0,0,0-.65,0,2.28,2.28,0,0,1,.81-.85l.61,0H3.7A4.59,4.59,0,0,1,4,7.84Z"/><path class="cls-20" d="M4.18,9.54h.07a5.4,5.4,0,0,0,.46-1.48h0l-.64,0H4S4.53,8.31,4.18,9.54Z"/></g></svg>