<svg id="Layer_1" data-name="Layer 1" xmlns="http://www.w3.org/2000/svg" xmlns:xlink="http://www.w3.org/1999/xlink" viewBox="0 0 8.83 8.83"><defs><style>.cls-1{fill:#fae4d9;}.cls-2{clip-path:url(#clip-path);}.cls-3{fill:#ffc348;}.cls-4{fill:#ef8f6a;}.cls-5{fill:#ffaf50;}.cls-6{fill:#cc3a17;}.cls-7{fill:#f9a17a;}.cls-8{fill:#d8430f;}.cls-9{fill:#c93017;}.cls-10{fill:#e27a5a;}.cls-11{fill:#fff;}.cls-12{fill:#e07e61;}.cls-13{fill:#e88660;}.cls-14{fill:#ef9073;}.cls-15{fill:#c17836;}.cls-16{fill:#72241e;}.cls-17{fill:#fcac8b;}.cls-18{fill:#ffce78;}.cls-19{fill:#e2481e;}</style><clipPath id="clip-path"><circle class="cls-1" cx="4.41" cy="4.41" r="4.41"/></clipPath></defs><title>Artboard 4-600</title><circle class="cls-1" cx="4.41" cy="4.41" r="4.41"/><g class="cls-2"><path class="cls-3" d="M6.12,5.32A2.58,2.58,0,1,1,3.54,2.74,2.58,2.58,0,0,1,6.12,5.32Z"/><path class="cls-3" d="M7.29,5.48A2.66,2.66,0,1,1,4.64,2.83,2.65,2.65,0,0,1,7.29,5.48Z"/><path class="cls-4" d="M5.78,9.85a.45.45,0,0,1-.32-.14L3.26,7.48a.46.46,0,0,1,0-.64.44.44,0,0,1,.63,0l2,2,2.8-1a.44.44,0,0,1,.57.26A.45.45,0,0,1,9,8.69L5.94,9.82A.45.45,0,0,1,5.78,9.85Z"/><path class="cls-5" d="M3.19,5.39a2,2,0,0,0,1.9,2.07A2,2,0,0,0,7,5.39,2,2,0,0,0,5.09,3.33,2,2,0,0,0,3.19,5.39Z"/><circle class="cls-5" cx="3.69" cy="5.68" r="1.84"/><path class="cls-6" d="M4.8,8.94a.59.59,0,0,1-.39-.16L3.19,7.54A.54.54,0,0,1,4,6.79L5.18,8a.54.54,0,0,1,0,.76A.5.5,0,0,1,4.8,8.94Z"/><path class="cls-7" d="M9.63,8.2A.56.56,0,0,1,9,8.69a.55.55,0,1,1,.61-.49Z"/><path class="cls-7" d="M8.78,8.1H8.72a.18.18,0,0,1-.12-.23,1.89,1.89,0,0,1,.67-1A.2.2,0,0,1,9.53,7a.19.19,0,0,1-.06.25A1.43,1.43,0,0,0,9,8,.19.19,0,0,1,8.78,8.1Z"/><path class="cls-4" d="M9.62,8.33l0,0a.78.78,0,0,1-.45-.12.82.82,0,0,1,0-1,1.1,1.1,0,0,1,.32-.29.2.2,0,0,0-.24-.05,1.89,1.89,0,0,0-.67,1v0a.53.53,0,0,0-.06.19A.54.54,0,0,0,9,8.69.57.57,0,0,0,9.62,8.33Z"/><path class="cls-8" d="M4.09,10.81A12.55,12.55,0,0,1,5,9.2a1.13,1.13,0,0,0-.18-1c-.24-.34-.77-1.37-1-1.49-.52-.23-1,.2-1.27.67a6,6,0,0,0-.8,2.71c0,.24-.05.49-.07.74Z"/><path class="cls-8" d="M5,8.94a1.24,1.24,0,0,1-1.21,1.28,1.29,1.29,0,0,1,0-2.57A1.25,1.25,0,0,1,5,8.94Z"/><path class="cls-7" d="M3.35,10.51a.42.42,0,0,0,.25.3h.51l2.68-.42a.45.45,0,0,0-.14-.88L4.12,9.9,3.59,7.69a.45.45,0,0,0-.54-.34.46.46,0,0,0-.33.54Z"/><path class="cls-9" d="M2.28,10.81c0-.37,0-.78.07-1.23.15-2.22,1-2.79,1-2.79l0-.15a1.52,1.52,0,0,0-.86.72,6,6,0,0,0-.8,2.71c0,.24-.05.49-.07.74Z"/><path class="cls-4" d="M3.64,7.15l-.13,0a.38.38,0,0,1-.23-.49l.51-1.46A.38.38,0,0,1,4.28,5a.39.39,0,0,1,.24.49L4,6.89A.4.4,0,0,1,3.64,7.15Z"/><path class="cls-3" d="M6.39,3.07c0,1.23-1.07.76-2.3.76-.6,0-1.08,1.22-1.48.83A2.23,2.23,0,0,1,4.17.84,2.22,2.22,0,0,1,6.39,3.07Z"/><circle class="cls-3" cx="5.34" cy="3.3" r="1.71"/><path class="cls-5" d="M3.71,3.75A1.52,1.52,0,1,0,5.23,2.23,1.52,1.52,0,0,0,3.71,3.75Z"/><path class="cls-7" d="M4.38,1.93c.77,0,1.56,0,1.71.44a8,8,0,0,1,.12,1.35c.07.38.47.76.3,1.17A3.41,3.41,0,0,1,5.3,6.28c-.48.25-1.2-.12-1.66-.39A2.87,2.87,0,0,1,2.79,3.7,1.56,1.56,0,0,1,4.38,1.93Z"/><path class="cls-4" d="M6.18,3.06a1.92,1.92,0,0,0-.09-.69C5.94,2,5.15,1.9,4.38,1.93A2,2,0,0,0,3.94,2a.09.09,0,0,0,0,0L3.83,2a1.55,1.55,0,0,0-1,1.67,2.6,2.6,0,0,0,0,.4,1.57,1.57,0,0,0,1-.34,1.51,1.51,0,0,0,.63-.95,2.39,2.39,0,0,0,.78.28A2.12,2.12,0,0,0,6.18,3.06Z"/><path class="cls-10" d="M3.68,5.49l-.31.9a1.51,1.51,0,0,1,.84-.09L4.33,6l-.06-.32Z"/><path class="cls-3" d="M6.81,2.07c-.14.79-.83.94-1.61.8S3.82,2.35,4,1.56a1.44,1.44,0,0,1,2.84.51Z"/><path class="cls-4" d="M5.64,6C5.15,6.23,4.46,5.8,4,5.49a2.82,2.82,0,0,1-.69-2.23A1.81,1.81,0,0,1,3.79,2a1.55,1.55,0,0,0-1,1.66,2.87,2.87,0,0,0,.85,2.19c.46.27,1.18.64,1.66.39A1.74,1.74,0,0,0,5.7,6Z"/><path class="cls-3" d="M4.31,2.08c.29.39.05,1-.52,1.47S2.52,4,2.23,3.62s-.06-1.05.52-1.47S4,1.69,4.31,2.08Z"/><path class="cls-4" d="M3.35,4.44c0,.25-.36.35-.61.32a.45.45,0,0,1-.4-.49.46.46,0,0,1,.49-.4A.64.64,0,0,1,3.35,4.44Z"/><path d="M4.75,4.1c0,.15-.06.28-.15.28s-.18-.11-.19-.26.06-.28.15-.29S4.74,3.94,4.75,4.1Z"/><path d="M6,4c0,.16,0,.28-.14.29S5.74,4.17,5.73,4s0-.28.14-.28S6,3.84,6,4Z"/><path class="cls-11" d="M4.66,4c0,.06,0,.11-.06.11s-.06,0-.07-.1,0-.12.06-.12S4.66,4,4.66,4Z"/><path class="cls-11" d="M6,3.91C6,4,5.93,4,5.9,4S5.84,4,5.84,3.92s0-.11,0-.11S6,3.85,6,3.91Z"/><path class="cls-12" d="M5.34,4.05c.15,0,.17.34.31.48S5.81,5,5.48,5,5,4.12,5.34,4.05Z"/><path class="cls-13" d="M5.35,4c.13,0,.2.25.32.38s.17.42-.12.46S5.07,4.11,5.35,4Z"/><path class="cls-14" d="M5.68,4.67s0,.06-.1.06-.09,0-.09-.06,0-.06.09-.06S5.68,4.63,5.68,4.67Z"/><path class="cls-15" d="M4.37,3.6l0-.14a1.06,1.06,0,0,0,.36-.14l.08.11A1.48,1.48,0,0,1,4.37,3.6Z"/><path class="cls-15" d="M6,3.6a.89.89,0,0,1-.3-.15l.08-.11A.51.51,0,0,0,6,3.46Z"/><path class="cls-16" d="M5.51,5.2a.34.34,0,0,0-.44.06c-.16.17-.16.43,0,.47a.31.31,0,0,0,.38-.18C5.52,5.44,5.57,5.26,5.51,5.2Z"/><path class="cls-4" d="M4.74,4.35a.73.73,0,0,1-.24.14,1.59,1.59,0,0,1-.33,0A.41.41,0,0,0,4.74,4.35Z"/><path class="cls-4" d="M5.79,4.27a.19.19,0,0,0,.07.14.2.2,0,0,0,.17,0S5.84,4.39,5.79,4.27Z"/><path class="cls-17" d="M4.54,4.79c0,.06-.09.12-.21.12s-.22,0-.22-.1.09-.12.21-.12S4.54,4.73,4.54,4.79Z"/><path class="cls-17" d="M6.35,4.59c0,.07-.07.12-.17.12A.16.16,0,0,1,6,4.61c0-.06.08-.12.17-.12S6.35,4.53,6.35,4.59Z"/><path class="cls-12" d="M2.93,4.14a.3.3,0,0,0-.34.1c-.1.19.15.34.15.34s-.16-.14,0-.28A.41.41,0,0,1,2.93,4.14Z"/><path class="cls-11" d="M3.08,4.75A.13.13,0,0,1,3,4.88a.13.13,0,1,1,0-.26A.13.13,0,0,1,3.08,4.75Z"/><path class="cls-11" d="M5.53,5.24l0,0a.34.34,0,0,0-.44.06h0a.39.39,0,0,0,.21,0A.38.38,0,0,0,5.53,5.24Z"/><path d="M4.46,4.06a.31.31,0,0,1-.17,0c-.06,0-.06-.08-.06-.08a.42.42,0,0,0,.14,0,.29.29,0,0,0,.14-.09Z"/><path d="M5.92,3.75l.09,0a.11.11,0,0,0,.07,0s0,.09-.08.11S5.92,3.75,5.92,3.75Z"/><path class="cls-18" d="M5.08,1.18a.79.79,0,0,0,.33,1.05A.77.77,0,0,0,6.47,2a.78.78,0,0,0-.32-1A.79.79,0,0,0,5.08,1.18Z"/><path class="cls-19" d="M3.4,9.35a.53.53,0,0,1-.52-.41l-.24-1A.53.53,0,0,1,3,7.27a.54.54,0,0,1,.65.39l.24,1a.53.53,0,0,1-.39.65Z"/></g></svg>