<svg id="Layer_1" data-name="Layer 1" xmlns="http://www.w3.org/2000/svg" xmlns:xlink="http://www.w3.org/1999/xlink" viewBox="0 0 8.77 8.77"><defs><style>.cls-1{fill:#fae4d9;}.cls-2{clip-path:url(#clip-path);}.cls-3{fill:#4fba82;}.cls-4{fill:#38a368;}.cls-5{clip-path:url(#clip-path-2);}.cls-6{fill:#dceaeb;}.cls-7{fill:#347c85;}.cls-8{fill:#e6a97b;}.cls-9{fill:#f0a57e;}.cls-10{fill:#613b1c;}.cls-11{fill:#d15d54;}.cls-12{fill:#d22f31;}.cls-13{fill:#91a39a;}.cls-14{fill:#91e0e4;}.cls-15,.cls-18{fill:#edeeee;}.cls-16{fill:#884533;}.cls-17{fill:#6f4237;}.cls-18{opacity:0.7;}.cls-19{fill:#e88a6b;}.cls-20{fill:#803723;}.cls-21{fill:#fff;}.cls-22{fill:#c2e8eb;}.cls-23{fill:#844a01;}</style><clipPath id="clip-path"><path class="cls-1" d="M8.83-6.17A4.42,4.42,0,0,1,4.41-1.75,4.42,4.42,0,0,1,0-6.17a4.42,4.42,0,0,1,4.41-4.41A4.42,4.42,0,0,1,8.83-6.17Z"/></clipPath><clipPath id="clip-path-2"><path class="cls-1" d="M8.77,4.39A4.39,4.39,0,1,1,4.39,0,4.38,4.38,0,0,1,8.77,4.39Z"/></clipPath></defs><title>Artboard 12-600</title><path class="cls-1" d="M8.83-6.17A4.42,4.42,0,0,1,4.41-1.75,4.42,4.42,0,0,1,0-6.17a4.42,4.42,0,0,1,4.41-4.41A4.42,4.42,0,0,1,8.83-6.17Z"/><g class="cls-2"><path class="cls-3" d="M6.23,1.56,6.4-1.68s-.65-1.8-.74-1.86a1.73,1.73,0,0,0-.33-.15l-.09.16c-.33.47-.85.65-1.49-.27l-.37.19s-.76,1.48-.76,1.48a29.68,29.68,0,0,0-.21,3.69Z"/><path class="cls-4" d="M6.23,1.56,6.06.24A1.42,1.42,0,0,1,4.35.07c-1-.9-.83-3.22-.76-3.79l-.21.11s-.76,1.48-.76,1.48a29.68,29.68,0,0,0-.21,3.69Z"/></g><path class="cls-1" d="M8.77,4.39A4.39,4.39,0,1,1,4.39,0,4.38,4.38,0,0,1,8.77,4.39Z"/><g class="cls-5"><path class="cls-6" d="M3.31,11.9l-.15-1.13.26-2.41.45-.5.27-.06.22.12,1.55-.28.31,0L7.29,8.8s.51,2.67.6,3.1Z"/><path class="cls-7" d="M5.84,7.15S4.7,7,4.22,7.44l.08.37L6,7.69A.79.79,0,0,0,5.84,7.15Z"/><path class="cls-8" d="M4.26,7.6a1.58,1.58,0,0,0,.1.29l.3.48h0c0-.3.16-.37.16-.37h0l.24-.16a5.22,5.22,0,0,0,.63-.48l0,0c-.2-.08-.12-1.15-.12-1.15l-1,0s0,.48-.1,1.13A.42.42,0,0,1,4.26,7.6Z"/><path class="cls-9" d="M6.1,2.35s.28,3.3,0,3.61S5,7.19,4.54,7.19s-.87.07-1-.16a7.53,7.53,0,0,0-.32-1.61.86.86,0,0,1-.11-.88,9.12,9.12,0,0,0,.09-1.73A2.43,2.43,0,0,1,6.1,2.35Z"/><path class="cls-10" d="M3.9,1.05a.32.32,0,0,1,0-.35c.28-.46,1.34.37,1.62.59A.71.71,0,0,1,5.25.82c0-.31,1.41,1.05,1.46,1.25a16.33,16.33,0,0,1-.54,2.1.78.78,0,0,1-.53-.91c.12-.7.2-.76-.73-.87s-1.82.77-1.67.21a.33.33,0,0,0,0-.14c-.38.08-.77.13-.9,0s.07-.22.32-.31c-.39-.12-.85-.26-1-.67C1.47.81,3.07.94,3.9,1.05Z"/><path class="cls-9" d="M6,4.37a1,1,0,0,1,.34-.81c.14-.13.31-.2.45,0a1,1,0,0,1-.3,1.32A.33.33,0,0,1,6,4.65,1.08,1.08,0,0,1,6,4.37Z"/><path class="cls-11" d="M6.55,3.78c-.24,0-.27.56-.27.56A1.86,1.86,0,0,1,6.37,4c0,.12,0,.38.2.44,0,0-.17-.1-.15-.52a.11.11,0,0,1,0-.07h0a.16.16,0,0,1,.1-.05c.19,0,.17.23.17.23S6.8,3.79,6.55,3.78Z"/><path class="cls-12" d="M5.42,8.12s-.27.55-.73.59S4.14,8,4.14,8h.23s0,.41.29.39S5.22,8,5.22,8Z"/><path class="cls-13" d="M4.66,8.41,5.2,8l.73-.51a7.48,7.48,0,0,0-.85.32L4.84,8h0s-.11.07-.16.37Z"/><path class="cls-14" d="M4.84,8A.36.36,0,0,1,5.2,8a.72.72,0,0,1,.26.47s.75-.65.72-.86l0-.08a1.56,1.56,0,0,0-.3-.42s0,.07-.14.22a5.22,5.22,0,0,1-.63.48Z"/><path class="cls-14" d="M4.06,8.69c0-.06-.08-.46.2-.57a.23.23,0,0,1,.25.05,2.07,2.07,0,0,1,.15.2l-.3-.48a1.58,1.58,0,0,1-.1-.29c0-.09,0-.16,0-.16A1,1,0,0,0,4,7.79,1.39,1.39,0,0,0,4.06,8.69Z"/><path class="cls-12" d="M4.64,8.39s.36.15.23.36a.42.42,0,0,1-.3.22.38.38,0,0,1-.21-.35C4.39,8.4,4.64,8.39,4.64,8.39Z"/><path class="cls-15" d="M4.64,4h.89a.44.44,0,0,1-.43.51C4.61,4.5,4.64,4,4.64,4Z"/><path class="cls-15" d="M3.24,4h.7a.37.37,0,0,1-.36.42C3.18,4.42,3.24,4,3.24,4Z"/><path class="cls-16" d="M3.82,4.16a.22.22,0,0,1-.22.22.23.23,0,1,1,.22-.22Z"/><path class="cls-17" d="M3.68,4.18a.09.09,0,0,1-.09.09.1.1,0,0,1-.1-.09.1.1,0,0,1,.1-.1A.09.09,0,0,1,3.68,4.18Z"/><circle class="cls-16" cx="5.09" cy="4.19" r="0.24"/><circle class="cls-17" cx="5.08" cy="4.21" r="0.1"/><path class="cls-18" d="M3.86,4.25a.09.09,0,0,1-.08.09.09.09,0,0,1-.09-.09.09.09,0,0,1,.09-.08A.09.09,0,0,1,3.86,4.25Z"/><path class="cls-18" d="M5.37,4.25a.08.08,0,1,1-.16,0,.08.08,0,0,1,.16,0Z"/><path class="cls-19" d="M3.24,4h.7a.36.36,0,0,0-.7,0Z"/><path class="cls-19" d="M5.53,4H4.64a.42.42,0,0,1,.43-.33A.43.43,0,0,1,5.53,4Z"/><path class="cls-10" d="M5.43,3.6s.2.16.25.08,0-.29-.3-.34-.77,0-.78.11,0,.17.1.17A1,1,0,0,1,5.43,3.6Z"/><path class="cls-10" d="M3.26,3.6s-.2.16-.24.08,0-.3.28-.34.75,0,.77.11,0,.17-.1.16A1,1,0,0,0,3.26,3.6Z"/><path class="cls-20" d="M4.89,5.71a.61.61,0,0,1-.71.53.61.61,0,0,1-.54-.55h.08l1.1,0Z"/><path class="cls-21" d="M4.82,5.71a.21.21,0,0,1-.09.19,2.38,2.38,0,0,1-.93,0,.26.26,0,0,1-.08-.19Z"/><path class="cls-11" d="M3.92,4a1,1,0,0,1,0,.79.83.83,0,0,0,0-.81Z"/><path class="cls-11" d="M3.89,4.74s-.13.19-.1.31.23.23.53.12a.16.16,0,0,1,.18,0c.09.08.27-.18.13-.22s.07-.05.08.08a.18.18,0,0,1-.17.18s-.12-.08-.15-.06a.76.76,0,0,1-.47,0c-.15-.07-.2-.18-.14-.29Z"/><path class="cls-22" d="M6.18,7.65A6.3,6.3,0,0,1,7.78,9a.82.82,0,0,1,.39-.1.11.11,0,0,0,0-.06h0a7.16,7.16,0,0,0-1.9-1.16Z"/><path class="cls-22" d="M8.6,11.9a22.07,22.07,0,0,0-.45-2.24C8.09,9.41,8,9.21,8,9.07a2.6,2.6,0,0,0-.1-.25c.1,0,.09-.07.25,0h0c.07.38.39,1.8.62,3.11Z"/><path class="cls-23" d="M6.9,11.9H2.06a17.15,17.15,0,0,1,0-3.05l1.8-1a4.57,4.57,0,0,0,.41,3.39c1.29-.92,2-3.68,2-3.68C8,8.34,8.17,8.83,8.17,8.83A2.44,2.44,0,0,0,6.9,11.9Z"/></g></svg>