<svg id="Layer_1" data-name="Layer 1" xmlns="http://www.w3.org/2000/svg" xmlns:xlink="http://www.w3.org/1999/xlink" viewBox="0 0 8.83 8.83"><defs><style>.cls-1{fill:#fff;}.cls-2{fill:#fae4d9;}.cls-3{clip-path:url(#clip-path);}.cls-4{fill:#d8430f;}.cls-5{fill:#f9a17a;}.cls-6{fill:#c93017;}.cls-7{fill:#ef8f6a;}.cls-8{clip-path:url(#clip-path-2);}.cls-9{fill:#82821c;}.cls-10{fill:#e07e61;}.cls-11{mask:url(#mask);}.cls-12{fill:#b99130;}.cls-13{fill:#ffc2c2;}.cls-14{fill:#a9842b;}.cls-15{fill:#8b8d22;}.cls-16{fill:#605e11;}.cls-17{fill:#585120;}.cls-18{fill:#30303d;}.cls-19{fill:#454559;}.cls-20{fill:#e88660;}.cls-21{fill:#0f0f1d;}.cls-22{fill:#c96f5b;}.cls-23{fill:#f49d82;}.cls-24{fill:#e2dfd7;}.cls-25{fill:#d87556;}.cls-26{opacity:0.49;}.cls-27{fill:#ffb89c;}.cls-28{fill:#3f3434;}.cls-29{fill:#534c1b;}.cls-30{opacity:0.46;}.cls-31{fill:#adaa3b;}</style><clipPath id="clip-path"><circle class="cls-2" cx="4.36" cy="-6.14" r="4.41"/></clipPath><clipPath id="clip-path-2"><path class="cls-2" d="M8.83,4.41A4.42,4.42,0,1,1,4.41,0,4.42,4.42,0,0,1,8.83,4.41Z"/></clipPath><mask id="mask" x="1.24" y="6.44" width="6.65" height="7.05" maskUnits="userSpaceOnUse"><path class="cls-1" d="M1.35,6.79c-.5,0,1,5.69.91,6.12s1.24.46,2.27.56,2.19-.12,2.35-.52C10.36,4.41,3.92,6.68,1.35,6.79Z"/></mask></defs><title>Artboard 9-600</title><circle class="cls-2" cx="4.36" cy="-6.14" r="4.41"/><g class="cls-3"><path class="cls-4" d="M4,.26a15,15,0,0,1,.88-1.62,1.08,1.08,0,0,0-.18-1,7.71,7.71,0,0,0-1-1.49c-.52-.24-1,.19-1.27.66a5.92,5.92,0,0,0-.8,2.71c0,.25,0,.5-.07.75Z"/><path class="cls-5" d="M3.3,0a.44.44,0,0,0,.25.3h.51L6.74-.16a.45.45,0,0,0,.37-.51A.46.46,0,0,0,6.6-1l-2.53.4L3.54-2.87A.45.45,0,0,0,3-3.2a.45.45,0,0,0-.33.54Z"/><path class="cls-6" d="M2.23.26c0-.37,0-.78.07-1.24.15-2.22,1-2.78,1-2.78l0-.16a1.52,1.52,0,0,0-.86.72,5.92,5.92,0,0,0-.8,2.71c0,.25,0,.5-.07.75Z"/><path class="cls-7" d="M3.55.26h.51L6.69-.15a.71.71,0,0,0,.21,0A.56.56,0,0,0,7.21-.2a3.21,3.21,0,0,0,1-.6.2.2,0,0,0,.05-.09,3.12,3.12,0,0,1-.89.46,2.3,2.3,0,0,1-.77,0,16.69,16.69,0,0,0-1.72.25C4.09,0,3.7,0,3.63-.22a11,11,0,0,1-.26-1.12l-.43-.2L3.3,0A.44.44,0,0,0,3.55.26Z"/></g><path class="cls-2" d="M8.83,4.41A4.42,4.42,0,1,1,4.41,0,4.42,4.42,0,0,1,8.83,4.41Z"/><g class="cls-8"><path class="cls-9" d="M5.43,7.21a5.48,5.48,0,0,0-.94-.08,2.64,2.64,0,0,0-.78.13s.33.47.33.47H5.49Z"/><polygon class="cls-5" points="4 6.54 4.26 7.64 5.05 7.57 4.94 6.33 4 6.54"/><path class="cls-10" d="M5,6.74l0-.37H4.74L4,6.54,4.11,7A1.65,1.65,0,0,0,5,6.74Z"/><path class="cls-5" d="M-1.36,7.87s-.14-.2.44.83,1.16,1,1.21,1,1.65-.47,2-.6-.19-1-.19-1-.83.36-1.1.43l-.37.1A.82.82,0,0,1,.36,8C.36,7.48-1.36,7.87-1.36,7.87Z"/><path class="cls-7" d="M2.34,9.11,2,8.45a2.29,2.29,0,0,1-.8.63A1.87,1.87,0,0,1-.26,9a1.31,1.31,0,0,0-.59-.17c.55.91,1.09.92,1.14.92s1.65-.47,2-.6Z"/><path class="cls-5" d="M7.83,10.29l0,.06h1a3.2,3.2,0,0,0-.32-.49c-.38-.44-1-1.22-1-1.22s-1,0-.79.37S7.52,9.8,7.83,10.29Z"/><g class="cls-11"><path class="cls-12" d="M2.15,9.3,2.9,9a4.87,4.87,0,0,1,.22,1.31h3.2c0-.77,0-1.45,0-1.45l.43.34.78-.6s-.15-.18-.44-.48A2.24,2.24,0,0,0,6,7.48c-.31-.05-.58-.11-.84-.13s-.31.25-.42.26c-.29,0-.49-.18-.78-.16H3.76c-.36,0-.48.14-.94.33l-1,.44L2,8.75C2,9,2.15,9.3,2.15,9.3Z"/><path class="cls-5" d="M5.32,7.36a2.48,2.48,0,0,0-.47,0c-.33,0-.66.09-1,.1a.66.66,0,0,0,.57.48A.94.94,0,0,0,5.32,7.36Z"/><path class="cls-13" d="M4.49,7.82A.62.62,0,0,1,4,7.45H3.86a.66.66,0,0,0,.57.48.94.94,0,0,0,.89-.57H5.15A.89.89,0,0,1,4.49,7.82Z"/><path class="cls-14" d="M6,10.35h.3c0-.77,0-1.45,0-1.45l.43.34.78-.6s-.15-.18-.44-.48A2.24,2.24,0,0,0,6,7.48l-.19,0A7.16,7.16,0,0,1,6,10.35Z"/><path class="cls-15" d="M3,10.35H4.61a14,14,0,0,0,0-1.42A15.77,15.77,0,0,1,4,7.37c0-.29-.38-.06-.78,0s-.48.63-.5,1,.14,1.2.21,1.89A.22.22,0,0,1,3,10.35Z"/><path class="cls-9" d="M4.33,10.35h.28a14,14,0,0,0,0-1.42A15.77,15.77,0,0,1,4,7.37c0-.2-.17-.16-.4-.09A2.77,2.77,0,0,1,4.3,8.57,14.19,14.19,0,0,1,4.33,10.35Z"/><path class="cls-15" d="M6.48,10.35v-.11c0-.86-.2-1.37-.2-1.8s.18-.92.08-1a2.7,2.7,0,0,0-1-.19A3.54,3.54,0,0,0,4.7,8.35a15,15,0,0,0-.22,2Z"/><path class="cls-9" d="M6.48,10.35v-.11c0-.86-.2-1.37-.2-1.8s.18-.92.08-1a.68.68,0,0,0-.26-.1,3.57,3.57,0,0,1,0,1.09c0,.24,0,1.1,0,2Z"/><path class="cls-16" d="M4.55,10.35c0-.11,0-.2,0-.28.06-.72.11-1.28.12-1.28a.08.08,0,0,0-.07-.08s-.07,0-.07.06-.06.57-.12,1.29c0,.08,0,.18,0,.29Z"/></g><path class="cls-17" d="M2.05,3.37c0,.08-.13.21.4.38a25.58,25.58,0,0,0,4.22.17c.34-.07.72,0,.5-.39A6.5,6.5,0,0,0,4.5,2.8,15.34,15.34,0,0,0,2.05,3.37Z"/><path class="cls-7" d="M2.58,4.23s-.42,0-.44.32.37.45.37.45Z"/><path class="cls-18" d="M2.61,2.83s-.42,1.27,0,1.68S3.31,3,3.31,3Z"/><path class="cls-5" d="M2.79,2.94A5.88,5.88,0,0,1,2.54,4.4a1.23,1.23,0,0,0,.12,1.37,2.18,2.18,0,0,0,1.73.9A2.64,2.64,0,0,0,6,5.92a4,4,0,0,0,.35-1.57c0-.28-.36-2-.73-2.09A16.41,16.41,0,0,0,2.79,2.94Z"/><path class="cls-7" d="M5.71,2.29c-.28.26-.55.54-.45.63a5,5,0,0,1,.51,1.92A1.58,1.58,0,0,1,4.28,6.18,2,2,0,0,1,2.42,5.3a1.5,1.5,0,0,0,.24.47,2.18,2.18,0,0,0,1.73.9A2.64,2.64,0,0,0,6,5.92a4,4,0,0,0,.35-1.57A4.65,4.65,0,0,0,5.71,2.29Z"/><path class="cls-19" d="M5.9,2.29a.91.91,0,0,1,.86.7c.33,1.23-.41,1.61-.41,1.61S5.27,3.2,5.9,2.29Z"/><path class="cls-7" d="M6,4.65a4.49,4.49,0,0,1,.71-.12c.15,0,.23.23.18.52s-.29.49-.82.28S6,4.65,6,4.65Z"/><path class="cls-1" d="M3.47,5.28a1.07,1.07,0,0,0,.6.11.82.82,0,0,0,.56-.14.6.6,0,0,1-.58.48A.55.55,0,0,1,3.47,5.28Z"/><path class="cls-20" d="M4,3.87c-.1,0-.07.34-.21.57s-.19.63,0,.7.56-.11.48-.66S4.13,3.83,4,3.87Z"/><path class="cls-21" d="M4.86,3.34l0,.15a2.12,2.12,0,0,1,.34.13c.13.08.19,0,.18,0A.64.64,0,0,0,4.86,3.34Z"/><path class="cls-21" d="M3.35,3.54l0,.11A1,1,0,0,0,3,3.74c-.12.07-.15-.09-.08-.12A2.18,2.18,0,0,1,3.35,3.54Z"/><path class="cls-18" d="M6.76,3a.91.91,0,0,0-.86-.7l0,0v.11s.7.56.51,1.16A.78.78,0,0,1,6,4.1a4.25,4.25,0,0,0,.31.5S7.09,4.22,6.76,3Z"/><path class="cls-22" d="M6.4,4.86c0-.09.19-.13.24-.09s0,.32-.06.37a.39.39,0,0,1-.27,0,.13.13,0,0,1,.11,0A.14.14,0,0,0,6.57,5c0-.09,0-.13-.05-.13Z"/><path class="cls-23" d="M3.88,4.74s-.15.07-.12.14.31.06.27,0S3.92,4.74,3.88,4.74Z"/><path class="cls-24" d="M3.7,5.51a.65.65,0,0,0,.32,0,1,1,0,0,0,.32,0,.85.85,0,0,1-.35.1A.47.47,0,0,1,3.7,5.51Z"/><path class="cls-24" d="M4.63,5.25a.82.82,0,0,1-.56.14,1.07,1.07,0,0,1-.6-.11.78.78,0,0,0,0,.09,1,1,0,0,0,.5.09,1.48,1.48,0,0,0,.61-.13A.24.24,0,0,0,4.63,5.25Z"/><path class="cls-10" d="M3.74,5.81A.54.54,0,0,0,4,5.88a.57.57,0,0,0,.32-.09A.32.32,0,0,1,4,6,.3.3,0,0,1,3.74,5.81Z"/><path class="cls-25" d="M4.31,4.48A2.57,2.57,0,0,0,4.21,4a1.41,1.41,0,0,1,0,.79A.43.43,0,0,1,3.7,5a.22.22,0,0,0,.13.12C4.07,5.21,4.39,5,4.31,4.48Z"/><g class="cls-26"><path class="cls-27" d="M3.17,4.64c0-.08-.51,0-.54.12S3.22,5,3.17,4.64Z"/></g><g class="cls-26"><path class="cls-27" d="M5.56,4.74c0-.09-.48-.11-.53,0S5.54,5.1,5.56,4.74Z"/></g><path class="cls-28" d="M5.08,4.19c0,.17-.08.31-.19.31s-.19-.14-.19-.31.09-.32.19-.32S5.08,4,5.08,4.19Z"/><path class="cls-1" d="M5,4.12s0,.1-.06.1-.07,0-.07-.1,0-.1.07-.1S5,4.07,5,4.12Z"/><path class="cls-28" d="M3.44,4.19c0,.17-.08.31-.19.31s-.19-.14-.19-.31.09-.32.19-.32S3.44,4,3.44,4.19Z"/><path class="cls-1" d="M3.33,4.12s0,.1-.07.1-.06,0-.06-.1,0-.1.06-.1S3.33,4.07,3.33,4.12Z"/><path class="cls-18" d="M3.2,3.44A6.23,6.23,0,0,0,5.34,3c.65-.37-1-.33-1-.33A3.81,3.81,0,0,1,3.2,3.44Z"/><path class="cls-18" d="M4.39,3a12.64,12.64,0,0,1-1.29.38,3.67,3.67,0,0,0-.42.07l0-.42Z"/><path class="cls-15" d="M3.36,1.09c-.45.11-.44.31-.48.51a8.59,8.59,0,0,1-.2.9c0,.07,3.89,0,3.89,0s-.13-.61-.21-.94-.16-.36-.71-.45A11.35,11.35,0,0,0,3.36,1.09Z"/><path class="cls-15" d="M2.05,3.38A9.43,9.43,0,0,1,4.44,3a12.79,12.79,0,0,1,2.73.46A2.52,2.52,0,0,1,6.87,3a5,5,0,0,0-.36-.6A15.14,15.14,0,0,0,4.3,2.23a8.66,8.66,0,0,0-1.55.18C2.57,2.46,2.05,3.38,2.05,3.38Z"/><path class="cls-9" d="M6.87,3a3.5,3.5,0,0,0-.31-.53h0s-.13-.61-.21-.94-.16-.36-.71-.45l-.12,0a5.47,5.47,0,0,1,.18,1.13l.18,1c.72.13,1.28.29,1.28.29A2.52,2.52,0,0,1,6.87,3Z"/><path class="cls-29" d="M2.75,2.41A8.66,8.66,0,0,1,4.3,2.23a15.14,15.14,0,0,1,2.21.16l0,.07h0l-.09-.4a12,12,0,0,0-2-.17,16.49,16.49,0,0,0-1.7.16c0,.15-.06.3-.08.38Z"/><g class="cls-30"><path class="cls-31" d="M5.18,1.41c0-.15-.95-.19-1.44-.11s-.29.19.35.32S5.15,1.57,5.18,1.41Z"/></g><g class="cls-30"><path class="cls-31" d="M3,2.57c-.17.23-.33.61,0,.47a9.65,9.65,0,0,1,2.2-.14c.3,0,.09-.3-.38-.41A4,4,0,0,0,3,2.57Z"/></g><path class="cls-10" d="M.66,8.65h0a.55.55,0,0,1-.12-.12l-1.46.12,0,0a2.77,2.77,0,0,0,.54.71,1,1,0,0,0,.63-.14A1.13,1.13,0,0,0,.66,8.65Z"/></g></svg>