<svg id="Layer_1" data-name="Layer 1" xmlns="http://www.w3.org/2000/svg" xmlns:xlink="http://www.w3.org/1999/xlink" viewBox="0 0 8.83 8.83"><defs><style>.cls-1{fill:#fae4d9;}.cls-2{clip-path:url(#clip-path);}.cls-3{fill:#954527;}.cls-4{fill:#e74a43;}.cls-5{fill:#ffba26;}.cls-6{fill:#45515b;}.cls-7{fill:#ac5725;}.cls-8{fill:#e68c63;}.cls-9{fill:#fb9b58;}.cls-10,.cls-30{fill:#fff;}.cls-11{fill:#66282d;}.cls-12{fill:url(#_ÂÁ_Ï_ÌÌ_È_ËÂÌÚ_6);}.cls-13{fill:#1d1d1b;}.cls-14{fill:#fbaa72;}.cls-15{fill:#d65d54;}.cls-16{fill:#884533;}.cls-17{fill:#e02e0e;}.cls-18,.cls-20{fill:#edeeee;}.cls-19{fill:#6f4237;}.cls-20{opacity:0.7;}.cls-21{fill:#e88a6b;}.cls-22{fill:#d15d54;}.cls-23{fill:#e0022c;}.cls-24{fill:#ed6e2b;}.cls-25{fill:#1b8c9c;}.cls-26{fill:#085a65;}.cls-27{fill:#8ea0bd;}.cls-28{fill:#4f2aae;}.cls-29{fill:#4dbece;}.cls-30{opacity:0.65;}</style><clipPath id="clip-path"><path class="cls-1" d="M8.83,4.41A4.42,4.42,0,1,1,4.41,0,4.42,4.42,0,0,1,8.83,4.41Z"/></clipPath><linearGradient id="_ÂÁ_Ï_ÌÌ_È_ËÂÌÚ_6" x1="4.7" y1="3.07" x2="4.71" y2="3.35" gradientUnits="userSpaceOnUse"><stop offset="0.13" stop-color="#d98057"/><stop offset="1" stop-color="#fbaa72"/></linearGradient></defs><title>Artboard 14-600</title><path class="cls-1" d="M8.83,4.41A4.42,4.42,0,1,1,4.41,0,4.42,4.42,0,0,1,8.83,4.41Z"/><g class="cls-2"><path class="cls-3" d="M3,2.29a3.58,3.58,0,0,0,.11,1.3c.19.54.5-1.53.5-1.53Z"/><path class="cls-4" d="M2.82,11.87A7.77,7.77,0,0,1,1.28,10.6c.57.14,1.45,0,2.45-1.91a4,4,0,0,0,.48-1.37A2.44,2.44,0,0,1,5,7.24C5.18,8.73,3.29,12,2.82,11.87Z"/><path class="cls-4" d="M4.21,7.32A3.43,3.43,0,0,1,4,8.72c-1,1.86-2.1,2-2.67,1.88h0l-.18-.19A11.19,11.19,0,0,1,2.42,8.47,3.3,3.3,0,0,1,4.21,7.32Z"/><path class="cls-5" d="M7,11.93A9.08,9.08,0,0,0,7,9.72l.41-.37A11.19,11.19,0,0,0,5.8,7.28c-.09,0-1.63.61-1.63.61l-1.76,2.5s.13.73.26,1.54Z"/><path class="cls-4" d="M6.79,11.93A11.71,11.71,0,0,0,7.11,10c.06-1.08.34-1.2.53-1.14-.09-.68-.16-1-.56-1.24a3,3,0,0,0-2.52-.28v4.57Z"/><path class="cls-6" d="M3.35,7.65s.12-1.71,2.39-1.44l0,.15A2.11,2.11,0,0,0,3.56,7.7Z"/><path class="cls-7" d="M5.25,6.64s.42-.37.73-.21l0,.38Z"/><path class="cls-8" d="M5.81,7.18l-1.64.57h0L5.5,7.22s0-1.73,0-1.93l.18-.08s0,.51,0,1h0l0,.15h0C5.79,6.79,5.81,7.18,5.81,7.18Z"/><path class="cls-9" d="M5.55,5.29c0,.2,0,1.93,0,1.93a12.6,12.6,0,0,1-1.28.67c-.19,0-.5-1.49-.5-1.49Z"/><path class="cls-10" d="M4.18,5.55a.45.45,0,0,1-.66,0A3.74,3.74,0,0,0,4.18,5.55Z"/><path class="cls-10" d="M4.36,5.36a.25.25,0,0,0,0,.06h0a1.89,1.89,0,0,1-.88,0l0-.08Z"/><path class="cls-10" d="M4.32,5.42l0,0a.55.55,0,0,1-.11.1,3.74,3.74,0,0,1-.66,0l0-.06L3.4,5.39a1.89,1.89,0,0,0,.88,0Z"/><path class="cls-10" d="M4.34,3.35l.74,0s0,.34-.46.27C4.62,3.59,4.37,3.46,4.34,3.35Z"/><path class="cls-11" d="M3.59,3.44c0,.07,0,.14-.11.14s-.11-.07-.11-.14a.11.11,0,1,1,.22,0Z"/><path class="cls-11" d="M4.85,3.47c0,.07,0,.14-.11.14s-.11-.07-.11-.14a.11.11,0,1,1,.22,0Z"/><path class="cls-12" d="M4.34,3.35s0-.35.38-.28.36.25.36.25Z"/><path class="cls-3" d="M5.28,3.27s-.1-.41-1-.24l-.08-.09V3.2A1.45,1.45,0,0,1,5.28,3.27Z"/><polygon class="cls-13" points="4.27 3.3 4.34 3.35 5.08 3.32 5.08 3.3 4.27 3.3"/><path class="cls-14" d="M5.92,2S4,.89,3.61,1.51a1.66,1.66,0,0,0-.26.38,2.09,2.09,0,0,0-.2.89V3a.09.09,0,0,1,0,0v.12s0,.08,0,.12h0q0,.23-.06.42A1.68,1.68,0,0,0,3,4.41a1.74,1.74,0,0,1,0,.22,1.79,1.79,0,0,1,0,.61l.15,1a.64.64,0,0,0,.7.47,8.71,8.71,0,0,0,.93-.15A6.37,6.37,0,0,0,5.8,5.16a1.27,1.27,0,0,0,.13-.32A3.24,3.24,0,0,0,6,4.4C6,4.27,6,4.12,6,4H6a.31.31,0,0,1,0-.1V3.8H6c0-.11,0-.23,0-.34V3.4c0-.33.06-.58.06-.59S5.92,2,5.92,2Z"/><path class="cls-15" d="M4.65,5s.12,0,.14.1a.42.42,0,0,1,0,.15s.07-.19,0-.22A.27.27,0,0,0,4.65,5Z"/><path class="cls-16" d="M4.63,5.3c0,.07,0,.16-.07.25A.68.68,0,0,0,4.05,6H3.93a4.09,4.09,0,0,0-.33-.42A1.62,1.62,0,0,0,4.63,5.3Z"/><path class="cls-10" d="M4.68,5.15l0,.15h0a1.62,1.62,0,0,1-1,.26.65.65,0,0,0-.21-.16A3.2,3.2,0,0,0,4.68,5.15Z"/><path class="cls-17" d="M4.56,5.55c0,.16-.09.3-.1.31A.49.49,0,0,1,4.05,6,.68.68,0,0,1,4.56,5.55Z"/><path class="cls-15" d="M4.51,5.24a2.24,2.24,0,0,1-1,.18H3.46l-.15,0s0-.15,0-.14l0,.09.12,0h0A2.31,2.31,0,0,0,4.51,5.24Z"/><path class="cls-3" d="M4.22,2.65s0,.42.09.47.61,0,1,.17L5.4,3S4.53,2.51,4.22,2.65Z"/><path class="cls-3" d="M3,3.1s.47-.31.6-.19a.35.35,0,0,1,.06.32,2.48,2.48,0,0,1-.54.15C3.08,3.35,2.94,3.19,3,3.1Z"/><path class="cls-18" d="M4.19,3.72H5a.42.42,0,0,1-.41.49C4.16,4.23,4.19,3.72,4.19,3.72Z"/><path class="cls-18" d="M3,3.75h.67a.35.35,0,0,1-.34.41C3,4.18,3,3.75,3,3.75Z"/><path class="cls-16" d="M3.53,3.93a.22.22,0,0,1-.44,0,.22.22,0,1,1,.44,0Z"/><path class="cls-19" d="M3.39,3.94a.09.09,0,1,1-.18,0,.09.09,0,1,1,.18,0Z"/><path class="cls-16" d="M4.72,3.94a.22.22,0,1,1-.22-.22A.22.22,0,0,1,4.72,3.94Z"/><path class="cls-19" d="M4.58,4a.09.09,0,1,1-.09-.09A.09.09,0,0,1,4.58,4Z"/><path class="cls-20" d="M3.56,4a.08.08,0,0,1-.07.08.08.08,0,0,1,0-.16A.08.08,0,0,1,3.56,4Z"/><circle class="cls-20" cx="4.68" cy="4" r="0.08"/><path class="cls-21" d="M3,3.75h.67a.33.33,0,0,0-.32-.28A.35.35,0,0,0,3,3.75Z"/><path class="cls-21" d="M5.05,3.73H4.19a.39.39,0,0,1,.41-.31A.42.42,0,0,1,5.05,3.73Z"/><path class="cls-22" d="M4.21,4.68c.13,0,0,.28-.1.21a.15.15,0,0,0-.16,0c-.27.11-.45,0-.47-.12a.24.24,0,0,1,0-.14c0-.08.21-.43.24-.53l-.26.55h0a.2.2,0,0,0,.12.28.63.63,0,0,0,.41,0s.1,0,.14.06a.16.16,0,0,0,.15-.17C4.28,4.63,4.21,4.68,4.21,4.68Z"/><path class="cls-23" d="M4.42,7.57a.74.74,0,0,1,.21.67l1.25-.62s-1-.24-1.33-.08Z"/><path class="cls-24" d="M4,7.38l0,.74s-.06-.85-.58-.2C3.47,7.92,3.8,7.34,4,7.38Z"/><path class="cls-24" d="M3.86,6.89s0,.11.16.49c0,0-.55.41-.57.78a2.15,2.15,0,0,1,.08-.81,1,1,0,0,1,.33-.46Z"/><path class="cls-8" d="M5.77,6.35h0l0-.15h0Z"/><path class="cls-23" d="M9,11.93H9.6a19.48,19.48,0,0,0-.83-2.41,3.61,3.61,0,0,0-1.6-1.84,5.12,5.12,0,0,1,1,1.67C8.43,10,8.78,11.15,9,11.93Z"/><path class="cls-4" d="M9,11.93c-.24-.78-.59-1.89-.83-2.58a5,5,0,0,0-1-1.65c-.35-.17-.48,0-.48,0-.43.89,0,2.94.59,4.27Z"/><path class="cls-24" d="M4.42,7.57S5,7.41,5,8.23c0,0,1.24-1,1.24-1.19A1.52,1.52,0,0,0,6,6.43S5.94,7,4.42,7.57Z"/><path class="cls-4" d="M3.68,11.93l.37-3.81c-2,.47-1.82,2.25-1.56,3.81Z"/><path class="cls-25" d="M3.94,8.22a.86.86,0,0,0-.21-.44c0-.1,0-.17,0-.18a.71.71,0,0,0-.36,0h0A.63.63,0,0,0,3,8.4.65.65,0,0,0,3.52,9a1.94,1.94,0,0,0,.33,0s0-.06,0-.16A.84.84,0,0,0,3.94,8.22Z"/><path class="cls-26" d="M4.21,8.2c.07.39-.1.73-.36.78s-.54-.22-.61-.6.09-.73.36-.78S4.14,7.82,4.21,8.2Z"/><path class="cls-27" d="M6,8.15l-.09-.21h0A2.17,2.17,0,0,0,6,7.06a.63.63,0,0,0-.15-.66,1.16,1.16,0,0,0-.09-.19v0h0C6.83,6.71,6,8.15,6,8.15Z"/><path class="cls-6" d="M5.88,7.94l0,0L5.7,7.86a3.47,3.47,0,0,0,.3-.8.63.63,0,0,0-.15-.66l-.08-.05a.71.71,0,0,0,0-.14v0h0A1.22,1.22,0,0,1,5.88,7.94Z"/><path class="cls-25" d="M5.7,8.5a.88.88,0,0,1-.29.5l0,0,0,0a1.36,1.36,0,0,0-.06.16h0l-.17,0L5,9.09a.69.69,0,0,1-.27-.81.86.86,0,0,1,.18-.37.63.63,0,0,1,.26-.2l.12,0h.13l.1,0h0l.14,0h0l.06,0h0s0,0,0,.1a.14.14,0,0,0,0,.07V8a.69.69,0,0,1,0,.25s0,0,0,0A.75.75,0,0,1,5.7,8.5Z"/><path class="cls-28" d="M6,8.59c-.09.4-.38.67-.66.61A.67.67,0,0,1,5,8.37c.09-.4.39-.67.66-.6S6.05,8.2,6,8.59Z"/><path class="cls-29" d="M6,8.58a.57.57,0,0,1-.57.48.59.59,0,0,1-.19-.65c.06-.29.27-.5.47-.49A.57.57,0,0,1,6,8.58Z"/><path class="cls-30" d="M5.74,8s-.31,0-.36.54c0,0,.21-.28.36-.25S5.93,8.1,5.74,8Z"/><path class="cls-3" d="M2.27,2.37S2,1.94,3,1.58c0,0-.94-.91-.24-.88a1.48,1.48,0,0,1,1.09.59S2.62-.09,3.62.38s1,1,1,1S4,.12,4.73.73s.65.8.65.8,0-1.18.32-.74a.72.72,0,0,1,0,.85s.53-.7.68-.11S6,3.11,6,3.52a5.34,5.34,0,0,0-.86-1.28c-.29-.18-.52,0-1.8.2S2.27,2.37,2.27,2.37Z"/><path class="cls-3" d="M5.18,2.24a1.31,1.31,0,0,1,.57,1,2.84,2.84,0,0,1-.18.92h.2L6,3.46S5.78,2.22,5.18,2.24Z"/><path class="cls-8" d="M5.9,4.48a.52.52,0,0,1-.06-.13s0,0,0,0c.21.32.63-.54.53-.88a.13.13,0,0,0-.07-.1c.08,0,.14,0,.17.13C6.59,3.9,6.14,4.83,5.9,4.48Z"/><path class="cls-14" d="M5.85,4.38s0,0,0,0a1,1,0,0,1,0-.47.54.54,0,0,1,.28-.4.43.43,0,0,1,.23-.08.13.13,0,0,1,.07.1C6.48,3.84,6.06,4.7,5.85,4.38Z"/><path class="cls-8" d="M6.22,3.62C6,3.56,6,4,6,4a1,1,0,0,1,.09-.22c0,.09,0,.28.14.33,0,0-.14-.08-.09-.38,0,0,0,0,0,0h0a.11.11,0,0,1,.08,0,.15.15,0,0,1,.13.18S6.41,3.68,6.22,3.62Z"/></g></svg>