<svg id="Layer_1" data-name="Layer 1" xmlns="http://www.w3.org/2000/svg" xmlns:xlink="http://www.w3.org/1999/xlink" viewBox="0 0 19.76 19.76"><defs><style>.cls-1{fill:#fae4d9;}.cls-2{clip-path:url(#clip-path);}.cls-3{fill:#f4f4f4;}.cls-4{fill:#e6e6e6;}.cls-5{clip-path:url(#clip-path-2);}.cls-6{fill:#8d4533;}.cls-7{fill:#4bc0e3;}.cls-8{fill:#8ad2e9;}.cls-9{fill:#268398;}.cls-10{fill:#f29278;}.cls-11{fill:#f6a980;}.cls-12{fill:#70bed3;}.cls-13{fill:#5a93ae;}.cls-14{fill:#f29169;}.cls-15,.cls-17{fill:#f2f3f3;}.cls-16{fill:#6f4237;}.cls-17{opacity:0.7;}.cls-18{fill:#06b9e1;}.cls-19{fill:#ed8f6b;}.cls-20{fill:#ed7260;}.cls-21{fill:#c6674a;}.cls-22{fill:#fff;}.cls-23{fill:#d6caa5;}</style><clipPath id="clip-path"><path class="cls-1" d="M-1.78,16.93a4.41,4.41,0,0,1-4.41,4.41,4.41,4.41,0,0,1-4.42-4.41,4.41,4.41,0,0,1,4.42-4.41A4.41,4.41,0,0,1-1.78,16.93Z"/></clipPath><clipPath id="clip-path-2"><circle class="cls-1" cx="9.88" cy="9.88" r="9.88"/></clipPath></defs><title>Artboard 7-600</title><path class="cls-1" d="M-1.78,16.93a4.41,4.41,0,0,1-4.41,4.41,4.41,4.41,0,0,1-4.42-4.41,4.41,4.41,0,0,1,4.42-4.41A4.41,4.41,0,0,1-1.78,16.93Z"/><g class="cls-2"><path class="cls-3" d="M-.29,17.42H-.34l-.88-.24a.19.19,0,0,1-.13-.23.18.18,0,0,1,.23-.13l.72.2.19-.46a.18.18,0,0,1,.24-.1.19.19,0,0,1,.11.24l-.26.61A.18.18,0,0,1-.29,17.42Z"/><path class="cls-4" d="M0,16.45H0a1,1,0,0,1-.11.46c-.08.2-.34.23-.53.21s-.46,0-.46,0l.49.26.24.06h.05a.18.18,0,0,0,.17-.12l.26-.61A.19.19,0,0,0,0,16.45Z"/></g><circle class="cls-1" cx="9.88" cy="9.88" r="9.88"/><g class="cls-5"><path class="cls-6" d="M6.12,4.28S4.89,5.61,5.58,6.54s2.63-.76,2.63-.76Z"/><path class="cls-7" d="M10,21.63c1.66-7.08-6.89-7.57-14.3-.18a2.11,2.11,0,0,1-.2.18Z"/><path class="cls-8" d="M16.39,21.63a42.32,42.32,0,0,0-1-5.35l-1-1.19-.18,0h-.08Q13.8,15,13.47,15a20.53,20.53,0,0,0-5.54.14c-.62.09-1.2.2-1.72.32l-.46.11a8.5,8.5,0,0,0-.06.9l-.25-.82h0l-.36.1-.49.15-.23.07-.48.16c-.43.14-.66.24-.66.24a38.87,38.87,0,0,0-1.67,5.3Z"/><path class="cls-7" d="M16.39,21.63h6.92a7,7,0,0,0-2.86-4.11,14.67,14.67,0,0,0-5.69-2.36l-.37-.07,1,1.19A42.32,42.32,0,0,1,16.39,21.63Z"/><path class="cls-9" d="M14.06,13.37c-1-.11-2.5-.11-4.67-.22a6.48,6.48,0,0,0-3.69.55,1.25,1.25,0,0,0-.42.4.76.76,0,0,0-.14.48l.28,1,.27,1,.08.31h.05l4.2-.08.64-.17c.66-.18,1.73-.49,2.7-.86.29-.11.57-.22.83-.34l.57-.29c.48-.28.8-.57.81-.84C15.59,13.71,15.14,13.48,14.06,13.37ZM5.44,15.61l.31-.08a8.5,8.5,0,0,0-.06.9Z"/><path class="cls-9" d="M5.75,15.53a8.5,8.5,0,0,0-.06.9l-.25-.82Z"/><path class="cls-10" d="M14.19,15.45C13.73,17.7,7,20.92,7,20.92l-.11-.37a26.54,26.54,0,0,0-1-2.89,2.76,2.76,0,0,1-.2-1.07v-.16a8.5,8.5,0,0,1,.06-.9c0-.18,0-.34.08-.49.06-.34.12-.56.12-.56l.48-.1c1.63-.34,6.93-1.28,7.7.42l0,.1h0a0,0,0,0,1,0,0l0,.12A1,1,0,0,1,14.19,15.45Z"/><path class="cls-11" d="M13.81,8.48a7.11,7.11,0,0,1-.24,1.88l-.1-1.79-.16,2.23-.63.14a8.91,8.91,0,0,1-.24,4.22c-5.26.91-6.85-1.25-7.33-2.48a6.8,6.8,0,0,1,.15-1.09,36,36,0,0,0,.41-3.76c.13-1.61.29-3.07.68-3.39.68-.54,4-.58,5.92-.56l1.34,0s.07,1.61.16,3.6a.76.76,0,0,0,0,.15Z"/><path class="cls-11" d="M5.8,15a3.22,3.22,0,0,1-.69-2.33c.53,1.36,2.41,3.84,9.06,2.1C14.31,16.08,8.61,18.23,5.8,15Z"/><polygon class="cls-12" points="12.72 18.03 7.01 20.92 15.57 14.32 12.72 18.03"/><polygon class="cls-13" points="15.1 20.17 12.72 18.03 15.57 14.32 15.1 20.17"/><polygon class="cls-13" points="3.28 18.73 4.92 17.71 5.14 14.59 3.28 18.73"/><polygon class="cls-12" points="7.01 20.92 4.92 17.71 5.07 15.71 5.14 14.59 5.45 15.61 5.69 16.43 5.82 16.89 6.9 20.55 7.01 20.92"/><path class="cls-14" d="M6.87,14.24s.42.78,2.51,1C9.38,15.23,7.44,15.61,6.87,14.24Z"/><path class="cls-15" d="M9.25,8.35l1.85,0a1.08,1.08,0,0,1-1,1.11C9.07,9.48,9.25,8.35,9.25,8.35Z"/><path class="cls-6" d="M10.7,8.61a.45.45,0,1,1-.45-.45A.45.45,0,0,1,10.7,8.61Z"/><path class="cls-15" d="M6.24,8.37l1.52,0a.88.88,0,0,1-.83.92C6.09,9.3,6.24,8.37,6.24,8.37Z"/><path class="cls-6" d="M7.57,8.58a.4.4,0,0,1-.4.4.4.4,0,0,1,0-.8A.4.4,0,0,1,7.57,8.58Z"/><path class="cls-16" d="M7.33,8.61a.18.18,0,0,1-.17.17.17.17,0,0,1,0-.34A.18.18,0,0,1,7.33,8.61Z"/><path class="cls-16" d="M10.4,8.65a.16.16,0,0,1-.16.16.16.16,0,0,1-.17-.16.16.16,0,0,1,.17-.17A.16.16,0,0,1,10.4,8.65Z"/><path class="cls-17" d="M6.86,8.82a.17.17,0,1,1-.34,0,.17.17,0,0,1,.34,0Z"/><path class="cls-17" d="M9.94,8.87A.17.17,0,0,1,9.78,9a.17.17,0,0,1,0-.34A.17.17,0,0,1,9.94,8.87Z"/><path class="cls-18" d="M25.76,21.63a20.49,20.49,0,0,0-4.45-3.54c-3.89-1.95-4.25.45-3.49,3.54Z"/><path class="cls-19" d="M6.24,8.37l1.52,0s-.23-.85-.89-.78S6.24,8.37,6.24,8.37Z"/><path class="cls-19" d="M9.25,8.35l1.85,0a.92.92,0,0,0-1-.64C9.32,7.82,9.25,8.35,9.25,8.35Z"/><path class="cls-10" d="M12.44,15.16a8.91,8.91,0,0,0,.24-4.22l.63-.14.16-2.23.1,1.79a7.11,7.11,0,0,0,.24-1.88c.13,2.69.28,5.68.36,6.29h0C13.55,14.94,13,15.07,12.44,15.16Z"/><path class="cls-10" d="M12.44,15.16A8.56,8.56,0,0,1,9.2,17.38a10.85,10.85,0,0,1-2.29.84l3.49-.49a16.43,16.43,0,0,0,3.81-2.67l0-.28Z"/><path class="cls-6" d="M5.66,5s1.12,1.53,2.26.57,4.28-.14,5.24.63A4.09,4.09,0,0,1,13,9.45c-.78,2-.84,3.29-4,1.77,0,0-2.63-.29-3.55.8S5,14.19,4.49,14.89s2.1,1.95,2.21,2,3.36.78,3.87.44,2.44-2.14,2.48-2.87-.17-2.83.31-3.93,1.35-5.15.57-6.51-2.53-2.63-3.6-2.19c0,0-2.17-.76-2.68.42S4.71,2.75,5.66,5Z"/><path class="cls-11" d="M13.62,8.46s.45-.87,1.15-.24-.26,2.49-1,2.58-.35-.68-.35-.68Z"/><path class="cls-20" d="M14,10.09s.89-.58.64-1.19-.88,0-.92.21C13.71,9.11,14.36,9,14,10.09Z"/><path class="cls-21" d="M10.32,12.26a6.11,6.11,0,0,1-.55.63c-.59.58-1.56,1.22-2.32.2a2.64,2.64,0,0,1-.3-.51l.33,0,2.33-.24Z"/><path class="cls-22" d="M9.81,12.31l0,.3a6.52,6.52,0,0,1-2.33.28l0-.34Z"/><path class="cls-22" d="M9.78,12.73v.16c-.59.58-1.56,1.22-2.32.2v-.17A5.2,5.2,0,0,0,9.78,12.73Z"/><path class="cls-23" d="M9.79,12.61v.12a5.2,5.2,0,0,1-2.32.19v0A6.52,6.52,0,0,0,9.79,12.61Z"/><path class="cls-19" d="M8.63,8.7c0-.13-.32-.15-.43-.06a2.56,2.56,0,0,0-1.09,2.59c.42.57,1.08-.42,1.82,0,.38.23.61-.31.49-.7s-.45-.23-.73-.38S8.67,9.32,8.63,8.7Z"/><polygon class="cls-6" points="5.46 7.28 5.56 7.67 7.72 7.84 7.72 6.86 5.46 7.28"/><polygon class="cls-6" points="9.03 6.96 9.17 7.87 11.63 8.24 11.63 7.67 9.03 6.96"/><path class="cls-6" d="M5.61,8.67s-.77,3-.47,3.78.7-.23.7-.23S5.56,9.15,5.61,8.67Z"/><path class="cls-6" d="M5.61,8.67S5.32,12,6.5,11.4l-.65.93-.38-.55Z"/></g></svg>