<svg id="Layer_1" data-name="Layer 1" xmlns="http://www.w3.org/2000/svg" xmlns:xlink="http://www.w3.org/1999/xlink" viewBox="0 0 8.77 8.77"><defs><style>.cls-1{fill:#fae4d9;}.cls-2{clip-path:url(#clip-path);}.cls-3{fill:#bfd9f2;}.cls-4{fill:#f1592b;}.cls-5{fill:#b5431f;}.cls-6{fill:#e2f2fc;}.cls-7{fill:#0088c1;}.cls-8{fill:#782a0e;}.cls-9{fill:#2aabe3;}.cls-10{fill:#8b4600;}.cls-11{fill:#8d4715;}.cls-12{fill:#542a00;}.cls-13{fill:#fff;}.cls-14{fill:#ff6060;}.cls-15{fill:#611911;}.cls-16{fill:#280801;}.cls-17{fill:#390f05;}.cls-18{fill:#2f7e85;}.cls-19{fill:#ee8d72;}.cls-20{fill:#7fc7c2;}.cls-21{fill:#fecf4f;}.cls-22{fill:#ffe396;}.cls-23{fill:#caa25c;}.cls-24{clip-path:url(#clip-path-2);}.cls-25{fill:#f9a17a;}.cls-26{fill:#ef8f6a;}</style><clipPath id="clip-path"><path class="cls-1" d="M8.77,4.39A4.39,4.39,0,1,1,4.39,0,4.38,4.38,0,0,1,8.77,4.39Z"/></clipPath><clipPath id="clip-path-2"><circle class="cls-1" cx="-6.14" cy="4.39" r="4.41"/></clipPath></defs><title>Artboard 5-600</title><path class="cls-1" d="M8.77,4.39A4.39,4.39,0,1,1,4.39,0,4.38,4.38,0,0,1,8.77,4.39Z"/><g class="cls-2"><path class="cls-1" d="M8.77,4.39A4.39,4.39,0,1,1,4.39,0,4.38,4.38,0,0,1,8.77,4.39Z"/><path class="cls-3" d="M3.19,11,4.85,8.79S4.46,7.62,3.91,8A18.27,18.27,0,0,0,2,11Z"/><path class="cls-4" d="M3.14,4.68a1.52,1.52,0,0,0-.21-.79c0-.17.09-.27,0-.3a1.33,1.33,0,0,0-.6-.08h0c-.45,0-.86.52-.86,1.17a1.13,1.13,0,0,0,.71,1.18,2.74,2.74,0,0,0,.55,0s0-.11,0-.27A1.36,1.36,0,0,0,3.14,4.68Z"/><ellipse class="cls-5" cx="2.76" cy="4.73" rx="0.82" ry="1.18"/><path class="cls-6" d="M7,11a4.79,4.79,0,0,0,.25-1.54,2.26,2.26,0,0,0-1-1.78,2.47,2.47,0,0,0-.72-.33,1.77,1.77,0,0,0-1.18.09A1.08,1.08,0,0,0,4,7.61a1.22,1.22,0,0,0-.17.15l-.12.14a8.6,8.6,0,0,0-1.32,3ZM4.5,8h0c0,.09,0,.18,0,.26s-.16.26-.2.35A3.2,3.2,0,0,0,4.5,8Z"/><path class="cls-3" d="M7,11A4,4,0,0,0,7,8.63c-.65-.83-1.56-.73-1.63.84,0,.46-.06,1-.12,1.48Z"/><path class="cls-7" d="M6.29,7.59S5.84,7,5.54,7s0,.51,0,.51Z"/><polygon class="cls-7" points="5.2 7.09 4.34 7.31 4.37 7.6 5.22 7.43 5.2 7.09"/><path class="cls-8" d="M5.49,7.34a2.16,2.16,0,0,0-.8,0,.87.87,0,0,0-.3.16.3.3,0,0,0-.07.41A.38.38,0,0,0,4.5,8a3.2,3.2,0,0,1-.15.61c0-.09.13-.23.2-.35v0l.09-.19,0-.06h.07L4.83,8l0,0c.13-.13.28-.25.36-.21a.38.38,0,0,1,.14.16s0,0,0,0a.41.41,0,0,1,0,.09,1.58,1.58,0,0,0,.64-.24C6.24,7.63,5.92,7.43,5.49,7.34Z"/><path class="cls-9" d="M4.5,8a3.2,3.2,0,0,1-.15.61h0l0,0h0S4.38,7.07,3.74,8l.11-.24A1.52,1.52,0,0,1,4,7.46a1.35,1.35,0,0,1,.32-.15.24.24,0,0,0,0,.08.1.1,0,0,0,0,.07,1,1,0,0,1,.12.35A.62.62,0,0,1,4.5,8Z"/><path class="cls-8" d="M5.67,5.94V7.51a1.08,1.08,0,0,1-1.2.14l0-1.51Z"/><path class="cls-10" d="M6.32,5.63s-.14.77-.66.92l.14-.89Z"/><path class="cls-11" d="M6.07,4.78h0A2.25,2.25,0,0,0,6,4.41H6a1.84,1.84,0,0,0,0-.25V4.09a2,2,0,0,1-.07-.26v0a.07.07,0,0,1,0,0l0,0,0-.09a2.81,2.81,0,0,0-.1-.31h0a8.77,8.77,0,0,0-.35-.85h0a1.68,1.68,0,0,0-.49-.67l-.09,0A2.26,2.26,0,0,0,3,1.7a1.28,1.28,0,0,0-.21.14A.8.8,0,0,0,2.64,2a1.26,1.26,0,0,0-.19.25.94.94,0,0,0-.12.22q-.06.13-.12.3l.12.06A1.72,1.72,0,0,0,3,3C4.33,3,4,2.32,4.42,2.31c.13,0,.26,0,.39,0s.45,0,.52.33a.06.06,0,0,0,0,0c.06.3.13.78.18,1.14l-.17.08a5.37,5.37,0,0,0-.28-1A5.09,5.09,0,0,1,2.24,3L2.15,3a4.77,4.77,0,0,0-.1.73v0h0V4h0c0,.08,0,.18,0,.28,0,.84.23,2.34,1,2.72a2.44,2.44,0,0,0,1.4.29,2,2,0,0,0,1.19-.75h0l.16-.2A1.31,1.31,0,0,0,6,6l.06-.31h0v0A3.26,3.26,0,0,0,6.07,4.78Z"/><path class="cls-8" d="M3.84,5.72s-.2,0,0,.1a2.32,2.32,0,0,1,.41.24C4.3,6.15,4.13,5.86,3.84,5.72Z"/><path class="cls-8" d="M2.54,5.84s.1-.08.07,0a1.8,1.8,0,0,0-.08.32C2.53,6.27,2.47,6.05,2.54,5.84Z"/><path class="cls-12" d="M3.88,6.34a.35.35,0,0,1,0,.08.66.66,0,0,1-.53.3.68.68,0,0,1-.43-.11h0a.41.41,0,0,1-.16-.31.11.11,0,0,1,.09-.14h.08a1.79,1.79,0,0,0,.76-.07c.14-.06.22,0,.26,0A.24.24,0,0,1,3.88,6.34Z"/><path class="cls-13" d="M3.9,6.14A.92.92,0,0,1,3,6.35a.35.35,0,0,1-.23-.19h.08a1.79,1.79,0,0,0,.76-.07C3.78,6,3.86,6.07,3.9,6.14Z"/><path class="cls-14" d="M3.83,6.42a.66.66,0,0,1-.53.3.68.68,0,0,1-.43-.11A1.76,1.76,0,0,1,3.83,6.42Z"/><path class="cls-13" d="M4,4.19a.44.44,0,0,0-.77.11.49.49,0,0,0,.07.53c.29.41.83,0,.84-.23A.68.68,0,0,0,4,4.19Z"/><path class="cls-13" d="M2.16,4.72a.56.56,0,0,1-.08-.38c0-.14.08-.31.24-.27s.53.61.23.82S2.24,4.86,2.16,4.72Z"/><path class="cls-15" d="M3.6,4.66a.19.19,0,1,1-.31.21.2.2,0,0,1,0-.27A.2.2,0,0,1,3.6,4.66Z"/><path class="cls-15" d="M2.51,4.62a.19.19,0,0,1,0,.27.2.2,0,0,1-.26-.07.2.2,0,0,1,0-.27A.19.19,0,0,1,2.51,4.62Z"/><path class="cls-8" d="M4.08,4.42a.68.68,0,0,0-.94,0s0-.52.37-.62S4.08,4.42,4.08,4.42Z"/><path class="cls-8" d="M2.08,4.46s.14-.28.59,0c0,0-.08-.45-.35-.45S2.08,4.46,2.08,4.46Z"/><path class="cls-16" d="M4,4s.19.18.23.08,0-.32-.27-.36-.71,0-.72.11,0,.19.09.18A.77.77,0,0,1,4,4Z"/><path class="cls-16" d="M2.11,4s-.17.15-.18.06a.3.3,0,0,1,.25-.34c.22,0,.52.09.51.2s0,.19-.1.17S2.37,3.83,2.11,4Z"/><path class="cls-8" d="M2.59,5.25s.07.47.46.4c.16,0,.15,0,.09,0a.44.44,0,0,1-.38,0C2.57,5.63,2.58,5.53,2.59,5.25Z"/><path class="cls-9" d="M6.29,7.59l0,0a8.72,8.72,0,0,1-.68.79A2.49,2.49,0,0,0,5.43,8a.41.41,0,0,0,0-.09s0,0,0,0a.3.3,0,0,0-.13-.14c-.08,0-.24.06-.37.19l0,0-.08.08c-.1.12-.41.58-.44.62l0,0h0c0-.09.13-.23.2-.35l.09-.16,0-.06a2,2,0,0,1,.81-.72l.06,0a1.12,1.12,0,0,0,.27-.18S6.3,7.47,6.29,7.59Z"/><path class="cls-17" d="M7.14,3.29a.41.41,0,0,0,.11-.42A.39.39,0,0,0,7,2.62a.52.52,0,0,0-.12-.31.27.27,0,0,0-.08-.07.52.52,0,0,0-.11-.36.31.31,0,0,0-.14-.09l0-.06a.58.58,0,0,0-.28-.41l-.11,0A.86.86,0,0,0,5.75,1,.89.89,0,0,0,5.28.82H5.2A.37.37,0,0,0,5.06.75.5.5,0,0,0,4.6.6h0a.74.74,0,0,0-.33,0,.69.69,0,0,0-.77.2c-.25-.1-.4.22-.4.22h0a.24.24,0,0,1-.1.1h0s-.15.18.08.32L3,1.47H3a1.14,1.14,0,0,0-.2-.08.28.28,0,0,0-.13,0,.3.3,0,0,0-.49,0,.32.32,0,0,0-.23.18.61.61,0,0,0,0,.24.49.49,0,0,0-.31.55s0,0,0,0a.23.23,0,0,0,0,.2.8.8,0,0,0,0,.34.54.54,0,0,0,.14.27c0,.19,0,.41.23.48s.34-.18.27-.38h0a.73.73,0,0,1,.28-.19.64.64,0,0,0,.6,0l.07,0a2.1,2.1,0,0,0,.63.36,1,1,0,0,0,.24,0l.1,0a.39.39,0,0,0,.31.14l0,0a.34.34,0,0,0,.06.12.24.24,0,0,0,.16.09.53.53,0,0,0,0,.12.37.37,0,0,0,.16.17l.06,0a.52.52,0,0,0,.24.2.12.12,0,0,0,.06.11.57.57,0,0,0,.37.16.2.2,0,0,0,.11,0l.07,0,.1,0a1.45,1.45,0,0,0,.3.06.31.31,0,0,0,.34-.22s0,0,0,0a.1.1,0,0,0,0,0,.36.36,0,0,0,.28-.06.3.3,0,0,0,.11-.25A.25.25,0,0,0,7,4.11a.38.38,0,0,0,.11-.34.27.27,0,0,0,.07-.14.3.3,0,0,0-.08-.26S7.15,3.31,7.14,3.29Z"/><path class="cls-18" d="M6.12,3.61H5.86a3.19,3.19,0,0,0-.69-2,1.3,1.3,0,0,0-.9-.33h0a3.17,3.17,0,0,0-1,.1A2.34,2.34,0,0,1,5,1.3a1.38,1.38,0,0,1,.48.35A3,3,0,0,1,6.12,3.61Z"/><path class="cls-19" d="M5.29,5.32a.81.81,0,0,1,.08-.82c.21-.28.56-.65.8-.2.37.65.08,1.59-.5,1.37A.66.66,0,0,1,5.29,5.32Z"/><path class="cls-20" d="M5.86,3.59v.12l-.15,0a.5.5,0,0,0,0-.11h0a3,3,0,0,0-.63-1.89,1.31,1.31,0,0,0-.86-.38,2,2,0,0,0-.79,0L3,1.45,3,1.47a1.89,1.89,0,0,1,.54-.21h0a2.44,2.44,0,0,1,.91-.05c.41.07.59.06.84.36A3.41,3.41,0,0,1,5.86,3.59Z"/><path class="cls-4" d="M6.42,4.83a1.31,1.31,0,0,1-.26.81l0,0,0,0c0,.15,0,.25,0,.25H6l-.27,0a.56.56,0,0,1-.2,0,1,1,0,0,1-.65-1.07,1.3,1.3,0,0,1,.14-.6,1,1,0,0,1,.3-.36l.17-.08.1,0h.29a1.66,1.66,0,0,1,.22,0h0l.11,0h0s0,.07,0,.15a.49.49,0,0,0,0,.12s0,0,0,0a1.16,1.16,0,0,1,.14.34.06.06,0,0,1,0,0A1.65,1.65,0,0,1,6.42,4.83Z"/><path class="cls-5" d="M6.82,4.87C6.82,5.46,6.48,6,6.07,6s-.76-.49-.76-1.08.34-1.08.76-1.08S6.82,4.27,6.82,4.87Z"/><path class="cls-21" d="M6.89,4.84a.84.84,0,0,1-.67.86.85.85,0,0,1-.49-.86A.82.82,0,0,1,6.26,4,.84.84,0,0,1,6.89,4.84Z"/><path class="cls-22" d="M6.31,4.09S5.87,4.22,6,5c0,0,.22-.47.44-.47S6.61,4.17,6.31,4.09Z"/><polygon class="cls-22" points="5.92 3.81 5.62 3.79 5.62 3.76 5.63 3.66 5.63 3.61 5.72 3.61 5.86 3.62 5.9 3.62 5.91 3.71 5.91 3.75 5.92 3.81"/><polygon class="cls-23" points="6.15 3.78 6.13 3.78 6.05 3.79 5.97 3.8 5.92 3.81 5.91 3.75 5.91 3.71 5.89 3.61 6.08 3.61 6.15 3.6 6.15 3.78"/></g><circle class="cls-1" cx="-6.14" cy="4.39" r="4.41"/><g class="cls-24"><path class="cls-25" d="M-1.12,8.05a.14.14,0,0,1-.09,0,.15.15,0,0,1,0-.22A2,2,0,0,1,0,7.3a.16.16,0,0,1,.17.14A.15.15,0,0,1,0,7.61,1.67,1.67,0,0,0-1,8,.18.18,0,0,1-1.12,8.05Z"/><path class="cls-25" d="M-1.06,8.36l-.09,0a.16.16,0,0,1,0-.22A1.28,1.28,0,0,1-.09,7.74.15.15,0,0,1,0,7.91a.15.15,0,0,1-.17.14S-.7,8-.93,8.3A.16.16,0,0,1-1.06,8.36Z"/><path class="cls-26" d="M-.13,7.56a1.83,1.83,0,0,0-.71.29s0,0,0,0A2.39,2.39,0,0,1,0,7.61a.15.15,0,0,0,.14-.17h0A.29.29,0,0,1-.13,7.56Z"/></g></svg>