<svg id="Layer_1" data-name="Layer 1" xmlns="http://www.w3.org/2000/svg" xmlns:xlink="http://www.w3.org/1999/xlink" viewBox="0 0 8.83 8.83"><defs><style>.cls-1{fill:#fae4d9;}.cls-2{clip-path:url(#clip-path);}.cls-3{fill:#e6e6e6;}.cls-4{fill:#ffb084;}.cls-5{fill:#4fba82;}.cls-6{fill:#e28b5e;}.cls-7{fill:#38a368;}.cls-8{fill:#e8996d;}.cls-9{fill:#d37a53;}.cls-10{fill:#6d3333;}.cls-11{fill:#734140;}.cls-12{fill:#fff;}.cls-13{fill:#f3a36a;}.cls-14{fill:#feffff;}</style><clipPath id="clip-path"><path class="cls-1" d="M8.83,4.41A4.42,4.42,0,1,1,4.41,0,4.42,4.42,0,0,1,8.83,4.41Z"/></clipPath></defs><title>Artboard 8-600</title><path class="cls-1" d="M8.83,4.41A4.42,4.42,0,1,1,4.41,0,4.42,4.42,0,0,1,8.83,4.41Z"/><g class="cls-2"><path class="cls-3" d="M5.22,6.87l.91,1.57,1.09.69.7-.81A11.9,11.9,0,0,0,5.22,6.87Z"/><path class="cls-4" d="M4.4,8.23c0-.16.92-1.15.93-1.35l-.2,0L5,6.18a.52.52,0,1,0-1,.19l.07.39H3.91Z"/><path class="cls-5" d="M6.23,12.14,6.4,8.9S5.75,7.1,5.66,7a1.73,1.73,0,0,0-.33-.15l-.09.16c-.33.47-.85.65-1.49-.27L3.38,7s-.76,1.48-.76,1.48a29.68,29.68,0,0,0-.21,3.69Z"/><path class="cls-3" d="M3.55,6.87,2.64,8.44l-1.09.69-.7-.81A11.9,11.9,0,0,1,3.55,6.87Z"/><path class="cls-3" d="M4.56,7.58a1.05,1.05,0,0,0,1-.62.87.87,0,0,0-.19-.08s0,.1-.19.27c-.34.37-1,.38-1.2-.38H3.75A.93.93,0,0,0,4.56,7.58Z"/><path class="cls-6" d="M5,6.24,4,6.35v0l0,.27a6.67,6.67,0,0,0,1.09.11Z"/><path class="cls-7" d="M6.23,12.14l-.17-1.32a1.42,1.42,0,0,1-1.71-.17c-1-.9-.83-3.22-.76-3.79L3.38,7s-.76,1.48-.76,1.48a29.68,29.68,0,0,0-.21,3.69Z"/><path class="cls-8" d="M6.77,3.93a.45.45,0,0,1-.35.53c-.58.18-.47-.11-.52-.36s-.19-.43.35-.54A.45.45,0,0,1,6.77,3.93Z"/><path class="cls-9" d="M6.61,4a.28.28,0,0,0-.25-.29H6.27A.27.27,0,0,1,6.52,4a.29.29,0,0,1-.24.26h0A.28.28,0,0,0,6.61,4Z"/><path class="cls-8" d="M2.13,4.28a.47.47,0,0,1,.46-.44c.61,0,.43.22.43.47s.09.46-.46.45A.45.45,0,0,1,2.13,4.28Z"/><path class="cls-9" d="M2.28,4.37a.28.28,0,0,0,.31.22.34.34,0,0,0,.12,0h0a.26.26,0,0,1-.31-.22A.27.27,0,0,1,2.54,4l0,0A.28.28,0,0,0,2.28,4.37Z"/><path class="cls-10" d="M2.82,4.73s-.61-1.1-.37-1.48.67,0,.67,0Z"/><path class="cls-4" d="M6.22,4.9C6,6,5.65,6.41,4.41,6.5A1.52,1.52,0,0,1,2.73,4.72c.1-.82-.29-2.84,1.64-2.92.82,0,1.52.59,1.77,1.75A5,5,0,0,1,6.22,4.9Z"/><path d="M5.26,4.22c0,.18-.08.33-.19.33s-.19-.15-.19-.33.09-.34.19-.34S5.26,4,5.26,4.22Z"/><path class="cls-9" d="M4.12,4.27a.4.4,0,0,1,.18-.33.23.23,0,0,1,.28.15c.11.47.12,1.06-.25,1.1-.54,0-.28-.63-.28-.63Z"/><path d="M3.72,4.25c0,.18-.07.34-.18.34s-.19-.14-.2-.32.07-.34.17-.35S3.71,4.06,3.72,4.25Z"/><path class="cls-6" d="M4.08,4.26c0-.13,0-.25.14-.31a.2.2,0,0,1,.29.1c.15.43.21,1-.15,1-.54.1-.33-.56-.33-.56Z"/><path class="cls-11" d="M5.36,1.83v0C5.09.07,3.42.87,2.9,1.5A10.65,10.65,0,0,0,1.78,3.59s1.74-.2,2-.26l.12,0a2.34,2.34,0,0,0-.19.26C5.54,2.91,5.39,2,5.36,1.83Z"/><path class="cls-12" d="M5.13,4.3c0,.06,0,.12-.07.12A.1.1,0,0,1,5,4.31c0-.07,0-.12.07-.12S5.13,4.23,5.13,4.3Z"/><path class="cls-8" d="M4.42,6.56A1.66,1.66,0,0,0,6.23,4.89a4.93,4.93,0,0,0-.09-1.34,2.54,2.54,0,0,0-.66-1.31l-.28,0A4.51,4.51,0,0,1,6,3.84a1.83,1.83,0,0,1-1.5,2.54,1.42,1.42,0,0,1-1.32-.61,4.91,4.91,0,0,1-.4-2.34c-.06.49,0,1-.06,1.29A1.57,1.57,0,0,0,4.42,6.56Z"/><path class="cls-12" d="M3.59,4.35c0,.06,0,.12-.07.12s-.08,0-.09-.1,0-.12.07-.13S3.58,4.28,3.59,4.35Z"/><path class="cls-13" d="M4.41,4.9S4.35,5,4.26,5s-.14,0-.14-.07.06-.08.14-.08S4.41,4.85,4.41,4.9Z"/><path class="cls-13" d="M3.68,4.92c0,.09-.11.18-.26.18S3.14,5,3.14,5s.11-.17.26-.18S3.68,4.83,3.68,4.92Z"/><path class="cls-13" d="M5.71,4.89c0,.09-.11.18-.26.18S5.17,5,5.17,4.92s.11-.17.26-.18S5.71,4.8,5.71,4.89Z"/><path class="cls-14" d="M3.77,5.43a.52.52,0,0,0,.53.43.57.57,0,0,0,.54-.45A1.17,1.17,0,0,1,3.77,5.43Z"/><path class="cls-8" d="M4.06,6s0,.11.28.11.29-.13.29-.13A1.2,1.2,0,0,1,4.06,6Z"/><path class="cls-11" d="M5.31,3.69a.88.88,0,0,1-.44-.27L5,3.33a.68.68,0,0,0,.36.22Z"/><path class="cls-11" d="M3.13,3.8V3.65a.64.64,0,0,0,.36-.2l.11.1A.81.81,0,0,1,3.13,3.8Z"/><path class="cls-11" d="M6.42,2c.15,1.25-.25,1.67-.25,1.67a2.21,2.21,0,0,0-1.1-1.4C4.19,1.72,6.26.68,6.42,2Z"/><path class="cls-10" d="M5.36,1.83v0c0-.14-.06-.27-.09-.37A7.56,7.56,0,0,1,1.79,3.57v0s1.74-.2,2-.26l.12,0a2.34,2.34,0,0,0-.19.26C5.54,2.91,5.39,2,5.36,1.83Z"/><path class="cls-10" d="M6.05,2.67a1.78,1.78,0,0,1-.77-1.2h0L4.86,2a.38.38,0,0,0,.21.33,2.21,2.21,0,0,1,1.1,1.4,1.39,1.39,0,0,0,.26-.78A3.19,3.19,0,0,1,6.05,2.67Z"/></g></svg>