<svg id="Layer_1" data-name="Layer 1" xmlns="http://www.w3.org/2000/svg" xmlns:xlink="http://www.w3.org/1999/xlink" viewBox="0 0 8.83 8.83"><defs><style>.cls-1,.cls-21{fill:#fff;}.cls-2{fill:#fae4d9;}.cls-3{clip-path:url(#clip-path);}.cls-4{fill:#0a8e0a;}.cls-5{fill:#81cafd;}.cls-6{fill:#61b6e5;}.cls-7{mask:url(#mask);}.cls-8{fill:#1da1db;}.cls-9{fill:#f4f4f4;}.cls-10{fill:#e6e6e6;}.cls-11{fill:#378fb5;opacity:0.4;}.cls-12{fill:#0fb513;}.cls-13{fill:#430d59;}.cls-14{fill:#691787;}.cls-15{fill:#ef8f6a;}.cls-16{fill:#f49c7d;}.cls-17{fill:#e07e61;}.cls-18{fill:#d36746;}.cls-19{fill:#f9a17a;}.cls-20{fill:#e57c5c;}.cls-21{opacity:0.39;}.cls-22{fill:#561272;}.cls-23{fill:#ed1c24;}.cls-24{fill:#d81624;}.cls-25{fill:#f44552;}.cls-26{fill:#f2f2f2;}.cls-27{fill:#6d1d23;}.cls-28{fill:#c1272d;}.cls-29{fill:#e5e1e1;}.cls-30{clip-path:url(#clip-path-2);}.cls-31{fill:#4bc0e3;}</style><clipPath id="clip-path"><path class="cls-2" d="M8.83,4.41A4.42,4.42,0,1,1,4.41,0,4.42,4.42,0,0,1,8.83,4.41Z"/></clipPath><mask id="mask" x="0.45" y="4.97" width="8.85" height="6.56" maskUnits="userSpaceOnUse"><path class="cls-1" d="M8.88,5c-.2-.11-.29,0-.41.25L7.74,6.57,5.19,7a.41.41,0,0,0,.08.82h.07L8,7.36l.15-.05a.41.41,0,0,0,.2-.19L9.2,5.67C9.31,5.47,9.08,5.12,8.88,5Z"/><path class="cls-1" d="M4.46,11.53a1.13,1.13,0,0,1-1.12-1.09,21.25,21.25,0,0,1,0-2.58V7.78a1.12,1.12,0,1,1,2.24.15V8c0,.3,0,.58,0,2.36A1.13,1.13,0,0,1,4.5,11.53Z"/><path class="cls-1" d="M3.81,7.48a.4.4,0,0,0-.56-.17A6.82,6.82,0,0,0,1.79,8.38c-.23-.59-.44-1.12-.47-1.24a.42.42,0,0,0-.41-.33.41.41,0,0,0-.41.42,10.53,10.53,0,0,0,.77,2.06h0v0h0v0h0l0,0h0l0,0h0l0,0h0l0,0h.5l0,0h0l0,0A6.25,6.25,0,0,1,3.64,8,.41.41,0,0,0,3.81,7.48Z"/></mask><clipPath id="clip-path-2"><circle class="cls-2" cx="20.49" cy="-2.64" r="9.88"/></clipPath></defs><title>Artboard 11-600</title><path class="cls-2" d="M8.83,4.41A4.42,4.42,0,1,1,4.41,0,4.42,4.42,0,0,1,8.83,4.41Z"/><g class="cls-3"><path class="cls-4" d="M5.82,8.8h.63a8.52,8.52,0,0,0-.9-1.92L5,6.83,5,7.15,5,7.27A8.38,8.38,0,0,1,5.82,8.8Z"/><path class="cls-5" d="M2.56,8.8A5.66,5.66,0,0,1,3.64,8a.41.41,0,0,0,.17-.56.4.4,0,0,0-.56-.17A6.82,6.82,0,0,0,1.79,8.38c-.23-.59-.44-1.12-.47-1.24a.42.42,0,0,0-.41-.33.41.41,0,0,0-.41.42A7.07,7.07,0,0,0,1.07,8.8Z"/><path class="cls-6" d="M2.56,8.8A5.66,5.66,0,0,1,3.64,8L3.73,8c-.06-.18-.11-.36-.11-.36L3,8.21l-.7.59Z"/><path class="cls-6" d="M1.33,8.8.8,7.5l-.25,0c.07.19.21.56.52,1.34Z"/><path class="cls-5" d="M5.55,8.8c0-.45,0-.62,0-.79V7.93a1.12,1.12,0,1,0-2.24-.15v.08c0,.22,0,.42,0,.94Z"/><path class="cls-5" d="M8.88,5c-.2-.11-.29,0-.41.25L7.74,6.57,5.19,7a.41.41,0,0,0,.08.82h.07L8,7.36l.15-.05a.41.41,0,0,0,.2-.19L9.2,5.67C9.31,5.47,9.08,5.12,8.88,5Z"/><path class="cls-6" d="M8.21,7a.19.19,0,0,1-.13.1l-.26.07c-.34.1-2.53.5-2.53.5v.21h.06L8,7.36l.12-.05a.39.39,0,0,0,.23-.19L9.2,5.67c.06-.12.19-.26.13-.37h-.2Z"/><g class="cls-7"><path class="cls-8" d="M4.78,8.8c-.27,0-.52,0-.74,0Z"/><path class="cls-8" d="M5.9,8.55A6.77,6.77,0,0,0,3,8.55l-.1-.34A7.09,7.09,0,0,1,6,8.21Z"/><path class="cls-8" d="M5.59,7.74A6.63,6.63,0,0,0,3,7.8l-.1-.33a6.48,6.48,0,0,1,2.42-.12C5.52,7.38,5.69,7.76,5.59,7.74Z"/><path class="cls-8" d="M6.16,8,5.79,8a2.47,2.47,0,0,0-.1-1.13L6,6.64A2.77,2.77,0,0,1,6.16,8Z"/><path class="cls-8" d="M6.91,7.81l-.37,0a2.65,2.65,0,0,0-.1-1.14l.33-.18A2.79,2.79,0,0,1,6.91,7.81Z"/><path class="cls-8" d="M7.74,7.7l-.38,0a2.47,2.47,0,0,0-.09-1.13l.32-.18A2.74,2.74,0,0,1,7.74,7.7Z"/><path class="cls-8" d="M8.67,7a2.47,2.47,0,0,0-1-.61L7.77,6a2.7,2.7,0,0,1,1.16.71Z"/><path class="cls-8" d="M9,6.36a2.55,2.55,0,0,0-.95-.62l.05-.36a2.65,2.65,0,0,1,1.16.71Z"/><path class="cls-8" d="M3.16,8.68a1.93,1.93,0,0,1-.51-1.33H3a1.55,1.55,0,0,0,.42,1.06Z"/><path class="cls-8" d="M2.71,8.8h0A1.56,1.56,0,0,1,2.3,7.73H1.93A1.78,1.78,0,0,0,2.25,8.8Z"/><path class="cls-8" d="M1.28,8.8a1.52,1.52,0,0,1,.57-.45L1.7,8a1.9,1.9,0,0,0-.87.79Z"/><path class="cls-8" d="M.78,8.28.45,8.1a2,2,0,0,1,1.12-.89l.1.36A1.6,1.6,0,0,0,.78,8.28Z"/></g><path class="cls-9" d="M10.05,4.48c0,.35-.12.56-.52.56s-.34,0-.64-.13a.55.55,0,0,1-.26-.62.67.67,0,0,1,.69-.44c.24,0,.82.2.59.27S9.83,4.38,10.05,4.48Z"/><path class="cls-10" d="M8.61,4.45a1.24,1.24,0,0,1-.14.43l.75.36V5l-.42-.3Z"/><path class="cls-9" d="M9.47,5.59h0a2.78,2.78,0,0,1-1-.48.18.18,0,0,1,0-.26.19.19,0,0,1,.26,0,2.38,2.38,0,0,0,.89.41.19.19,0,0,1,0,.37Z"/><path class="cls-10" d="M10,4.61s-.1-.13-.11-.1a1.73,1.73,0,0,1-.21.4c-.1.19-.43.13-.61,0a.93.93,0,0,1-.48-.58.55.55,0,0,0,.24.58L8.94,5l.54.29a.15.15,0,0,0,.09,0,.17.17,0,0,0,.15-.08l.3-.42A.17.17,0,0,0,10,4.61Z"/><path class="cls-10" d="M9.64,5.32a.18.18,0,0,1-.18.13h0a2.78,2.78,0,0,1-1-.48.18.18,0,0,1-.05-.07.19.19,0,0,0,.06.21,2.78,2.78,0,0,0,1,.48h0a.19.19,0,0,0,.19-.15A.25.25,0,0,0,9.64,5.32Z"/><path class="cls-9" d="M.45,6.62a.19.19,0,0,0,.18-.14L.7,6.19A.19.19,0,0,0,.55,6a4.16,4.16,0,0,1-.79-.2.19.19,0,0,0-.25.08.19.19,0,0,0,.08.25,3,3,0,0,0,.7.2l0,.1a.19.19,0,0,0,.14.23Z"/><path class="cls-9" d="M-.14,6.59c0,.35.12.56.52.56S.72,7.2,1,7a.55.55,0,0,0,.25-.63A.65.65,0,0,0,.59,6c-.25,0-.82.2-.6.27S.08,6.49-.14,6.59Z"/><path class="cls-10" d="M-.5,5.87a.91.91,0,0,0,.35.18c.27.07.45.15.4.26A.51.51,0,0,1,0,6.52c.14-.1.2-.24,0-.29H0a2.3,2.3,0,0,1-.4-.14A.18.18,0,0,1-.5,5.87Z"/><path class="cls-9" d="M-.41,7h0l.89-.25a.19.19,0,0,0,.13-.23A.19.19,0,0,0,.43,6.4l-.73.2-.19-.46A.18.18,0,0,0-.73,6a.18.18,0,0,0-.1.24l.25.62A.18.18,0,0,0-.41,7Z"/><path class="cls-10" d="M-.73,6h0a.82.82,0,0,0,.1.46.49.49,0,0,0,.53.21c.19,0,.46,0,.46,0l-.49.26L-.36,7h0A.18.18,0,0,1-.58,6.9l-.25-.62A.18.18,0,0,1-.73,6Z"/><path class="cls-9" d="M-.09,7.27l.08,0,.64-.31a.18.18,0,0,0,.09-.25A.18.18,0,0,0,.47,6.6L0,6.84-.28,6.5a.19.19,0,0,0-.26,0,.19.19,0,0,0,0,.26l.33.47A.21.21,0,0,0-.09,7.27Z"/><path class="cls-10" d="M-.54,6.46h0a1.33,1.33,0,0,0,.27.46c.18.2.9,0,.9,0L0,7.26h0a.21.21,0,0,1-.16-.08l-.33-.47A.19.19,0,0,1-.54,6.46Z"/><path class="cls-10" d="M1.3,6.56A1.24,1.24,0,0,0,1.44,7l-.75.36v-.2l.42-.3Z"/><path class="cls-1" d="M-.35,6.59c-.07-.1-.11-.14-.15-.15a.19.19,0,0,1,.22.06L0,6.84l.06,0c0,.07,0,.12-.06.12S-.24,6.76-.35,6.59Z"/><path class="cls-9" d="M.44,7.7h0a2.78,2.78,0,0,0,1.05-.48.18.18,0,0,0,0-.26.19.19,0,0,0-.26,0,2.38,2.38,0,0,1-.89.41.19.19,0,0,0,0,.37Z"/><path class="cls-9" d="M.34,7.4a.15.15,0,0,0,.09,0L1,7.09A.19.19,0,0,0,1,6.83a.18.18,0,0,0-.25-.07L.4,7,.19,6.68a.19.19,0,0,0-.26,0,.19.19,0,0,0,0,.26l.3.43A.18.18,0,0,0,.34,7.4Z"/><path class="cls-10" d="M-.13,6.72s.1-.13.11-.1A2,2,0,0,0,.19,7c.1.18.43.12.61,0a1,1,0,0,0,.48-.59A.55.55,0,0,1,1,7,.23.23,0,0,1,1,7.09l-.54.29a.15.15,0,0,1-.09,0,.18.18,0,0,1-.15-.07l-.3-.43A.17.17,0,0,1-.13,6.72Z"/><path class="cls-1" d="M.17,6.77.05,6.6a.17.17,0,0,1,.14.08L.4,7l.11-.06s0,.09,0,.1S.27,6.92.17,6.77Z"/><path class="cls-10" d="M.43,6.34a.57.57,0,0,0,.21,0A1.07,1.07,0,0,0,1,6.28a.78.78,0,0,0-.23.22,2,2,0,0,0-.1.23A1.35,1.35,0,0,0,.43,6.34Z"/><path class="cls-10" d="M.27,7.43a.17.17,0,0,0,.17.13h0a2.78,2.78,0,0,0,1.05-.48A.18.18,0,0,0,1.58,7a.19.19,0,0,1-.06.21,2.78,2.78,0,0,1-1,.48h0a.19.19,0,0,1-.19-.15A.17.17,0,0,1,.27,7.43Z"/><path class="cls-11" d="M3.81,8.8a19.13,19.13,0,0,1,.24-2,1,1,0,0,0-.34.2L3.57,8l-.12.79Z"/><path class="cls-11" d="M5.55,8.8c0-.45,0-.62,0-.79V7.93a1.13,1.13,0,0,0-.66-1.1,5.35,5.35,0,0,1-.78,2Z"/><path class="cls-12" d="M5.27,8.8a9.65,9.65,0,0,1,.28-1.92L5,6.8a10.67,10.67,0,0,0-.3,2Z"/><path class="cls-12" d="M3.63,8.8a13.31,13.31,0,0,1,.42-2A1.94,1.94,0,0,0,3.38,7,11.37,11.37,0,0,0,3,8.8Z"/><path class="cls-13" d="M2.68,3.76a.5.5,0,0,0-.5-.5.5.5,0,0,0-.51.5.51.51,0,0,0,.51.51A.5.5,0,0,0,2.68,3.76Z"/><circle class="cls-14" cx="2.03" cy="4.13" r="0.32"/><path class="cls-13" d="M6.4,4.27A.43.43,0,1,0,6,4.7.42.42,0,0,0,6.4,4.27Z"/><path class="cls-13" d="M6.4,4.79a.38.38,0,1,1,.38.38A.38.38,0,0,1,6.4,4.79Z"/><circle class="cls-13" cx="6.42" cy="4.19" r="0.46"/><circle class="cls-13" cx="6.13" cy="5.14" r="0.58"/><path class="cls-13" d="M5.35,5.56a.33.33,0,0,1,.33-.34.34.34,0,0,1,0,.67A.33.33,0,0,1,5.35,5.56Z"/><circle class="cls-13" cx="2.43" cy="4.7" r="0.51"/><path class="cls-15" d="M6.38,4.77a.4.4,0,1,1-.4-.4A.4.4,0,0,1,6.38,4.77Z"/><path class="cls-16" d="M4.48,7.29A.33.33,0,0,1,4.15,7L4,5.76a.32.32,0,0,1,.28-.37.33.33,0,0,1,.38.28l.16,1.24a.33.33,0,0,1-.28.38Z"/><path class="cls-17" d="M4.12,6.81a1.51,1.51,0,0,0,.64-.25l-.11-.89a.31.31,0,0,0-.09-.18L4,5.84Z"/><path class="cls-17" d="M2.85,4.43a.4.4,0,1,1-.4-.4A.4.4,0,0,1,2.85,4.43Z"/><path class="cls-18" d="M6,4.52H6a.29.29,0,0,1,.13.28A.28.28,0,0,1,5.86,5L6,5a.27.27,0,0,0,.3-.22A.26.26,0,0,0,6,4.52Z"/><path class="cls-19" d="M5.84,4.62a2.24,2.24,0,0,1-2.18,2,1.14,1.14,0,0,1-1.12-.89,3,3,0,0,1-.24-.94c0-.55.27-.69.48-1.6A1.57,1.57,0,0,1,4.21,2C5.17,2.1,6,2.67,5.84,4.62Z"/><path class="cls-15" d="M3.66,6.58a2.24,2.24,0,0,0,2.18-2c0-.07,0-.14,0-.2-.33-6.43.21,0-1.13,1.42A1.2,1.2,0,0,1,3,6.06,2.84,2.84,0,0,1,2.53,5a6.14,6.14,0,0,1,.08-1.22,2.48,2.48,0,0,0-.31,1,3,3,0,0,0,.24.94A1.14,1.14,0,0,0,3.66,6.58Z"/><path class="cls-20" d="M4.33,2.6a.48.48,0,1,1,1,0,.48.48,0,0,1-1,0Z"/><path class="cls-20" d="M4.7,2.34a.53.53,0,0,1-1.06,0,.53.53,0,0,1,1.06,0Z"/><path class="cls-20" d="M2.39,2.7a.44.44,0,0,1,.44-.44.44.44,0,0,1,.44.44.43.43,0,0,1-.44.44A.44.44,0,0,1,2.39,2.7Z"/><circle class="cls-20" cx="3.31" cy="2.34" r="0.49"/><circle class="cls-13" cx="4.18" cy="2.24" r="0.53"/><path class="cls-20" d="M3,3.36a.4.4,0,1,1-.79,0,.4.4,0,0,1,.79,0Z"/><path class="cls-13" d="M2.78,2.23a.5.5,0,1,1,.49.49A.49.49,0,0,1,2.78,2.23Z"/><circle class="cls-13" cx="2.48" cy="3.38" r="0.39"/><path class="cls-20" d="M4.93,3.09a.47.47,0,0,1,.48-.48.48.48,0,0,1,.48.48.49.49,0,0,1-.48.48A.48.48,0,0,1,4.93,3.09Z"/><path class="cls-13" d="M2.3,2.66a.44.44,0,0,1,.88,0,.44.44,0,0,1-.88,0Z"/><path class="cls-14" d="M3.85,1.64A.68.68,0,1,1,3.17,1,.67.67,0,0,1,3.85,1.64Z"/><circle class="cls-14" cx="4.06" cy="1.23" r="0.61"/><circle class="cls-14" cx="4.86" cy="1.18" r="0.42"/><path class="cls-14" d="M4.93,1.58a.62.62,0,0,0,.62.62.62.62,0,0,0,.62-.62A.61.61,0,0,0,5.55,1,.62.62,0,0,0,4.93,1.58Z"/><path class="cls-14" d="M5.53,2.22a.73.73,0,1,0,.73-.72A.73.73,0,0,0,5.53,2.22Z"/><path class="cls-14" d="M6.41,2.78a.5.5,0,0,0,.5.49.5.5,0,0,0,0-1A.5.5,0,0,0,6.41,2.78Z"/><path class="cls-14" d="M6.45,4.2a.44.44,0,0,1,.44-.43.43.43,0,0,1,0,.86A.44.44,0,0,1,6.45,4.2Z"/><path class="cls-14" d="M2.38,3.7a.4.4,0,0,1-.4.41A.41.41,0,1,1,2,3.3.4.4,0,0,1,2.38,3.7Z"/><path class="cls-13" d="M5.44,3.87A.54.54,0,1,1,6,4.41.53.53,0,0,1,5.44,3.87Z"/><circle class="cls-13" cx="4.86" cy="2.48" r="0.49"/><path class="cls-13" d="M5,3a.48.48,0,0,1,.48-.48A.47.47,0,0,1,6,3a.48.48,0,0,1-.48.48A.49.49,0,0,1,5,3Z"/><path class="cls-14" d="M6.09,3.39A.63.63,0,1,1,6.71,4,.63.63,0,0,1,6.09,3.39Z"/><path class="cls-14" d="M5.47,1.8a.55.55,0,1,1-.55-.55A.55.55,0,0,1,5.47,1.8Z"/><circle class="cls-14" cx="3.98" cy="1.56" r="0.55"/><path class="cls-14" d="M6.05,2.38a.41.41,0,1,1-.4-.4A.4.4,0,0,1,6.05,2.38Z"/><path class="cls-14" d="M5.63,3a.5.5,0,0,0,.5.51.51.51,0,0,0,0-1A.5.5,0,0,0,5.63,3Z"/><path class="cls-14" d="M2.55,3a.49.49,0,0,1-.49.49.5.5,0,1,1,0-1A.49.49,0,0,1,2.55,3Z"/><path class="cls-14" d="M2.93,2.23a.56.56,0,1,1-.56-.56A.56.56,0,0,1,2.93,2.23Z"/><path class="cls-21" d="M2.81,4.33c-.13,0-.32.12-.17.72S3,6.18,3.45,6.26a1.4,1.4,0,0,0,1.42-.81c.33-.63.46-.85.27-1s-.57.34-.88.51a.89.89,0,0,1-1-.13C3,4.57,2.91,4.31,2.81,4.33Z"/><path class="cls-22" d="M3,3.35l0-.19A1.09,1.09,0,0,0,3.58,3l.14.14A1.57,1.57,0,0,1,3,3.35Z"/><path class="cls-22" d="M5,3.42a1.05,1.05,0,0,1-.63-.24L4.44,3A.94.94,0,0,0,5,3.23H5v.19Z"/><path class="cls-15" d="M4.16,4.2a.47.47,0,0,1,0,.65.46.46,0,0,1-.64,0,.44.44,0,0,1,0-.64A.45.45,0,0,1,4.16,4.2Z"/><path class="cls-23" d="M4.05,4.12a.45.45,0,0,1,0,.65.45.45,0,1,1-.66-.62A.45.45,0,0,1,4.05,4.12Z"/><path class="cls-24" d="M4,4.56a.45.45,0,0,1-.64,0h0a.57.57,0,0,0,.13.21.46.46,0,0,0,.63-.66A.43.43,0,0,1,4,4.56Z"/><path class="cls-25" d="M3.82,4.24a.15.15,0,0,1-.14.15.14.14,0,0,1-.14-.14.13.13,0,0,1,.13-.14A.14.14,0,0,1,3.82,4.24Z"/><path d="M3,3.85c0,.19.06.35.19.37s.23-.13.26-.32-.06-.36-.18-.37S3,3.65,3,3.85Z"/><path class="cls-26" d="M3.22,3.78c0,.07,0,.13.06.14a.11.11,0,0,0,.09-.12c0-.07,0-.12-.06-.13S3.22,3.72,3.22,3.78Z"/><path d="M4.42,4c0,.19.06.35.18.37s.24-.13.26-.32-.06-.36-.18-.37S4.44,3.81,4.42,4Z"/><path class="cls-26" d="M4.63,4c0,.07,0,.12.06.13A.11.11,0,0,0,4.78,4c0-.07,0-.13-.06-.14A.11.11,0,0,0,4.63,4Z"/><path class="cls-27" d="M2.75,4.52a8.35,8.35,0,0,0,.3,1.19c.09.22.56.79,1.3,0s.73-1.1.73-1.1S3.78,6.07,2.75,4.52Z"/><path class="cls-1" d="M3.57,5.47a1.36,1.36,0,0,0,1.3-.4,1.15,1.15,0,0,0,.21-.46s-1.3,1.46-2.33-.09c0,0,0,.18.08.4A1.08,1.08,0,0,0,3.57,5.47Z"/><path class="cls-28" d="M3.1,5.8c.16.25.6.61,1.25-.09l.07-.07A1.72,1.72,0,0,0,3.1,5.8Z"/><path class="cls-29" d="M5.08,4.61s-1.3,1.46-2.33-.09c0,0,0,.07,0,.17a1.17,1.17,0,0,0,.93.63A1.89,1.89,0,0,0,5,4.76.39.39,0,0,0,5.08,4.61Z"/><path class="cls-23" d="M5.66,4.62a.21.21,0,0,1-.23.18c-.13,0-.24-.08-.24-.18s.11-.18.24-.18A.21.21,0,0,1,5.66,4.62Z"/><path class="cls-23" d="M2.84,4.29a.18.18,0,0,1-.19.18.18.18,0,1,1,0-.36A.18.18,0,0,1,2.84,4.29Z"/></g><circle class="cls-2" cx="20.49" cy="-2.64" r="9.88"/><g class="cls-30"><path class="cls-31" d="M20.61,9.12C22.27,2,13.72,1.54,6.31,8.93l-.2.19Z"/></g></svg>